<svg version="1.1" xmlns="http://www.w3.org/2000/svg" viewBox="0 0 1160.2260442739223 734.0417722138568" width="1160.2260442739223" height="734.0417722138568">
  <!-- svg-source:excalidraw -->
  
  <defs>
    <style>
  @font-face {
    font-family: "Virgil";
    src: url("../includes/fonts/Virgil.woff2");
  }

  @font-face {
    font-family: "Cascadia";
    src: url("../includes/fonts/Cascadia.woff2");
  }
</style>
  </defs>
  <rect x="0" y="0" width="1160.2260442739223" height="734.0417722138568" fill="#ffffff"></rect><g stroke-linecap="round" transform="translate(460.5068054199219 254.5723876953125) rotate(0 129.2938232421875 119.4432373046875)"><path d="M93.33 5.23 C106.45 -0.36, 124.24 -1.27, 139.12 -0.47 C153.99 0.33, 169.32 4.49, 182.57 10.01 C195.81 15.54, 207.98 23.11, 218.59 32.68 C229.2 42.25, 239.78 55.07, 246.23 67.44 C252.67 79.81, 255.7 93.41, 257.25 106.89 C258.8 120.37, 258.86 135.01, 255.53 148.3 C252.21 161.6, 245.54 175.25, 237.31 186.65 C229.07 198.05, 218.24 208.81, 206.12 216.7 C194 224.59, 178.78 230.31, 164.61 233.99 C150.44 237.67, 135.69 239.66, 121.08 238.79 C106.48 237.92, 90.62 234.48, 76.96 228.79 C63.31 223.11, 49.74 214.07, 39.16 204.66 C28.58 195.26, 19.82 184.43, 13.48 172.36 C7.13 160.29, 2.64 145.79, 1.1 132.26 C-0.44 118.72, 0.59 104.34, 4.24 91.14 C7.89 77.95, 14.8 64.39, 22.99 53.09 C31.18 41.79, 39.77 31.76, 53.4 23.34 C67.03 14.92, 94.01 6.03, 104.77 2.58 C115.52 -0.86, 117.38 0.73, 117.91 2.67" stroke="#000000" stroke-width="1.5" fill="none" stroke-dasharray="8 9"></path></g><g stroke-linecap="round" transform="translate(521.0449523925781 229.19583129882812) rotate(0 63 29.5)"><path d="M0 0 C0 0, 0 0, 0 0 M0 0 C0 0, 0 0, 0 0 M0.44 6.79 C1.81 4.41, 1.98 3.45, 5.33 -0.38 M-0.63 6.54 C1.15 5.05, 3.01 2.55, 5.11 0.43 M1.2 11.88 C2.04 8.97, 8.08 5.26, 9.65 -0.78 M-0.37 12 C3.25 7.54, 6.54 3.4, 9.98 0.45 M1.64 19.12 C2.65 13.55, 10.46 8.54, 15.03 0.74 M0.09 17.52 C4.3 14.13, 7.33 10.73, 15.69 -0.23 M2.13 25.12 C5.27 16.66, 13.64 9.77, 20.51 1.38 M0.76 24.11 C3.66 19.49, 8.57 12.96, 21.91 -0.95 M-1.59 29.07 C9.06 19.53, 19.4 6.91, 24.84 1.19 M0.88 31.32 C9.16 19.7, 20.56 7.77, 25.27 1.04 M-0.77 35.9 C11.34 23.84, 21.57 11.5, 32.78 -1.44 M0.42 36.93 C6.47 28.86, 14.4 19.16, 31.39 -0.24 M-0.02 44.2 C9.59 28.91, 22.09 14.99, 38.86 -0.27 M-0.18 42.85 C14.05 26.4, 26.95 11.54, 36.36 -0.74 M-1.99 48.15 C13.05 37.17, 24.64 21.19, 44.04 -1.57 M-1.09 48.04 C13.82 32.11, 28.08 17.01, 41.8 -0.73 M0.55 53.96 C14.7 37.11, 31.43 15.42, 47.68 1.66 M1.27 54.87 C11.79 40.73, 24.91 25.6, 48.49 -0.13 M1.45 60.81 C21.48 37.35, 44.26 10.12, 52.16 1.28 M0.57 61.07 C16.73 42.07, 34.81 22.68, 53.43 -0.85 M8.29 61.49 C21.76 42.54, 35.59 24.17, 58.93 -0.23 M6.22 60.35 C18.28 46.67, 28.24 34.1, 57.45 -0.17 M10.73 61.72 C23.95 43.82, 40.24 27.73, 65.05 -2.13 M11.19 60.61 C29.88 39.29, 46.88 19.53, 64.29 -1.02 M18.14 60.69 C32.85 40.5, 51.51 22.94, 67.28 0.31 M16.19 60.56 C30.15 45.59, 43.33 28.84, 68.23 0.61 M23.07 62.08 C32.37 45.99, 44.39 31.35, 74.62 -0.56 M22.73 59.63 C35.14 45.67, 47.02 31.86, 75.13 -0.63 M25.82 61.7 C47.27 36.1, 63.89 14.56, 80.41 1 M28.15 59.6 C48.24 34.84, 68.67 11.73, 80.08 -0.81 M34.52 61.23 C44.51 46.69, 57.6 31.44, 86.85 -0.3 M33.26 59.31 C50.87 40.08, 69.5 18.8, 84.44 -1.06 M37.66 59.86 C56.71 36.83, 76.4 17.67, 89.06 1.03 M37.41 60.26 C56.36 37.07, 75.63 14.65, 89.48 1.08 M44.18 59.99 C56.77 41.55, 73.04 25.87, 95.71 0.82 M44.07 59.33 C58.27 40.11, 75.87 22.84, 95.44 -0.67 M48.02 58.95 C60.78 47.16, 71.72 33.48, 100.98 -0.95 M47.98 60.37 C65.06 40.64, 79.59 22.76, 101.14 -0.7 M52.19 58.64 C65.54 45.84, 76.16 32.81, 105.23 -0.56 M54.68 60.9 C66.77 44.14, 80.11 29.53, 107.08 0.18 M61.31 61.25 C77.18 38.66, 97.88 18.12, 110.96 -0.8 M59.64 59.76 C70.88 47.1, 81.35 33.76, 111 -0.62 M65.71 58.93 C76.26 45.77, 87.99 31.97, 114.81 1.43 M63.84 59.76 C76.74 46.02, 90.98 30.45, 116.39 0.93 M69.96 61.49 C84.48 44.56, 95.01 30.55, 122.82 1.07 M70.89 59.3 C89.88 38.69, 108.13 17.52, 121.26 0.38 M76.94 58.08 C89.11 44.49, 102.55 32.2, 127.84 0.86 M74.56 59.12 C84.61 47.13, 96.47 36.65, 126.11 0.74 M80.41 60.88 C96.89 41.46, 112.97 23.34, 125.5 8.52 M79.96 59.85 C93.15 48.18, 103.11 35.25, 127.41 6.64 M85.09 58.78 C97.05 45.69, 110.83 29.94, 126.63 11.36 M85.06 60.75 C102.55 40.96, 118.18 23.34, 126.58 12.89 M91.17 61.09 C103.68 43.58, 114.71 29.61, 128.19 20.56 M91.82 59.3 C99.46 50.92, 105.38 41.84, 126.41 19.75 M94.42 59.19 C107.56 48.15, 116.91 34.24, 127.15 25.86 M95.79 59.92 C107.83 48.5, 116.85 35.56, 127.51 25.53 M102.75 58.26 C111.15 49.21, 117.99 42.53, 126.41 29.92 M101.18 59.55 C109.31 50.95, 118.03 43.4, 127.75 30.01 M108.23 58.94 C111.5 53.51, 118.39 47, 124.9 36.1 M106.46 60.4 C114.25 52.07, 120.13 44.47, 126.87 38.12 M111.05 61.76 C115.95 56.95, 119.07 51.27, 127.43 42.82 M112.82 60.27 C116.21 53.89, 121.68 47.99, 125.89 43.3 M118.46 60.72 C120.02 57.23, 122.73 53.56, 126.3 48.06 M117.18 59.6 C120.52 57.02, 122.64 54.42, 126.94 49.37 M123 60.48 C123.96 59.35, 124.97 58.21, 126.83 55.97 M122.78 60.4 C123.56 58.72, 124.67 57.64, 126.51 55.68" stroke="#fd7e14" stroke-width="0.5" fill="none"></path><path d="M-1.74 1.97 C28.68 -0.97, 60.16 1.19, 126.46 -0.2 M0.63 0.93 C40.31 1.84, 81.61 1.57, 125.66 -0.88 M127.06 0.53 C124.58 17.97, 127.25 34.78, 124.53 59.33 M125.51 -0.93 C125.81 11.68, 126.13 24.01, 125.36 59.55 M124.89 60.07 C76.35 58.07, 26.79 59.73, -1.86 60.91 M125.97 58.72 C78.77 57.67, 31.77 58.57, -0.09 58.12 M-1.77 59.93 C0.16 39.31, 1.54 18.18, 0.4 1.77 M-0.45 59.91 C-0.78 40.48, 0.54 21.4, -0.3 -0.5" stroke="#000000" stroke-width="1" fill="none"></path></g><g transform="translate(526.0449523925781 235.69583129882812) rotate(0 58 23)"><text x="58" y="17" font-family="Virgil, Segoe UI Emoji" font-size="20px" fill="#000000" text-anchor="middle" style="white-space: pre;" direction="ltr">LRU Cache</text><text x="58" y="40" font-family="Virgil, Segoe UI Emoji" font-size="20px" fill="#000000" text-anchor="middle" style="white-space: pre;" direction="ltr">leader</text></g><g transform="translate(109.38311161725699 455.5410009064183) rotate(0 64 20)"><text x="0" y="14" font-family="Virgil, Segoe UI Emoji" font-size="16px" fill="#495057" text-anchor="start" style="white-space: pre;" direction="ltr">Can have small </text><text x="0" y="34" font-family="Virgil, Segoe UI Emoji" font-size="16px" fill="#495057" text-anchor="start" style="white-space: pre;" direction="ltr">local LRU cache</text></g><g transform="translate(691.5626525878906 133.0784912109375) rotate(0 156.5 30)"><text x="0" y="14" font-family="Virgil, Segoe UI Emoji" font-size="16px" fill="#000000" text-anchor="start" style="white-space: pre;" direction="ltr">Hosting options:</text><text x="0" y="34" font-family="Virgil, Segoe UI Emoji" font-size="16px" fill="#000000" text-anchor="start" style="white-space: pre;" direction="ltr">* on service host</text><text x="0" y="54" font-family="Virgil, Segoe UI Emoji" font-size="16px" fill="#000000" text-anchor="start" style="white-space: pre;" direction="ltr">* on stand-alone memory-optimized host</text></g><g stroke-linecap="round" transform="translate(521.3159484863281 450.3919801674193) rotate(0 62.5 31.5)"><path d="M0 0 C0 0, 0 0, 0 0 M0 0 C0 0, 0 0, 0 0 M-0.47 7.01 C0.81 5.21, 2.6 2.95, 4.83 -0.34 M-0.62 6.06 C0.96 4.54, 2.59 3.24, 5.07 0.25 M0.28 11.36 C3.26 9.25, 5.79 7.99, 10.93 0.04 M0.77 12.04 C3.44 7.37, 7.56 3.14, 11.31 -0.55 M-0.05 20.1 C3.55 15.08, 6.6 9.19, 14.03 -0.43 M0.58 19.15 C2.86 15.67, 5.91 11.17, 15.45 0.99 M0.88 22.92 C8.09 16.89, 14.47 11.02, 19.48 -1.08 M-0.43 23.26 C7.69 14.21, 16.33 5.76, 20.53 0.29 M-1.92 31.44 C9.7 22.43, 15.63 10.33, 25.12 0.61 M-0.06 30.02 C7.83 20.85, 15.68 12.88, 26.03 -0.42 M-1.4 37.31 C10.82 26.92, 21.51 14.13, 31.33 1.41 M0.41 36.66 C9.05 27.32, 15.56 17.46, 31.19 -1.02 M0.92 42.03 C13.39 27.48, 29.76 11.27, 35.08 0.17 M-0.68 42.97 C10.6 32.08, 19.95 19.43, 37.81 0.09 M0.35 48.92 C10.11 37.38, 16.31 28.39, 40.55 -0.56 M0.43 49.16 C12.54 35.77, 23.95 21.17, 42.32 0.54 M-1.17 53.45 C9.85 43.25, 20.7 32.84, 49.16 1.19 M0.4 55.31 C13.82 39.52, 27.44 22.62, 48.39 -0.23 M-0.9 59.06 C15.83 41.61, 31.58 25.07, 54.14 0.44 M-0.62 60.98 C19.9 36.34, 41.12 14.46, 53.01 -0.41 M0.5 65.22 C20.19 45.41, 35.41 24.49, 58.61 1.04 M2.39 64.37 C16.79 46.62, 33.07 29.66, 59.09 -0.09 M5.72 66.45 C22.84 45.8, 41.83 23.46, 62.13 1.28 M6.61 65.27 C26.32 42.62, 43.2 22.69, 63.57 -0.69 M12.2 66.77 C31.03 44.16, 50.82 19.55, 70.75 1.6 M12.29 64.45 C28.3 49.25, 43.35 31.5, 67.98 0.79 M19.94 63.09 C33.45 45.25, 52.14 26.38, 75.6 -1.7 M17.07 65.03 C34.89 44.26, 51.65 26.08, 74.56 0.36 M24.21 66.65 C33.65 53.02, 47.44 37.4, 78.91 -0.81 M22.29 64.95 C41.1 44.26, 57.79 25.74, 78.85 0.73 M28.19 62.72 C50.46 39.46, 69.41 19.2, 84.64 1.32 M28.08 64.55 C41.69 50.49, 53.59 36.14, 85.78 -0.06 M34.99 64.3 C48.25 50.27, 60.77 33.19, 88.46 -1.38 M32.98 65.28 C48.82 47.69, 62.59 29.92, 90.24 1.04 M40.22 63.76 C54.04 45.38, 68.38 28.73, 96.39 -0.39 M39 65.32 C60.45 41.81, 81.7 16.56, 95.24 -1.25 M44.06 66.62 C63.98 40.25, 87.86 14.33, 98.8 -0.87 M45.21 64.31 C56.19 51.12, 67.73 38.26, 100.42 -0.92 M51.8 63.11 C65.55 45.24, 79.85 28.59, 105.01 -0.06 M48.89 64.89 C69.05 41.56, 89.91 18.64, 106.2 0.02 M53.95 65.98 C77.95 38.61, 99.92 15.25, 109.34 0.49 M55.05 65.46 C75.15 41.15, 95.47 17.68, 110.37 -0.82 M58.73 66.12 C77.3 46.2, 92.79 28.51, 117.03 1.28 M59.57 63.78 C81.33 40.82, 100.31 18.2, 115.5 1.23 M64.22 66.25 C81.92 42.51, 101.26 23.14, 121.55 0.88 M64.8 65.65 C78.93 49.42, 93.59 34.21, 122.85 -0.27 M70.85 64.62 C91.23 42.31, 106.47 24.2, 127.34 2.56 M70.6 64.56 C87.69 44.89, 105.73 25.5, 126.53 0.89 M77.48 64.72 C92.3 45.34, 107.49 29.56, 126.37 6.53 M76 64.33 C88.63 48.74, 102.18 32.86, 126.75 7.66 M82.01 62.91 C94.66 52.47, 105.72 37.03, 125.35 14.26 M82.25 64.79 C95.74 49.29, 106.96 35.09, 126.4 13.08 M85.37 66.18 C96.19 51.92, 109.06 39.66, 125.94 19.56 M86.42 64.45 C99.72 49.96, 114.53 34.26, 125.9 19.34 M92.12 63.76 C97.14 56.02, 107.08 48.58, 127.2 25.68 M92.53 64.08 C102.95 52.1, 112.84 39.9, 127.16 25.78 M98.53 64.88 C104.55 54.57, 112.97 47.92, 127.74 33.05 M97.08 65.48 C105.67 54.78, 114.21 45.41, 126.19 30.67 M101.11 62.41 C107.91 60.56, 111.94 52.97, 127.54 37.68 M102.21 65.02 C110.93 54.46, 118.89 45.98, 126.57 38.53 M108.67 66.55 C115.74 58.68, 118.92 48.8, 125.36 43.09 M107.22 64.4 C112.21 59.75, 117.76 55.84, 127.28 44.08 M114.28 65.31 C115.99 59.82, 119.6 56.52, 126.04 50.3 M113.1 64.99 C117.16 58.94, 122.42 52.96, 125.61 49.14 M118.57 65.71 C121.51 63.76, 123.01 61.48, 127.66 54.79 M119.05 64.73 C121.51 61.29, 124.21 57.67, 125.96 55.27" stroke="#15aabf" stroke-width="0.5" fill="none"></path><path d="M0.29 -0.26 C34.49 1.14, 66.9 1.32, 125.89 -0.28 M-0.37 0.96 C39.8 -0.42, 82.26 0.06, 124.29 -0.81 M125.32 1.7 C123.71 23.08, 122.99 49.16, 123.32 63.97 M124.1 -0.71 C124.8 14.2, 124.36 30.07, 125.24 63.92 M123.53 62.51 C95.82 66, 69.58 64.38, 0.11 61.72 M124.29 62.29 C87.62 62.81, 50.26 62.43, 0.63 62.62 M1.97 62.92 C1.83 38.98, -1.25 17.51, -0.7 1.32 M0.88 62.61 C0.33 43.36, 0.72 22.31, -0.18 0.21" stroke="#000000" stroke-width="1" fill="none"></path></g><g transform="translate(526.3159484863281 458.3919801674193) rotate(0 57.5 23)"><text x="57.5" y="17" font-family="Virgil, Segoe UI Emoji" font-size="20px" fill="#000000" text-anchor="middle" style="white-space: pre;" direction="ltr">LRU Cache</text><text x="57.5" y="40" font-family="Virgil, Segoe UI Emoji" font-size="20px" fill="#000000" text-anchor="middle" style="white-space: pre;" direction="ltr">leader</text></g><g transform="translate(402.9945983886719 10) rotate(0 157.5 22.5)"><text x="0" y="32" font-family="Virgil, Segoe UI Emoji" font-size="36px" fill="#000000" text-anchor="start" style="white-space: pre;" direction="ltr">Distributed cache</text></g><g transform="translate(499.78986605926514 327.4793183283634) rotate(0 95 38)"><text x="95" y="18.333333333333332" font-family="Virgil, Segoe UI Emoji" font-size="20px" fill="#000000" text-anchor="middle" style="white-space: pre;" direction="ltr">hash ring</text><text x="95" y="43.666666666666664" font-family="Virgil, Segoe UI Emoji" font-size="20px" fill="#000000" text-anchor="middle" style="white-space: pre;" direction="ltr">"consistent hashing"</text><text x="95" y="69" font-family="Virgil, Segoe UI Emoji" font-size="20px" fill="#000000" text-anchor="middle" style="white-space: pre;" direction="ltr"></text></g><g transform="translate(34.83371551378849 506.58939590787236) rotate(0 146.00000000000003 50)"><text x="0" y="14" font-family="Virgil, Segoe UI Emoji" font-size="16px" fill="#000000" text-anchor="start" style="white-space: pre;" direction="ltr">routing info provided to all</text><text x="0" y="34" font-family="Virgil, Segoe UI Emoji" font-size="16px" fill="#000000" text-anchor="start" style="white-space: pre;" direction="ltr">cache clients by using</text><text x="0" y="54" font-family="Virgil, Segoe UI Emoji" font-size="16px" fill="#000000" text-anchor="start" style="white-space: pre;" direction="ltr">config service like zookeeper, </text><text x="0" y="74" font-family="Virgil, Segoe UI Emoji" font-size="16px" fill="#000000" text-anchor="start" style="white-space: pre;" direction="ltr">or through config file pushed</text><text x="0" y="94" font-family="Virgil, Segoe UI Emoji" font-size="16px" fill="#000000" text-anchor="start" style="white-space: pre;" direction="ltr">on the service host by consul/ansible</text></g><g stroke-linecap="round" transform="translate(458.0878794722746 129.77827531655737) rotate(0 44.5 29.263397216796875)"><path d="M0 0 C0 0, 0 0, 0 0 M0 0 C0 0, 0 0, 0 0 M0.34 5.82 C2.2 4.44, 4.2 1.32, 4.21 0.47 M-0.09 6.4 C0.95 4.87, 2.87 2.68, 5.32 0.37 M0.89 10.53 C3.3 6.39, 7.35 2.77, 9.46 0.3 M-0.59 11.46 C3.6 7.68, 5.77 4.32, 10.06 -0.35 M1.55 19.87 C3.7 11.55, 10 6.58, 17.57 -1.46 M-1.03 18.08 C4.71 12.11, 10.99 4.49, 14.98 0.52 M-0.49 24.06 C8.73 15.92, 12.57 9.33, 20.92 -1.23 M1.19 23.97 C5.22 18.72, 10.36 11.33, 21.54 -0.3 M0.32 28.86 C8.13 20.87, 15.75 10.65, 26.25 0.11 M-0.74 29.64 C6.25 22.67, 12.82 17.08, 26.34 -0.1 M-0.24 35.01 C9.48 27.15, 17.89 16.56, 31.44 0.6 M-0.38 36.48 C7.31 28.89, 14.52 20.62, 31.39 -0.18 M1.36 41.76 C9.87 29.17, 19.73 20.36, 37.32 -0.98 M-0.4 42.62 C10.58 30.86, 21.53 19.96, 37.62 0.78 M-0.25 48.83 C9.97 33.4, 24.7 19.44, 44.21 -1.45 M0.35 49.77 C14.56 31.5, 28.82 15.15, 41.92 0.32 M0.54 52.85 C13.35 38.74, 30.91 19.16, 48.02 0.45 M1.26 53.62 C14.81 37.97, 28.99 20.79, 46.78 0.92 M1.76 59.53 C20.16 39.41, 36.31 20.07, 52.76 -0.24 M0.83 59.03 C21.33 36.14, 41.53 12.2, 53.35 -0.41 M5.68 60.11 C22.39 40.59, 37.27 21.98, 58.65 -1 M7.17 60.42 C17.36 46.08, 29.09 31.89, 59.04 0.6 M10.34 58.32 C27.57 38.24, 47.11 20.25, 62.64 -0.16 M12.93 59.69 C30.6 38.41, 48.72 18.09, 64.61 -0.94 M17.37 58.29 C35.96 35.47, 56.52 12.53, 70.52 0.78 M17.76 60.13 C35.24 39.04, 53.84 18.38, 67.81 -0.37 M21.98 59.48 C38.27 39.33, 57.93 20.84, 73.43 0.87 M21.71 60.29 C43.18 36.97, 63.79 13.56, 74.38 0.15 M26.99 60.38 C43.54 44.52, 58.2 24.23, 79.98 1.35 M27.92 59.67 C42.67 43.57, 56.26 25.65, 79.76 0.32 M33.42 60.19 C47.21 41.59, 65.46 21.88, 84.76 1.39 M32.65 59.34 C45.99 43.66, 60.45 30.27, 84.07 -0.68 M38.54 58.54 C54.18 40.82, 71.93 22.15, 87.77 0.5 M37.89 59.66 C49.13 44.79, 62.73 32.93, 89.13 1.26 M42.42 61.12 C57.09 42.48, 75.02 24.74, 88.36 5.23 M43.46 58.87 C59.76 41.89, 76.44 22.44, 88.9 5.82 M50.02 59.43 C58.42 50.69, 64.42 41.68, 89.1 13.3 M49.6 58.77 C62.08 46.16, 74.25 32.34, 88.87 13.36 M53.75 60.4 C59.8 48.82, 68.56 41.89, 91.22 20.35 M55.08 59.39 C62.11 51.7, 69.58 41.65, 90.07 17.62 M59.5 58.14 C69.51 47.62, 81.65 35.17, 91.27 24.39 M59.76 58.65 C66.36 53.38, 73.06 44.3, 89.2 25.16 M65.24 59.61 C71.51 50.46, 78.39 43.84, 89 30.18 M64.7 58.97 C71.54 52.96, 77.92 44.15, 89.12 31.69 M71.06 60.27 C73.96 52.99, 81.56 46.26, 90.74 35.21 M70.77 58.98 C76.78 50.96, 84.96 42.94, 89.7 37.04 M73.74 57.82 C77.54 55.38, 82.15 50.51, 90.73 41.64 M76.73 60.16 C79.28 54.81, 81.91 51.79, 89.71 43.03 M80.79 59.77 C82.99 55.45, 85.12 54.24, 89.29 50.18 M80.08 60.21 C84.75 55.88, 88.2 51.1, 90.13 48.93 M85.34 59.45 C87.52 57.86, 88.81 55.86, 89.61 55.09 M85.54 59.89 C87.08 58.58, 88.52 56.92, 89.53 55.26" stroke="#ced4da" stroke-width="0.5" fill="none"></path><path d="M0.44 -0.77 C20.29 0.12, 44.85 -0.89, 90.33 -1.89 M-0.6 -0.73 C23.03 -1.28, 44.63 -1.58, 88.97 0.42 M90.27 -1.99 C87.73 19.66, 87.89 37.96, 89.99 60.46 M88.08 -0.8 C87.91 18.31, 88.71 38.38, 89.66 58.47 M87.57 57.91 C64.03 58.79, 39.87 58.3, 0.79 58.08 M88.78 57.63 C56.11 58.32, 22.06 57.16, 0.77 58.3 M1.95 56.9 C0.35 36.37, 0.56 12.29, -0.88 1.75 M0.45 59.23 C-1.06 40.01, -0.56 21.14, 0.03 -0.66" stroke="#000000" stroke-width="1" fill="none"></path></g><g transform="translate(463.0878794722746 146.54167253335424) rotate(0 39.5 12.5)"><text x="39.5" y="18" font-family="Virgil, Segoe UI Emoji" font-size="20px" fill="#000000" text-anchor="middle" style="white-space: pre;" direction="ltr">replica</text></g><g stroke-linecap="round" transform="translate(567.0074157714844 104.6348876953125) rotate(0 44.5 29.263397216796875)"><path d="M0 0 C0 0, 0 0, 0 0 M0 0 C0 0, 0 0, 0 0 M0.34 6.26 C1.18 3.88, 3.98 2.72, 5.73 0.27 M-0.39 6.51 C1.03 4.89, 2.68 3.3, 5.05 0.04 M0.39 12.04 C2.84 7.73, 6.15 4.94, 9.44 -1.38 M0.61 12.11 C3.26 7.99, 6.77 4.18, 10.64 -0.78 M0.23 17.99 C5.77 10.71, 9.09 4.66, 15.36 -0.46 M-0.74 17.94 C5.24 11.81, 9.98 6.24, 16.23 -0.06 M0.89 24.52 C5.11 16.92, 11.3 9.96, 20.18 0.14 M0.91 24.82 C7.35 16.26, 13.86 8.03, 21.19 -0.11 M-1.54 32.17 C4.25 24.97, 9.41 19.97, 27.2 1.99 M-0.76 29.88 C8.94 21.14, 17.42 10.47, 26.38 -0.57 M-1.05 37.39 C6.5 29.17, 11.46 22.46, 33.87 -1.99 M-0.29 36.15 C8.57 27.85, 15.99 18.93, 32.11 -0.06 M0.1 42.13 C14.48 27.71, 28.9 9.84, 35.9 -0.58 M0.36 42.72 C8.62 32.71, 17.3 21.95, 36.56 0.41 M-0.91 49.43 C10.84 34.17, 25.87 21.29, 44.23 1.07 M-0.44 49.82 C11.23 37.01, 22.24 23.41, 41.71 -0.69 M0.82 53.42 C11.34 43.21, 22.02 31.54, 49.47 0.77 M1.15 55.4 C15.94 36.07, 32.6 16.95, 47.72 -0.52 M-0.37 61.2 C15.32 45.67, 29.16 29.25, 54.78 0.54 M2.27 58.49 C17.67 39.88, 35.5 20.06, 52.85 -0.12 M7.64 58.83 C19.17 47.84, 29.29 31.83, 56.4 2.01 M6.54 59.78 C23.73 39.3, 39.96 19.14, 57.85 0.51 M10.55 60 C29.89 39.21, 45.69 19.61, 64.49 -0.35 M11.9 59.77 C28.46 40.66, 45.76 20.55, 63.89 0.22 M15.86 59.49 C30.05 45.43, 40.05 31.47, 67.64 0.15 M17.77 58.8 C30.81 43.78, 45.85 27.29, 68.94 -0.43 M23.23 57.78 C37.3 40.41, 52.55 26.37, 73.79 -0.33 M23.42 59.14 C34.36 46.66, 45.45 33.75, 73.7 0.66 M26.93 58.33 C38.74 45.87, 51.96 30.33, 78.63 -0.77 M27.32 58.87 C41.18 41.51, 55.97 25.7, 79.99 0 M34.74 58.94 C51.14 39.35, 67.43 19.04, 86.59 -2.09 M34.05 58.71 C52.91 35.58, 72.88 14.91, 84.68 0.28 M38.4 61.03 C51.17 45.84, 60.61 33.24, 90.59 1.06 M37.76 59.87 C52.84 41.92, 69.99 22.19, 89.39 0.09 M44.58 60.94 C54.85 44.01, 66.22 32.49, 90.36 4.5 M43 58.87 C59.45 40.49, 74.18 21.75, 89.84 6.66 M49.26 59.29 C58.5 46.84, 71.9 35.59, 88.7 12.33 M48.19 59.41 C62.59 43.16, 76.68 26.85, 89.99 13.21 M52.74 60.25 C61.59 50.4, 72.83 39.4, 91.26 17.29 M54.49 59.21 C63.69 48.02, 71.69 38.29, 88.9 17.83 M57.99 60.86 C64.59 50.39, 71.86 42.75, 91.63 26.83 M59.23 59.84 C69.36 48.01, 79.9 36.63, 89.68 25.06 M65.67 58.36 C73.97 53.22, 80 41.89, 87.55 33.14 M64.78 59.57 C73.73 49.86, 82.34 39.25, 88.76 30.51 M68.52 59.51 C75.84 52.54, 82.64 43.18, 88.68 36.73 M70 59.23 C75.78 51.36, 82.87 44.95, 89.55 37.9 M74.31 59.83 C81.45 51, 85.19 47.87, 90.31 43.99 M75.11 59.02 C80.75 53.48, 85.27 47.1, 89.17 43.21 M80.4 60.59 C84.11 56.17, 86.69 51.98, 91.1 47.76 M81.02 60.15 C83.3 56.87, 86.95 52.85, 90.45 48.46 M86.21 59.64 C86.96 58.38, 88.96 56.14, 89.79 54.99 M85.83 59.84 C86.92 59.01, 88 57.66, 89.89 55.1" stroke="#ced4da" stroke-width="0.5" fill="none"></path><path d="M0.26 -0.88 C29.64 0.16, 56.35 -1.18, 89.91 1.4 M-0.07 0.03 C18.06 -0.51, 36.73 -0.17, 88.79 -0.65 M87.04 0.73 C90.16 22.06, 89.74 40.85, 87.13 58.15 M89.27 0.79 C89.39 19.57, 89.15 38.75, 89.75 57.8 M87.14 56.58 C56.03 59.42, 23.02 58.33, 0.87 58.54 M88.84 59.37 C70.55 58.92, 52.95 59.19, 0.48 57.58 M-0.86 57.07 C0.89 42.7, 1.78 25.73, -1.82 -1.46 M-0.36 57.82 C0.09 38.97, 0.61 18.52, 0.84 0.71" stroke="#000000" stroke-width="1" fill="none"></path></g><g transform="translate(572.0074157714844 121.39828491210938) rotate(0 39.5 12.5)"><text x="39.5" y="18" font-family="Virgil, Segoe UI Emoji" font-size="20px" fill="#000000" text-anchor="middle" style="white-space: pre;" direction="ltr">replica</text></g><g stroke-linecap="round"><g transform="translate(547.2838798973287 228.19583129882812) rotate(0 -14.238412478138855 -19.445380774338503)"><path d="M0.2 -0.4 C-4.67 -6.92, -24.62 -33.32, -29.37 -39.9 M-1.15 -1.66 C-5.64 -7.99, -22.49 -32.65, -27.12 -38.9" stroke="#000000" stroke-width="1" fill="none"></path></g><g transform="translate(547.2838798973287 228.19583129882812) rotate(0 -14.238412478138855 -19.445380774338503)"><path d="M-7.97 -26.67 C-14.66 -28.79, -20.45 -31.87, -25.92 -38.72 M-7.47 -25.18 C-13.38 -28.47, -17.34 -32.35, -26.94 -39.12" stroke="#000000" stroke-width="1" fill="none"></path></g><g transform="translate(547.2838798973287 228.19583129882812) rotate(0 -14.238412478138855 -19.445380774338503)"><path d="M-21.43 -17.13 C-24.14 -22.06, -26.01 -27.91, -25.92 -38.72 M-20.92 -15.65 C-23.3 -21.4, -23.74 -27.77, -26.94 -39.12" stroke="#000000" stroke-width="1" fill="none"></path></g></g><g stroke-linecap="round"><g transform="translate(583.7262657804089 228.19583129882812) rotate(0 11.837891697197335 -32.01707458496094)"><path d="M-0.74 -0.55 C3.11 -11.26, 19.26 -52.86, 23.33 -63.45 M1.07 1.78 C4.72 -9.36, 18.56 -54.5, 22.2 -65.27" stroke="#000000" stroke-width="1" fill="none"></path></g><g transform="translate(583.7262657804089 228.19583129882812) rotate(0 11.837891697197335 -32.01707458496094)"><path d="M22.47 -35.87 C23.77 -44.76, 22.29 -54.15, 20.77 -67.14 M22.64 -35.4 C23.32 -44.82, 23.6 -53.74, 21.49 -65.9" stroke="#000000" stroke-width="1" fill="none"></path></g><g transform="translate(583.7262657804089 228.19583129882812) rotate(0 11.837891697197335 -32.01707458496094)"><path d="M2.93 -42.12 C10.47 -48.92, 15.19 -56.32, 20.77 -67.14 M3.09 -41.66 C9.44 -49.11, 15.45 -56.19, 21.49 -65.9" stroke="#000000" stroke-width="1" fill="none"></path></g></g><g stroke-linecap="round" transform="translate(458.1297302246094 556.6612548828125) rotate(0 44.5 29.263397216796875)"><path d="M0 0 C0 0, 0 0, 0 0 M0 0 C0 0, 0 0, 0 0 M-0.29 6.82 C0.24 5.49, 2.38 4.06, 5.15 0.14 M-0.52 6.26 C1.03 4.42, 3.45 2.95, 5.1 0.44 M0.46 10.66 C3.83 6.74, 7.79 5.01, 11.2 -1.52 M0.3 12.36 C1.8 8.99, 4.95 5.99, 11.42 -0.48 M-2.05 16.91 C6.36 11.3, 11.81 4.33, 13.84 -1.12 M0.41 17.95 C3.16 14.98, 6.76 9.24, 14.92 0.3 M-0.1 25.77 C8.18 16.68, 13.14 8.35, 19.58 1.47 M-0.71 24.26 C7.93 15.03, 17.66 4.82, 21.47 -0.39 M-1.23 29.71 C7.44 23.44, 13.54 17.5, 25.46 -1.28 M-0.37 30.42 C6.29 22.48, 13.38 14.88, 26.84 -0.06 M1.22 38.26 C11.75 24.06, 21.4 12.56, 31.13 0.59 M0.2 36.16 C11.28 23.12, 23.6 9.84, 30.96 -0.25 M1.54 41.6 C12.93 28.15, 24.32 13.04, 35.06 -0.09 M-0.25 41.84 C10.3 29.14, 23.01 16.46, 37.72 0.05 M1.01 48.5 C15.25 32.51, 28.3 13.78, 43.09 0.03 M-0.11 49.37 C8.66 38.49, 17.3 27.86, 42.03 0.02 M-0.26 54.77 C9.09 44.6, 20.89 32.85, 48.5 0.53 M-0.48 54.58 C13.31 40.09, 27.45 24.66, 47.47 -0.31 M2.14 59.42 C16.81 40.57, 34.07 19.84, 52.58 0.86 M1.75 60.4 C18.21 39.53, 36.95 19.12, 53.33 -0.4 M4.76 61.11 C15.78 44.49, 31.11 33.25, 56.66 2.1 M6.31 59.23 C20.93 44.33, 33.59 27.68, 58.24 -0.55 M11.76 61.13 C23.7 45.79, 35.07 34.55, 62.73 -1.41 M12.59 58.94 C24.91 45.96, 36.13 31.29, 63.25 -0.27 M18.8 59.27 C28.61 45.5, 41.25 32.93, 69.45 -0.37 M16 60.7 C32.2 44.53, 45.09 28.21, 69.42 0.42 M22.96 60.81 C43.89 36.86, 65.49 11.86, 72.74 1.2 M23.45 58.87 C39.18 39.52, 56.12 20.27, 74.92 0.62 M28.83 60.15 C48.89 36.84, 65.71 13.36, 77.82 -0.41 M27.95 60.69 C41.02 44.08, 53.69 28.32, 78.62 -0.79 M35.06 58.56 C46.68 40.62, 64.64 23.75, 83.8 -0.85 M32.74 58.96 C47.45 43.24, 60.01 27.59, 85.19 0.51 M36.43 59.82 C51.63 43.33, 64.55 32.32, 91.07 2.68 M37.83 59.64 C53.15 41.03, 69.27 21.92, 90.03 1.71 M42.41 59.94 C59.64 44.31, 73.67 27.71, 91.25 6.15 M44.13 58.55 C57.88 42.76, 71.86 26.09, 89.76 7.48 M47.22 58.83 C65.33 41.18, 78.79 24.86, 91.04 14.85 M48.04 59 C62.5 43.3, 77.11 27.51, 89.57 13.12 M56.39 57.99 C65.95 46.39, 78.94 30.71, 91.69 18.09 M53.53 58.45 C65.6 46.2, 77.34 32.92, 89.26 19.27 M60.84 60.2 C65.24 52.26, 74.52 43.45, 89.61 25.68 M58.73 60.22 C69.24 49.11, 79.45 37.36, 89.39 25.29 M63.41 59.21 C72 54.49, 76.51 45.85, 88.34 32.3 M66.06 60.03 C73.12 49.86, 80.73 40.77, 89.71 31.66 M68.97 59.42 C77.94 53.41, 82.35 45.19, 89.84 35.5 M70.77 59.78 C75.94 53.42, 79.27 48.48, 90.05 36.89 M74.93 57.57 C77.88 53.43, 83.14 50.64, 87.85 43.6 M75.09 60.13 C80.67 52.41, 87.33 47.64, 90.2 43.44 M81.15 58.78 C82.99 56.74, 86.56 53.42, 89.85 49.8 M80.76 60.01 C83.14 56.7, 85.26 55.08, 89.5 49.08 M85.42 60.33 C86.89 58.64, 87.16 57.32, 90.03 54.84 M85.97 60.22 C87.32 58.31, 88.95 56.42, 89.93 55.19" stroke="#ced4da" stroke-width="0.5" fill="none"></path><path d="M1.98 -0.45 C26.87 1.13, 51.16 0.39, 88.48 1.71 M0.15 0.42 C19.62 -0.32, 38.54 0.72, 89.02 0.77 M88.67 1.68 C88.39 12.43, 89.57 27.43, 87.14 59.02 M88.41 0.42 C88.52 14.16, 89.75 27.77, 89.53 59.34 M89.2 57.28 C72.81 57.73, 55.08 58.05, -0.7 57.16 M89.68 59 C56 56.89, 23.18 57.8, -0.52 57.66 M0.92 58.25 C-1.52 35.72, 0.34 15.25, -0.04 -0.02 M-0.17 57.6 C0.47 42.79, -1 28.15, -0.91 -0.67" stroke="#000000" stroke-width="1" fill="none"></path></g><g transform="translate(463.1297302246094 573.4246520996094) rotate(0 39.5 12.5)"><text x="39.5" y="18" font-family="Virgil, Segoe UI Emoji" font-size="20px" fill="#000000" text-anchor="middle" style="white-space: pre;" direction="ltr">replica</text></g><g stroke-linecap="round" transform="translate(583.3055114746094 559.2304992675781) rotate(0 44.5 29.263397216796875)"><path d="M0 0 C0 0, 0 0, 0 0 M0 0 C0 0, 0 0, 0 0 M-0.8 6.81 C2.23 4.78, 4.25 1.57, 5.59 -0.15 M-0.62 6.19 C1.28 4.49, 2.21 3.08, 4.92 0.38 M0.6 11.56 C3.45 8.75, 4.55 7.22, 9.52 -0.06 M0.01 12.08 C2.04 8.97, 3.86 6.39, 11.34 -0.7 M-0.83 18.3 C7.09 10.99, 12.28 5.18, 14.02 -0.5 M-0.93 17.45 C5.05 13.08, 9.62 6.16, 14.69 -0.49 M0.25 24.6 C4.97 18.41, 9.48 13.92, 21.66 1.59 M0.43 24.51 C6.82 15.7, 14.85 8.14, 22.15 0.58 M1.47 28.58 C8.76 21.45, 14.84 12.48, 25.83 -1.16 M0.75 30.5 C7.39 23.12, 13.6 14.57, 26.68 0.97 M1.24 36.58 C8.5 26.65, 18.4 11.76, 33.54 0.4 M0.5 36.66 C6.66 28.01, 14.76 21.02, 31.13 0.43 M0.25 42.96 C11.66 31.41, 23.67 16.14, 37.28 1.67 M-0.15 42.15 C10.13 31.8, 18.91 22.49, 35.96 0.61 M0.74 48.06 C12.3 36.61, 21.11 24.06, 43.5 -0.08 M-0.51 49.02 C13.32 33.57, 29.51 17.2, 42.38 0.63 M-1.51 54.62 C17.75 35.69, 34.83 15.58, 48.75 0.03 M1.11 54.53 C10.96 42.18, 20.59 30.4, 47.92 -0.23 M0.14 59.96 C20.24 38.57, 38.74 16.78, 52.19 -1.85 M2.26 60.36 C13.31 47.47, 25.24 33.29, 53.54 -0.86 M7.12 60.42 C20.2 45.83, 28.49 32.16, 59.66 -0.58 M6.87 59 C18.34 45.4, 31.67 31.21, 57.19 0.3 M11.12 58.34 C26.03 41.02, 44.49 20.21, 64.28 1.59 M12.14 59.67 C30.99 36.33, 50.38 13.29, 62.97 -1.06 M17.89 57.96 C33.97 38.52, 56.23 16.97, 70.45 0.8 M17.01 60.23 C36.73 36.66, 55.83 14.96, 68.65 -0.45 M21.3 60.36 C35.88 40.38, 54.4 22.1, 74.48 -0.81 M21.61 59.05 C40.75 36.03, 60.56 13.52, 74.8 -0.97 M29.29 59.12 C45.23 40, 59.23 23.59, 80.6 -1.38 M27.86 60.7 C46.94 35.65, 68.31 13.18, 80.39 -0.6 M34.53 58.08 C46.4 46.1, 55.88 32.38, 85.54 0.37 M33.59 58.58 C47.74 42.02, 64.2 23.98, 85.86 -0.58 M36.43 58.95 C50.38 43.89, 67.5 28.96, 89.94 -0.46 M39.09 60.6 C51.56 45.83, 63.99 29.98, 90.09 0.01 M43.7 59.04 C57.84 41.31, 75.23 25.57, 88.31 7.81 M43.24 59.83 C58.84 43.68, 72.81 27.13, 88.84 6.93 M48.46 58.95 C61.38 42.74, 73.61 27.85, 88.85 13.5 M48.08 60.14 C56.97 50.05, 65.85 38.47, 90.15 13.84 M52.73 60.24 C68.11 42.94, 79.07 30.35, 88.92 20.37 M54.93 58.89 C64.79 48.07, 75.7 34.74, 90.35 19.08 M58.55 61.12 C65.79 52.68, 74.59 42.57, 87.72 24.03 M58.95 60.56 C71.67 47.68, 82.03 34.59, 90.21 25.01 M66.54 58.14 C75.22 48.42, 84.8 38.95, 90.14 32.36 M65.28 59.4 C71.26 52.01, 76.51 46.2, 89.38 30.42 M69.92 57.91 C75.92 54.37, 77.88 48.19, 90.16 35.44 M69.57 59.1 C75.33 53.35, 79.85 48.12, 89.3 37.45 M77.12 58.7 C80.92 55.91, 82.8 51.83, 88.14 41.55 M76.14 59.46 C78.67 55.88, 81.28 52.37, 89.02 43.5 M81.48 58.64 C84.85 54.05, 89.15 52.02, 89.13 47.96 M80.59 59.88 C83.15 57.34, 85.95 53.21, 90.46 48.74 M85.44 59.97 C86.71 59.37, 87.22 57.95, 90.1 55.12 M85.48 59.79 C86.32 58.69, 87.43 57.93, 89.79 55.33" stroke="#ced4da" stroke-width="0.5" fill="none"></path><path d="M-0.7 0.64 C19.79 1.62, 37.81 1.91, 89.32 1.35 M-0.66 0.44 C27.86 -0.44, 56.02 -0.29, 89.99 0.88 M87.21 1.11 C89.53 17.48, 89.07 37.07, 89.36 60.25 M89.96 -0.59 C88.67 20.06, 87.69 38.86, 89.18 57.76 M87.39 58.51 C51.59 57.35, 19.02 57.88, 1.11 56.71 M88.33 58.29 C70.75 57.56, 50.7 59.01, -0.99 58.22 M-1.42 57.9 C-0.35 46.77, 1.71 31.12, 0.59 -1.87 M0.19 58.83 C-1.43 46.07, -1.09 33.86, 0.76 0" stroke="#000000" stroke-width="1" fill="none"></path></g><g transform="translate(588.3055114746094 575.993896484375) rotate(0 39.5 12.5)"><text x="39.5" y="18" font-family="Virgil, Segoe UI Emoji" font-size="20px" fill="#000000" text-anchor="middle" style="white-space: pre;" direction="ltr">replica</text></g><g stroke-linecap="round" transform="translate(704.7493591308594 561.1676330566406) rotate(0 44.5 29.263397216796875)"><path d="M0 0 C0 0, 0 0, 0 0 M0 0 C0 0, 0 0, 0 0 M-0.24 6.74 C2.32 3.84, 3.87 2.46, 5.53 0.5 M-0.32 6.09 C1.5 4.31, 2.33 3.34, 5.09 0.07 M-0.22 12.04 C3.39 8.51, 9.74 1.19, 11.49 0.13 M0.31 11.96 C3.29 9.47, 4.81 6.73, 11.2 -0.45 M-0.87 19.72 C2.81 14.79, 8.9 7.97, 16.33 -0.73 M-0.56 19.37 C4.37 13.12, 8.78 8.23, 15.65 0.67 M0.47 22.21 C7.94 19.54, 13.74 10.64, 22.79 1.23 M0.3 24.27 C7.6 16.49, 14.32 9.12, 21.16 -0.91 M-0.06 32.21 C8.66 19.59, 18.38 8.63, 25.35 1.3 M0.26 31.11 C10.11 19.79, 19.79 6.87, 25.41 -0.5 M1.57 37.65 C10.62 28.17, 17.4 17.09, 30.51 -1.66 M0.05 37.8 C6.11 28.33, 12.61 22.04, 31.5 -0.73 M-1.49 41.58 C9.46 31.93, 19.42 17.5, 37.1 0.55 M-0.4 41.63 C14.33 26.84, 27.24 10.88, 37.78 1.11 M0.39 48.18 C16.4 27.75, 32.94 8.78, 40.81 1.19 M-1.03 48.2 C16.65 30.66, 33.29 11.59, 42.84 0.61 M1.19 55.15 C12.1 39.1, 26.73 23.48, 46.3 0.2 M0.76 53.75 C18.38 33.85, 37.04 11.47, 47.22 0.99 M0.67 57.88 C20.41 35.17, 40.98 13.2, 51.69 -0.04 M1.01 60.41 C17.29 39.68, 35.03 20.93, 52.4 0.72 M8.23 57.93 C19.03 43.55, 34.96 28.43, 56.7 -1.08 M5.67 60.5 C26.35 36.42, 45.97 15.01, 58.46 0.17 M10.41 57.96 C30.5 39.6, 47.54 20.57, 63.17 -0.7 M11.57 58.57 C29.9 40.45, 48.01 19.96, 63.13 -0.73 M18.73 61.69 C36.54 39.88, 52.17 19.11, 67.11 0.81 M16.8 59.22 C33.89 40.37, 52.14 19.22, 69.43 0.19 M23.61 60.75 C34.99 47.61, 45.7 30.77, 75.3 0.31 M22.22 58.98 C37 41.06, 52.4 24.21, 74.72 -1.07 M28.51 58.46 C45.05 40.33, 58.38 24.19, 81.33 1.49 M28.05 60.04 C42.69 41.05, 59.9 22.92, 80.32 0.08 M32.45 59.46 C53.35 38.79, 69.31 17.48, 86.16 -1.42 M33.95 58.87 C50.25 41.31, 65.52 21.55, 84.6 0.37 M40.05 61.44 C50.25 48.2, 60.03 36.69, 89.55 2.77 M37.65 59.85 C50.31 45.93, 62.88 32.65, 89.89 0.18 M44.15 60.78 C60.35 39.22, 79.74 17.93, 87.97 4.94 M42.99 59.99 C55.82 45, 67.26 31.92, 89.01 6.1 M47.82 60.3 C64.3 40.65, 81.87 21.69, 90.48 11.75 M48.57 60.53 C58.65 48.64, 67.99 36.96, 88.6 12.12 M54.97 58.88 C64.49 46.89, 74.05 36.37, 90.19 20.41 M53.81 59.62 C62.86 49.03, 73.84 36.77, 89.16 18.3 M60.36 59.19 C69.75 50.55, 74.49 42.48, 88.88 23.11 M59.53 59.98 C70.49 47.38, 80.32 36.13, 89.17 24.19 M64.21 57.37 C70.95 50.69, 79.91 43.83, 88.93 31.43 M66.09 59.54 C70.3 54.14, 75.58 48.63, 89.61 31.19 M70.22 58.72 C74.77 52.95, 81.92 45.99, 88.67 38.31 M69.95 59.11 C73.74 54.92, 78.16 48.77, 90.73 37.49 M76.17 59.35 C78.01 55.43, 83.36 49.24, 87.71 41.97 M75.77 59.04 C80.65 52.94, 85.55 47.08, 90.03 44 M80.19 58.44 C83.59 55.8, 86.65 53.44, 89.16 48.52 M80.92 59.07 C84.31 55.43, 87.87 51.35, 89.71 49.47 M85.66 59.39 C86.97 58.65, 87.74 56.73, 89.18 55.18 M85.6 60.16 C86.91 58.49, 88.4 57.07, 89.41 55.35" stroke="#ced4da" stroke-width="0.5" fill="none"></path><path d="M-1.69 -0.75 C19.57 -0.19, 37.92 0.98, 87.31 1.18 M0.52 0.74 C24.27 1.51, 46.54 1.36, 88.37 -0.38 M87.94 0.92 C87.97 18.27, 88.81 38.79, 89.11 56.67 M88.7 0.7 C88.83 16.74, 89.44 32.72, 88.98 57.62 M89.1 57.76 C62.48 56.67, 37.17 60.17, -1.66 60.21 M88.93 59.09 C63.93 58.35, 39.64 57.41, -0.41 58.81 M-1.98 58.56 C1.43 39.3, -0.51 20.55, -1.64 -0.98 M0.26 58.26 C0.61 39.41, 1.4 21.8, 0.83 0.5" stroke="#000000" stroke-width="1" fill="none"></path></g><g transform="translate(709.7493591308594 577.9310302734375) rotate(0 39.5 12.5)"><text x="39.5" y="18" font-family="Virgil, Segoe UI Emoji" font-size="20px" fill="#000000" text-anchor="middle" style="white-space: pre;" direction="ltr">replica</text></g><g stroke-linecap="round"><g transform="translate(556.2149377569143 520.2075929603881) rotate(0 -14.302282316905632 14.561181547149715)"><path d="M1.03 0.24 C-3.83 5.16, -24.07 24.66, -28.86 29.36 M0.11 -0.67 C-4.95 3.87, -25.25 22.34, -29.95 27.37" stroke="#000000" stroke-width="1" fill="none"></path></g><g transform="translate(556.2149377569143 520.2075929603881) rotate(0 -14.302282316905632 14.561181547149715)"><path d="M-20.68 8.55 C-23.55 16.39, -27.86 19.69, -31.14 26.8 M-20.76 9.67 C-24.21 14.13, -26.16 18.54, -30.67 27.8" stroke="#000000" stroke-width="1" fill="none"></path></g><g transform="translate(556.2149377569143 520.2075929603881) rotate(0 -14.302282316905632 14.561181547149715)"><path d="M-10.93 18.55 C-16.94 23.26, -24.38 23.33, -31.14 26.8 M-11.02 19.67 C-17.1 21.45, -21.6 23.24, -30.67 27.8" stroke="#000000" stroke-width="1" fill="none"></path></g></g><g stroke-linecap="round"><g transform="translate(594.6270181236399 522.6308107338256) rotate(0 5.844823625353513 15.420312406524715)"><path d="M0.78 0.32 C2.95 5.13, 11.03 24.65, 12.85 29.77 M-0.27 -0.56 C1.86 4.28, 10.64 25.24, 12.51 30.75" stroke="#000000" stroke-width="1" fill="none"></path></g><g transform="translate(594.6270181236399 522.6308107338256) rotate(0 5.844823625353513 15.420312406524715)"><path d="M2.12 19.91 C3.41 21.85, 8.28 26.53, 12.68 31.7 M2.28 18.51 C6.28 22.88, 10.24 26.99, 12.74 30.3" stroke="#000000" stroke-width="1" fill="none"></path></g><g transform="translate(594.6270181236399 522.6308107338256) rotate(0 5.844823625353513 15.420312406524715)"><path d="M12.65 15.85 C10.95 19.02, 12.82 24.86, 12.68 31.7 M12.81 14.46 C12.99 20.21, 13.13 25.79, 12.74 30.3" stroke="#000000" stroke-width="1" fill="none"></path></g></g><g stroke-linecap="round"><g transform="translate(643.2219393568841 517.3515748939818) rotate(0 38.28541305203771 16.82280874441534)"><path d="M0.96 -0.29 C13.5 5.11, 63.55 27.04, 75.99 32.64 M0 -1.48 C12.26 4.01, 61.74 27.66, 74.74 33.65" stroke="#000000" stroke-width="1" fill="none"></path></g><g transform="translate(643.2219393568841 517.3515748939818) rotate(0 38.28541305203771 16.82280874441534)"><path d="M44.39 29.99 C54.04 30.11, 66.03 31.75, 76.63 35.48 M44.81 31.33 C54.31 30.82, 64.21 32.43, 75.15 33.95" stroke="#000000" stroke-width="1" fill="none"></path></g><g transform="translate(643.2219393568841 517.3515748939818) rotate(0 38.28541305203771 16.82280874441534)"><path d="M53.12 11.41 C59.64 18.34, 68.47 26.72, 76.63 35.48 M53.54 12.76 C60.27 18.61, 67.21 26.5, 75.15 33.95" stroke="#000000" stroke-width="1" fill="none"></path></g></g><g stroke-linecap="round"><g transform="translate(190.32623291015625 408.218818359531) rotate(0 163.0243377685547 28.141515097599182)"><path d="M0.38 1.11 C54.99 10.8, 272.25 47.95, 326.6 57.29 M-0.88 0.65 C53.72 10.1, 271.48 46.59, 325.94 55.7" stroke="#000000" stroke-width="1" fill="none"></path></g><g transform="translate(190.32623291015625 408.218818359531) rotate(0 163.0243377685547 28.141515097599182)"><path d="M298.29 62.08 C304.34 60.57, 310.32 58.45, 326.07 55.84 M296.43 61.02 C306.51 58.9, 316.82 58.61, 326.58 55.06" stroke="#000000" stroke-width="1" fill="none"></path></g><g transform="translate(190.32623291015625 408.218818359531) rotate(0 163.0243377685547 28.141515097599182)"><path d="M301.68 41.84 C306.88 44.59, 312.15 46.7, 326.07 55.84 M299.82 40.78 C308.78 45.63, 317.92 52.34, 326.58 55.06" stroke="#000000" stroke-width="1" fill="none"></path></g></g><g transform="translate(370.9730529785156 468.219970703125) rotate(0 40.5 12.5)"><text x="0" y="18" font-family="Virgil, Segoe UI Emoji" font-size="20px" fill="#000000" text-anchor="start" style="white-space: pre;" direction="ltr">put, get</text></g><g stroke-linecap="round"><g transform="translate(193.21864478559075 431.07964112003197) rotate(0 128.6791755320093 68.82120413372064)"><path d="M0.99 -0.37 C43.78 22.58, 214.5 115.26, 257.06 138.09 M0.05 -1.61 C42.63 20.94, 212.84 113.04, 255.96 136.2" stroke="#000000" stroke-width="1" fill="none"></path></g><g transform="translate(193.21864478559075 431.07964112003197) rotate(0 128.6791755320093 68.82120413372064)"><path d="M225.66 131.36 C236.71 131.39, 243.88 133.68, 254.27 136.17 M225.63 131.33 C237.71 133.49, 249.02 135.86, 256.91 136.99" stroke="#000000" stroke-width="1" fill="none"></path></g><g transform="translate(193.21864478559075 431.07964112003197) rotate(0 128.6791755320093 68.82120413372064)"><path d="M235.4 113.29 C243.34 119.3, 247.33 127.49, 254.27 136.17 M235.36 113.27 C243.98 122.09, 251.71 131.11, 256.91 136.99" stroke="#000000" stroke-width="1" fill="none"></path></g></g><g transform="translate(319.9335364826661 512.1201061201524) rotate(0 16.5 12.5)"><text x="0" y="18" font-family="Virgil, Segoe UI Emoji" font-size="20px" fill="#000000" text-anchor="start" style="white-space: pre;" direction="ltr">get</text></g><a href="https://leetcode.com/problems/lru-cache/"><g transform="translate(717.2304315872748 227.44932982917032) rotate(0 121 10)"><text x="0" y="14" font-family="Virgil, Segoe UI Emoji" font-size="16px" fill="#000000" text-anchor="start" style="white-space: pre;" direction="ltr">Doubly-linked list + hash table</text></g></a><g transform="translate(731.2260442739223 292.86709173854285) rotate(0 209.5 80)"><text x="0" y="14" font-family="Virgil, Segoe UI Emoji" font-size="16px" fill="#000000" text-anchor="start" style="white-space: pre;" direction="ltr">* consistency (all cache clients have same list)</text><text x="0" y="34" font-family="Virgil, Segoe UI Emoji" font-size="16px" fill="#000000" text-anchor="start" style="white-space: pre;" direction="ltr">* security (deployed in trusted env; values maybe </text><text x="0" y="54" font-family="Virgil, Segoe UI Emoji" font-size="16px" fill="#000000" text-anchor="start" style="white-space: pre;" direction="ltr">encrypted on write, decrypted on read)</text><text x="0" y="74" font-family="Virgil, Segoe UI Emoji" font-size="16px" fill="#000000" text-anchor="start" style="white-space: pre;" direction="ltr">* monitoring (latency, cache misses, traffic)</text><text x="0" y="94" font-family="Virgil, Segoe UI Emoji" font-size="16px" fill="#000000" text-anchor="start" style="white-space: pre;" direction="ltr">* local + distributed cache</text><text x="0" y="114" font-family="Virgil, Segoe UI Emoji" font-size="16px" fill="#000000" text-anchor="start" style="white-space: pre;" direction="ltr">* consistent hashing </text><text x="0" y="134" font-family="Virgil, Segoe UI Emoji" font-size="16px" fill="#000000" text-anchor="start" style="white-space: pre;" direction="ltr">(no domino effect =&gt; use virtual servers on the ring)</text><text x="0" y="154" font-family="Virgil, Segoe UI Emoji" font-size="16px" fill="#000000" text-anchor="start" style="white-space: pre;" direction="ltr"></text></g><g stroke-linecap="round"><g transform="translate(118.82233955426193 424.80285919350104) rotate(0 9.160146990958111 14.152937523774142)"><path d="M0.22 0.55 C3.51 5.45, 17 24.05, 19.49 28.37 C21.98 32.7, 15.92 26.57, 15.17 26.49" stroke="#000000" stroke-width="1.5" fill="none" stroke-dasharray="1.5 7"></path></g></g><g stroke-linecap="round"><g transform="translate(77.91771725681122 422.8158098534587) rotate(0 -11.902323819640884 41.13362685743547)"><path d="M0.5 -0.19 C-3.67 7.8, -24.19 33.38, -24.67 47.05 C-25.15 60.72, -6.09 75.77, -2.36 81.8" stroke="#000000" stroke-width="1.5" fill="none" stroke-dasharray="1.5 7"></path></g></g><g stroke-linecap="round" transform="translate(10 323.20257568359375) rotate(0 90.50006103515625 58.105224609375)"><path d="M-0.14 1.63 C70.87 0.16, 138.42 -2.52, 182.71 -0.84 M0.67 0.42 C71.97 -1.92, 142.6 -0.98, 181.07 0.33 M181.06 -1.76 C180.81 26.08, 180.78 54.09, 181.29 114.8 M180.21 -0.34 C182.54 42.94, 181.75 85.43, 181.63 115.54 M181.78 115.67 C144.71 115.6, 109.04 114.21, -1.7 114.76 M180.11 116.18 C128.77 117.3, 75.93 118.28, 0.28 115.92 M-1.89 117.13 C-1.6 79.31, 0.58 40.12, 1.2 -1.7 M-0.58 116.28 C2.07 88.2, 1.87 59.98, 0.45 0.53" stroke="#000000" stroke-width="1" fill="none"></path></g><g stroke-linecap="round" transform="translate(54.1358642578125 361.8072814941406) rotate(0 65 30)"><path d="M1.5 -1.82 C41.73 1.95, 85.54 0.87, 130.59 0.48 M0.6 -0.22 C32.53 -1.39, 67.63 -1.36, 129.3 -0.21 M131.96 1.12 C128.59 20.43, 131.96 42.79, 128.25 58.74 M130.35 0.49 C129.26 12.44, 130.42 23.77, 130.12 60.66 M128.76 61.46 C95.06 62.55, 63.91 59.53, 0.84 61.98 M129.42 59.06 C100.23 61.26, 72.09 61.08, -0.72 59.97 M0.68 61.72 C1.34 40.71, 0.23 24.89, -0.6 -1.55 M-0.99 60.48 C-0.19 43.13, -0.15 23.7, 0.44 -0.47" stroke="#5f3dc4" stroke-width="1" fill="none"></path></g><g transform="translate(59.1358642578125 368.3072814941406) rotate(0 60 23)"><text x="60" y="17" font-family="Virgil, Segoe UI Emoji" font-size="20px" fill="#5f3dc4" text-anchor="middle" style="white-space: pre;" direction="ltr">cache client</text><text x="60" y="40" font-family="Virgil, Segoe UI Emoji" font-size="20px" fill="#5f3dc4" text-anchor="middle" style="white-space: pre;" direction="ltr">library</text></g><g transform="translate(20.880584716796875 328.9986572265625) rotate(0 33.5 12.5)"><text x="0" y="18" font-family="Virgil, Segoe UI Emoji" font-size="20px" fill="#000000" text-anchor="start" style="white-space: pre;" direction="ltr">service</text></g><g stroke-linecap="round"><g transform="translate(185.95810565849797 374.40569755268587) rotate(0 48.41113847272692 -22.94148809068301)"><path d="M-0.73 -0.53 C15.43 -8.28, 79.9 -38.25, 96.19 -45.85" stroke="#000000" stroke-width="1.5" fill="none" stroke-dasharray="1.5 7"></path></g></g><g transform="translate(269.9436042445693 260.6709061072951) rotate(0 97 30)"><text x="0" y="14" font-family="Virgil, Segoe UI Emoji" font-size="16px" fill="#495057" text-anchor="start" style="white-space: pre;" direction="ltr">search for needed cache</text><text x="0" y="34" font-family="Virgil, Segoe UI Emoji" font-size="16px" fill="#495057" text-anchor="start" style="white-space: pre;" direction="ltr">server in sorted server</text><text x="0" y="54" font-family="Virgil, Segoe UI Emoji" font-size="16px" fill="#495057" text-anchor="start" style="white-space: pre;" direction="ltr">list using binary search</text></g><g stroke-linecap="round" transform="translate(454.9120309478874 394.32437336532485) rotate(0 11.00057769798957 10.309635896457792)"><path d="M0.56 7.11 C0.56 7.11, 0.56 7.11, 0.56 7.11 M0.56 7.11 C0.56 7.11, 0.56 7.11, 0.56 7.11 M0.13 14.36 C2.41 10.57, 5.61 8.27, 10.01 3.67 M0.74 13.13 C3.11 11.24, 5.62 8.22, 9.13 3.61 M1.66 17.91 C4.09 14.23, 10.19 9.55, 16.84 2.67 M2.68 16.59 C7.58 11.63, 12.79 5.35, 15.43 2.86 M5.26 18.35 C10.13 12.71, 11.83 10.26, 19.8 6.21 M7.19 19.68 C9.88 15.23, 11.62 12.2, 19.32 4.62 M7.44 20.24 C13.22 17.66, 19.66 9.13, 22.49 5.57 M8.58 21.53 C14.24 16.72, 19.62 9.39, 22.64 6.83 M15.16 21.25 C18.04 20.07, 19.09 17.13, 22.19 10.82 M14.36 21.36 C17.45 19.23, 20.15 15.43, 23.25 10.65" stroke="#fd7e14" stroke-width="0.5" fill="none"></path><path d="M12.1 0.1 C14.35 0.47, 18.01 2.11, 19.69 3.85 C21.37 5.6, 22.03 8.55, 22.19 10.56 C22.34 12.57, 22.04 14.27, 20.61 15.93 C19.17 17.59, 15.92 19.94, 13.58 20.52 C11.24 21.11, 8.79 20.63, 6.57 19.45 C4.35 18.28, 1.25 15.55, 0.26 13.47 C-0.73 11.4, -0.26 9.04, 0.65 7.01 C1.56 4.98, 3.41 2.24, 5.71 1.28 C8.01 0.32, 12.96 1.31, 14.46 1.25 C15.97 1.2, 14.8 0.92, 14.74 0.97" stroke="#495057" stroke-width="1.5" fill="none" stroke-dasharray="1.5 7"></path></g><g stroke-linecap="round"><g transform="translate(402.63035160221534 327.76580120739993) rotate(0 45.861168346479985 12.650366352678247)"><path d="M-0.97 -0.22 C14.49 4.06, 76.49 20.29, 91.85 24.72" stroke="#495057" stroke-width="1.5" fill="none" stroke-dasharray="1.5 7"></path></g></g><g transform="translate(270.18463767930234 344.8552140425589) rotate(0 84 36)"><text x="0" y="12" font-family="Virgil, Segoe UI Emoji" font-size="14px" fill="#495057" text-anchor="start" style="white-space: pre;" direction="ltr">key is hashed onto</text><text x="0" y="30" font-family="Virgil, Segoe UI Emoji" font-size="14px" fill="#495057" text-anchor="start" style="white-space: pre;" direction="ltr">ring as well to get first</text><text x="0" y="48" font-family="Virgil, Segoe UI Emoji" font-size="14px" fill="#495057" text-anchor="start" style="white-space: pre;" direction="ltr">clockwise server, that</text><text x="0" y="66" font-family="Virgil, Segoe UI Emoji" font-size="14px" fill="#495057" text-anchor="start" style="white-space: pre;" direction="ltr">holds that key</text></g><g stroke-linecap="round"><g transform="translate(186.43090931478844 397.44305778134367) rotate(0 36.23608546477317 -12.200789169511978)"><path d="M-0.36 0.5 C11.56 -3.62, 60.32 -20.4, 72.47 -24.55" stroke="#d9480f" stroke-width="1.5" fill="none" stroke-dasharray="1.5 7"></path></g></g><g stroke-linecap="round"><g transform="translate(442.36857179721744 384.66491420702096) rotate(0 6.692283090027672 4.314527773339762)"><path d="M-0.41 -0.36 C1.76 1.06, 10.21 6.7, 12.64 8.27" stroke="#d9480f" stroke-width="1.5" fill="none" stroke-dasharray="1.5 7"></path></g></g><g stroke-linecap="round"><g transform="translate(464.6052566297344 391.13604647007327) rotate(0 26.01067283463226 -59.323368919308336)"><path d="M0.09 -0.64 C-0.54 -5.53, -5.66 -17.45, -4.23 -28.3 C-2.8 -39.14, 2.33 -53.81, 8.69 -65.72 C15.04 -77.64, 26.32 -91.09, 33.93 -99.77 C41.53 -108.45, 50.64 -114.67, 54.31 -117.8 M-1.32 1.64 C-1.53 -2.57, -3.48 -15.89, -1.94 -27 C-0.4 -38.11, 1.93 -53.11, 7.92 -65.02 C13.9 -76.94, 25.96 -89.84, 33.96 -98.49 C41.95 -107.15, 52.58 -113.45, 55.9 -116.96" stroke="#d9480f" stroke-width="1" fill="none"></path></g><g transform="translate(464.6052566297344 391.13604647007327) rotate(0 26.01067283463226 -59.323368919308336)"><path d="M54.93 -115.55 L50.99 -104.6 L40.43 -112.04 L55.67 -115.06" stroke="none" stroke-width="0" fill="#d9480f" fill-rule="evenodd"></path><path d="M55.1 -117.98 C53.79 -113.45, 51.22 -110.43, 49.91 -104.82 M55.52 -116.73 C53.72 -112.42, 51.53 -106.33, 49.96 -103.69 M48.82 -102.67 C46.59 -106.27, 45.69 -108.41, 40.49 -112.83 M49.6 -103.74 C47.47 -105.79, 44.42 -108.98, 41.89 -112.81 M40.14 -111.76 C44.05 -114.55, 48.7 -116.19, 55.96 -117.95 M41.99 -112.7 C44.85 -113.67, 49.46 -114.43, 55.4 -117.63 M55.9 -116.96 C55.9 -116.96, 55.9 -116.96, 55.9 -116.96 M55.9 -116.96 C55.9 -116.96, 55.9 -116.96, 55.9 -116.96" stroke="#d9480f" stroke-width="1" fill="none"></path></g></g><g stroke-linecap="round" transform="translate(668.6796979305041 278.2152624662687) rotate(0 11.00057769798957 10.309635896457792)"><path d="M3.31 2.88 C3.31 2.88, 3.31 2.88, 3.31 2.88 M3.31 2.88 C3.31 2.88, 3.31 2.88, 3.31 2.88 M0.67 11.58 C1.89 7.82, 4.49 6.69, 10.36 0.16 M1.69 11.42 C4 8.44, 6.64 4.82, 9.74 0.5 M3.24 15.74 C7.25 11.21, 9.44 7.17, 16.6 1.4 M3.63 15.29 C7.41 9.53, 12.39 3.52, 14.39 1.41 M5.13 17.86 C10.93 13.88, 14.32 9.65, 17.75 4.73 M5.84 17.85 C8.88 14.57, 14.3 8.74, 19.2 4.11 M7.79 20.85 C14.31 16.77, 15.18 12.59, 20.3 5.51 M9.19 21.31 C11.75 15.86, 16.53 11.74, 20.92 6.05 M13.73 22.65 C14.64 19.1, 20.33 14.73, 25.11 8.69 M12.4 24.44 C14.45 18.74, 19.07 14.81, 24.57 10.04" stroke="#15aabf" stroke-width="0.5" fill="none"></path><path d="M9.31 0.65 C11.47 0.02, 14.19 -0.11, 16.18 0.95 C18.17 2.02, 20.51 4.8, 21.27 7.04 C22.03 9.29, 21.38 12.36, 20.76 14.43 C20.13 16.51, 19.5 18.36, 17.52 19.5 C15.54 20.64, 11.25 21.71, 8.9 21.27 C6.56 20.84, 5.1 18.75, 3.45 16.9 C1.81 15.04, -0.92 12.47, -0.97 10.17 C-1.02 7.87, 1.5 4.69, 3.14 3.07 C4.79 1.44, 7.53 0.88, 8.92 0.41 C10.3 -0.06, 11.16 0, 11.45 0.22" stroke="#495057" stroke-width="1.5" fill="none" stroke-dasharray="1.5 7"></path></g><g stroke-linecap="round"><g transform="translate(690.0435059551958 298.09334202160596) rotate(0 -6.64578966068234 92.96298092481192)"><path d="M1.14 0.08 C4.83 6.88, 18.55 25.53, 23.26 40.39 C27.97 55.26, 31.18 73.35, 29.4 89.29 C27.62 105.22, 19.93 123.15, 12.6 136.02 C5.27 148.89, -5.24 158.1, -14.61 166.48 C-23.97 174.87, -38.98 183.1, -43.59 186.33 M0.28 -0.93 C3.78 6.11, 18.05 26.71, 22.78 41.89 C27.5 57.07, 30.21 74.3, 28.61 90.15 C27.01 106.01, 20.55 124.15, 13.17 137.02 C5.79 149.88, -6.38 159.25, -15.68 167.33 C-24.98 175.41, -38.34 182.64, -42.64 185.5" stroke="#0b7285" stroke-width="1" fill="none"></path></g><g transform="translate(690.0435059551958 298.09334202160596) rotate(0 -6.64578966068234 92.96298092481192)"><path d="M-41.02 185.25 L-35.61 174.35 L-27.65 185.41 L-40.9 186.26" stroke="none" stroke-width="0" fill="#0b7285" fill-rule="evenodd"></path><path d="M-42.54 186.6 C-39.41 180.42, -37.12 176.28, -34.64 173.92 M-42.37 185.49 C-38.79 180.55, -36.82 175.99, -34.29 172.26 M-33.18 172.04 C-33.52 175.96, -30.51 178.61, -26.84 183.5 M-34.24 173.48 C-32.03 175.4, -31.55 178.17, -28.04 184.4 M-28.28 184.85 C-32.08 183.96, -38.6 185.12, -42.54 186.86 M-27.33 183.55 C-33.62 183.81, -37.97 184.77, -42.02 186.08 M-42.64 185.5 C-42.64 185.5, -42.64 185.5, -42.64 185.5 M-42.64 185.5 C-42.64 185.5, -42.64 185.5, -42.64 185.5" stroke="#0b7285" stroke-width="1" fill="none"></path></g></g><g stroke-linecap="round"><g transform="translate(648.0449523925781 233.5576733145914) rotate(0 19.735092651456625 -40.02453415586109)"><path d="M1.17 0.04 C4.43 -7.02, 12.34 -30.15, 18.87 -43.36 C25.4 -56.56, 36.84 -73.21, 40.33 -79.2" stroke="#495057" stroke-width="1.5" fill="none" stroke-dasharray="8 9"></path></g></g><g stroke-linecap="round"><g transform="translate(648.0449523925781 246.7271797677182) rotate(0 32.483545668275156 -4.205799779892004)"><path d="M-0.58 -1.17 C4.88 -2.01, 22.41 -2.8, 33.3 -4.08 C44.19 -5.36, 59.5 -8.03, 64.75 -8.87" stroke="#495057" stroke-width="1.5" fill="none" stroke-dasharray="8 9"></path></g></g><g stroke-linecap="round"><g transform="translate(656.5657256180514 510.5583906069545) rotate(0 30.59912751677689 0.43026385596760974)"><path d="M0.53 0.13 C10.59 0.25, 51.43 1.33, 61.52 1.34" stroke="#495057" stroke-width="1.5" fill="none" stroke-dasharray="8 9"></path></g></g><g stroke-linecap="round"><g transform="translate(772.1279329373783 553.841241269174) rotate(0 13.360204532858916 -9.471872788105145)"><path d="M0.75 0 C5.04 -2.9, 21.93 -15.19, 26.21 -18.43" stroke="#495057" stroke-width="1.5" fill="none" stroke-dasharray="8 9"></path></g></g><g transform="translate(725.5143321786629 489.9921371252001) rotate(0 157.5 20)"><text x="157.5" y="14" font-family="Virgil, Segoe UI Emoji" font-size="16px" fill="#495057" text-anchor="middle" style="white-space: pre;" direction="ltr">redis-sentinel uses this setup, and can </text><text x="157.5" y="34" font-family="Virgil, Segoe UI Emoji" font-size="16px" fill="#495057" text-anchor="middle" style="white-space: pre;" direction="ltr">promote read replica to be leader </text></g><g stroke-linecap="round" transform="translate(66.50557067081473 103.77093567450154) rotate(0 109.49999999999997 24.326806906602627)"><path d="M-0.45 0.12 C65.44 -2.75, 132.92 -1.15, 218.25 0.04 M0.8 -0.2 C62.57 -0.41, 124.81 -0.35, 218.94 -0.36 M217.03 1.08 C218.31 14.22, 221.14 32.87, 219.67 47.51 M218.18 0.85 C218.6 18.25, 219.13 37.2, 219.87 48.94 M220.17 48.9 C159.19 48.28, 95.64 50.03, -0.48 47.9 M219.11 49.49 C133.79 48.4, 47.58 48.63, -0.25 48.56 M-1.85 48.81 C-0.35 36.47, -0.85 19.99, 0.92 0.76 M-0.73 49.15 C-0.49 38.94, 0.66 28.18, -0.01 -0.33" stroke="#000000" stroke-width="1" fill="none"></path></g><g transform="translate(71.50557067081473 118.09774258110417) rotate(0 104.49999999999997 10)"><text x="104.5" y="14" font-family="Virgil, Segoe UI Emoji" font-size="16px" fill="#000000" text-anchor="middle" style="white-space: pre;" direction="ltr">coordination service</text></g><g stroke-linecap="round"><g transform="translate(512.6613447933175 249.00628987125134) rotate(0 -110.82389904878067 -53.22766209774527)"><path d="M0.36 0.33 C-36.5 -17.74, -183.98 -89.6, -220.82 -107.45 M-0.92 -0.55 C-37.89 -18.58, -184.67 -88.92, -221.33 -106.43" stroke="#495057" stroke-width="1" fill="none"></path></g><g transform="translate(512.6613447933175 249.00628987125134) rotate(0 -110.82389904878067 -53.22766209774527)"><path d="M-221.48 -108.1 L-208.22 -107.97 L-213.32 -95.94 L-221.41 -107.03" stroke="none" stroke-width="0" fill="#495057" fill-rule="evenodd"></path><path d="M-220.92 -105.39 C-217.66 -105.16, -211.92 -105.88, -206.19 -105.25 M-221.1 -106.47 C-215.83 -105.95, -211 -106.66, -206.77 -106.37 M-207.41 -106.93 C-208.82 -103.06, -209.48 -99.08, -211.94 -94.69 M-206.92 -106.5 C-208.27 -101.78, -210.21 -97.8, -211.77 -94.94 M-213.13 -95.99 C-214.46 -99.77, -219.14 -101.32, -221.88 -105.64 M-212.37 -94.22 C-214.09 -97.54, -217.02 -99.93, -221.09 -106.26 M-221.33 -106.43 C-221.33 -106.43, -221.33 -106.43, -221.33 -106.43 M-221.33 -106.43 C-221.33 -106.43, -221.33 -106.43, -221.33 -106.43" stroke="#495057" stroke-width="1" fill="none"></path></g></g><g stroke-linecap="round"><g transform="translate(450.00973815355803 151.5952080592295) rotate(0 -79.70112203633147 -11.702073117929174)"><path d="M0.63 -0.68 C-25.97 -4.52, -132.15 -19.85, -158.98 -23.47 M-0.5 1.58 C-27.28 -2.02, -133.47 -17.66, -159.7 -21.97" stroke="#495057" stroke-width="1" fill="none"></path></g><g transform="translate(450.00973815355803 151.5952080592295) rotate(0 -79.70112203633147 -11.702073117929174)"><path d="M-161.36 -22.55 L-144.24 -25.61 L-147.52 -13.62 L-158.79 -22.02" stroke="none" stroke-width="0" fill="#495057" fill-rule="evenodd"></path><path d="M-160.55 -21.43 C-154.67 -24.66, -148.24 -24.86, -145.04 -27.24 M-159.9 -22.32 C-153.81 -22.87, -148.31 -24.81, -145.3 -26.2 M-145.54 -26.71 C-146.06 -22.14, -146.55 -19.67, -148.11 -13.12 M-145.35 -26.69 C-146.63 -22.07, -147.23 -17.27, -147.26 -13.82 M-147.97 -12.81 C-150.86 -15.44, -153.24 -19.86, -158.58 -22.84 M-147.73 -14.17 C-151.83 -16.05, -156.06 -20.4, -159.7 -21.94 M-159.7 -21.97 C-159.7 -21.97, -159.7 -21.97, -159.7 -21.97 M-159.7 -21.97 C-159.7 -21.97, -159.7 -21.97, -159.7 -21.97" stroke="#495057" stroke-width="1" fill="none"></path></g></g><g stroke-linecap="round"><g transform="translate(563.5880701663681 115.35726650609092) rotate(0 -135.22022746295426 -3.573575964758561)"><path d="M0.39 0.3 C-21.97 -0.54, -88.71 -3.92, -133.82 -5.32 C-178.94 -6.73, -247.68 -7.91, -270.3 -8.15 M-0.87 -0.59 C-22.9 -1.2, -86.65 -2.69, -131.67 -3.81 C-176.69 -4.94, -248.13 -7.09, -270.99 -7.36" stroke="#495057" stroke-width="1" fill="none"></path></g><g transform="translate(563.5880701663681 115.35726650609092) rotate(0 -135.22022746295426 -3.573575964758561)"><path d="M-272.82 -5.46 L-255.61 -14.06 L-256.32 -1.92 L-269.05 -5.67" stroke="none" stroke-width="0" fill="#495057" fill-rule="evenodd"></path><path d="M-270.62 -8.69 C-266.52 -9.22, -263.18 -10.28, -256.75 -13.3 M-270.82 -7.09 C-266.77 -9.18, -261.9 -11.32, -256.59 -12.8 M-256.6 -14.39 C-257.26 -8.12, -258.55 -4.5, -256.68 -1.74 M-256.64 -13.96 C-257.53 -8.76, -256.83 -3.59, -258.16 -0.7 M-257.31 -0.14 C-260.81 -3.95, -264.12 -3.81, -270.93 -8.58 M-257.32 -1.05 C-261.11 -2.52, -263.89 -3.88, -271.06 -7.91 M-270.99 -7.36 C-270.99 -7.36, -270.99 -7.36, -270.99 -7.36 M-270.99 -7.36 C-270.99 -7.36, -270.99 -7.36, -270.99 -7.36" stroke="#495057" stroke-width="1" fill="none"></path></g></g><g transform="translate(24.85100085563647 185.52160453657172) rotate(0 179.5 30)"><text x="0" y="14" font-family="Virgil, Segoe UI Emoji" font-size="16px" fill="#000000" text-anchor="start" style="white-space: pre;" direction="ltr">* receives heartbeats from leader &amp; replicas</text><text x="0" y="34" font-family="Virgil, Segoe UI Emoji" font-size="16px" fill="#000000" text-anchor="start" style="white-space: pre;" direction="ltr">* promotes replicas to leader (failover)</text><text x="0" y="54" font-family="Virgil, Segoe UI Emoji" font-size="16px" fill="#000000" text-anchor="start" style="white-space: pre;" direction="ltr">* tracks info about partitions</text></g><g stroke-linecap="round"><g transform="translate(51.63257715424504 179.807118215638) rotate(0 12.847181980623844 -13.530531873243064)"><path d="M-0.01 0.25 C4.41 -3.91, 21.58 -21.69, 26.05 -26.05" stroke="#495057" stroke-width="1.5" fill="none" stroke-dasharray="1.5 7"></path></g></g><g transform="translate(49.27298918464294 624.0417722138568) rotate(0 517 50)"><text x="0" y="14" font-family="Virgil, Segoe UI Emoji" font-size="16px" fill="#495057" text-anchor="start" style="white-space: pre;" direction="ltr">There are options for routing: </text><text x="0" y="34" font-family="Virgil, Segoe UI Emoji" font-size="16px" fill="#495057" text-anchor="start" style="white-space: pre;" direction="ltr">1. client knows routing info (with help of coordination service)</text><text x="0" y="54" font-family="Virgil, Segoe UI Emoji" font-size="16px" fill="#495057" text-anchor="start" style="white-space: pre;" direction="ltr">2. use dedicated routing tier host / routing service (middleman)</text><text x="0" y="74" font-family="Virgil, Segoe UI Emoji" font-size="16px" fill="#495057" text-anchor="start" style="white-space: pre;" direction="ltr">3. cache instances know about each other, request sent to random cache server and forwarded to appropriate one for query key</text><text x="0" y="94" font-family="Virgil, Segoe UI Emoji" font-size="16px" fill="#495057" text-anchor="start" style="white-space: pre;" direction="ltr">(potential extra network hop from selected cache server to the server that is responsible for the key)</text></g><g transform="translate(718.7444042001473 629.2597152502001) rotate(0 164 10)"><text x="164" y="14" font-family="Virgil, Segoe UI Emoji" font-size="16px" fill="#495057" text-anchor="middle" style="white-space: pre;" direction="ltr">replicas can be in different data centers</text></g><g stroke-linecap="round"><g transform="translate(802.8684653163232 594.4528529447238) rotate(0 32.866773618257184 10.082215819929331)"><path d="M0.78 0.19 C7.05 0.66, 26.23 0.31, 36.88 3.53 C47.53 6.75, 59.7 16.91, 64.67 19.52" stroke="#495057" stroke-width="1.5" fill="none" stroke-dasharray="1.5 7"></path></g></g><g stroke-linecap="round"><g transform="translate(557.6788436276142 621.9542816000121) rotate(0 75.66396178194765 10.57862272296245)"><path d="M-0.85 -0.93 C8.65 2.99, 32.43 19.23, 57.84 22.29 C83.24 25.36, 135.92 17.89, 151.57 17.46" stroke="#495057" stroke-width="1.5" fill="none" stroke-dasharray="1.5 7"></path></g></g></svg>