<svg version="1.1" xmlns="http://www.w3.org/2000/svg" viewBox="0 0 1004.9936566685983 967.4672367736737" width="1004.9936566685983" height="967.4672367736737">
  <!--origin: @https://github.com/antontsv/sd --><!-- svg-source:excalidraw -->
  
  <defs>
    <style>
  @font-face {
    font-family: "Virgil";
    src: url("../includes/fonts/Virgil.woff2");
  }

  @font-face {
    font-family: "Cascadia";
    src: url("../includes/fonts/Cascadia.woff2");
  }
</style>
  </defs>
  <rect x="0" y="0" width="1004.9936566685983" height="967.4672367736737" fill="#ffffff"></rect><g transform="translate(217.3103753368605 10) rotate(0 195 18.5)"><text x="0" y="26" font-family="Virgil, Segoe UI Emoji" font-size="29px" fill="#000000" text-anchor="start" style="white-space: pre;" direction="ltr">Distributed Message queue</text></g><g stroke-linecap="round" transform="translate(393.21504430821244 177.4093661418255) rotate(0 10.402692514412422 15.785507843007665)"><path d="M0.05 -0.45 L19.48 -1.09 L22.19 30 L-1.21 29.82" stroke="none" stroke-width="0" fill="#fff"></path><path d="M-0.24 1.44 C5.39 0.31, 8.67 -0.72, 19.85 0.86 M-0.77 -0.63 C7.05 -0.63, 14.65 -1.07, 20.1 -0.22 M20.82 0.42 C22.15 10.13, 20.79 21.4, 20.4 30.51 M20.17 0.96 C21.21 9.33, 20.94 19.48, 21.47 31.06 M19.83 33.38 C16.17 30.39, 11.46 31.51, 1.02 32.17 M21.73 31.94 C15.61 30.76, 10.55 30.95, 0.81 31.55 M-1.41 33.11 C0.38 24.03, -1.52 15.51, 0.14 1 M0.32 32.34 C-0.65 19.92, 0.05 6.97, -0.99 0.42" stroke="#000000" stroke-width="2" fill="none"></path></g><g stroke-linecap="round" transform="translate(389.2870782739436 172.24554406069495) rotate(0 10.402692514412422 15.785507843007665)"><path d="M-0.45 -1.33 L19.72 1.38 L19.23 30.36 L-1.76 32.67" stroke="none" stroke-width="0" fill="#fff"></path><path d="M1.44 0.16 C4.71 -1.75, 7.89 -0.93, 21.66 1.37 M-0.63 -0.62 C7.57 -0.53, 15.22 -0.55, 20.58 0.17 M21.22 1.11 C20.81 11.52, 22.07 23.12, 19.74 31.99 M21.77 0.47 C20.26 8.99, 20.27 18.24, 20.3 30.88 M22.62 31.74 C15.36 31.74, 12.04 32.49, 0.6 30.32 M21.18 31.32 C12.24 31.4, 4.67 32.58, -0.02 31.15 M1.54 31.89 C0.43 21.11, 0.05 13.94, 1 1.85 M0.77 30.71 C0.65 24, 0.1 15.75, 0.42 0.02" stroke="#000000" stroke-width="2" fill="none"></path></g><g stroke-linecap="round"><g transform="translate(392.77295593920473 181.13541948019505) rotate(0 6.85576457614718 -0.43200708288051715)"><path d="M0.87 0.1 C2.71 -0.05, 10.12 -0.76, 12.2 -1.02 C14.29 -1.28, 13.06 -1.64, 13.4 -1.48 M-0.14 -0.9 C1.48 -0.92, 9.32 -0.11, 11.42 -0.04 C13.52 0.03, 11.91 -0.11, 12.47 -0.47" stroke="#000000" stroke-width="1" fill="none"></path></g></g><g stroke-linecap="round"><g transform="translate(393.23504562589983 196.46908705416172) rotate(0 7.114342728653867 0.05152660514497143)"><path d="M0.31 -1.07 C1.4 -1.19, 5.58 -1.08, 7.46 -0.65 C9.34 -0.22, 10.28 1.38, 11.59 1.51 C12.89 1.63, 15.01 0.55, 15.29 0.08 M-0.99 0.99 C-0.16 1.01, 4.33 0.82, 6.35 0.59 C8.36 0.36, 10.08 0.05, 11.09 -0.4 C12.11 -0.86, 11.79 -1.98, 12.44 -2.13" stroke="#000000" stroke-width="1" fill="none"></path></g></g><g stroke-linecap="round"><g transform="translate(392.78212285556253 188.49777213967366) rotate(0 6.907104548315544 0.19033355535606233)"><path d="M-0.57 0.51 C0.14 0.81, 2.11 1.75, 3.21 1.49 C4.3 1.22, 4.37 -0.82, 6.01 -1.1 C7.65 -1.38, 11.86 -0.33, 13.06 -0.19 M1.33 -0.26 C2.05 -0.25, 1.98 -0.08, 2.69 -0.08 C3.4 -0.08, 3.89 -0.36, 5.59 -0.26 C7.29 -0.16, 11.33 0.53, 12.9 0.52" stroke="#000000" stroke-width="1" fill="none"></path></g></g><g stroke-linecap="round"><g transform="translate(264.0470741997634 169.0654389723397) rotate(0 36.45106997793431 17.05916358273612)" fill-rule="evenodd"><path d="M-0.55 -0.1 L-1.3 34.58 L0.85 33.15 L40.33 37.61 L59.4 38.3 L74.5 35.09 L72.07 1.1 L34.32 -3.04 L7.38 -3.18 L-0.1 -1.97" stroke="none" stroke-width="0" fill="#228be6" fill-rule="evenodd"></path><path d="M0.26 -0.73 C0.4 4.21, 0.89 23.66, 0.78 29.53 C0.67 35.4, -0.99 33.67, -0.4 34.51 C0.19 35.34, 1.29 34.12, 4.3 34.55 C7.32 34.99, 12.04 36.8, 17.71 37.14 C23.38 37.48, 31.15 36.7, 38.31 36.6 C45.48 36.5, 55.15 36.72, 60.7 36.53 C66.25 36.35, 69.71 36.12, 71.62 35.49 C73.54 34.87, 71.8 33.35, 72.19 32.78 C72.58 32.21, 73.7 37.04, 73.99 32.08 C74.27 27.12, 74.17 8.55, 73.88 3.01 C73.59 -2.54, 73.43 -0.28, 72.25 -1.21 C71.07 -2.13, 69.29 -2.34, 66.79 -2.56 C64.3 -2.78, 62.49 -2.39, 57.28 -2.51 C52.07 -2.63, 42.39 -3.08, 35.53 -3.27 C28.68 -3.46, 21.47 -3.96, 16.15 -3.67 C10.84 -3.39, 6.21 -2.06, 3.65 -1.54 C1.09 -1.02, 1.41 -0.96, 0.79 -0.54 C0.17 -0.12, 0.08 0.81, -0.06 0.98 M-1.06 1.5 C-1.03 6.55, 0.16 25.32, 0.11 30.46 C0.06 35.6, -2.17 31.57, -1.38 32.34 C-0.59 33.11, 1.82 34.19, 4.84 35.07 C7.85 35.95, 10.94 37, 16.71 37.63 C22.48 38.26, 31.93 39.25, 39.44 38.83 C46.94 38.4, 56.5 35.67, 61.74 35.09 C66.97 34.5, 68.82 35.41, 70.85 35.3 C72.88 35.2, 73.77 34.99, 73.9 34.46 C74.03 33.93, 72.1 37.18, 71.64 32.14 C71.18 27.1, 71.27 9.33, 71.13 4.22 C70.98 -0.89, 71.53 2.2, 70.77 1.46 C70.01 0.72, 68.96 0.48, 66.55 -0.21 C64.14 -0.91, 61.39 -2.1, 56.3 -2.7 C51.2 -3.31, 42.59 -3.82, 35.97 -3.85 C29.35 -3.87, 22.13 -3.37, 16.58 -2.88 C11.03 -2.39, 5.44 -1.32, 2.67 -0.91 C-0.1 -0.51, 0.63 -0.89, -0.06 -0.44 C-0.75 0, -1.55 1.85, -1.47 1.75" stroke="#0a11d3" stroke-width="1" fill="none"></path></g></g><g transform="translate(268.7610232732177 184.09717615398466) rotate(0 33 8.5)"><text x="0" y="12" font-family="Virgil, Segoe UI Emoji" font-size="13.236706084046753px" fill="#fff" text-anchor="start" style="white-space: pre;" direction="ltr">metadata</text></g><g stroke-linecap="round" transform="translate(243.67930263932044 141.23214905155112) rotate(0 190.4382576825401 38.953329252795925)"><path d="M-1.12 -0.1 C88.84 -2.34, 176.83 -2.44, 381.74 -0.33 M-0.17 -0.26 C124.59 0.99, 248.12 1.12, 381.47 0.57 M381.57 -1.03 C382.92 29.63, 382.28 57.12, 379.77 78.06 M380.56 0.07 C381.23 20.54, 380.59 42.73, 381.83 78.72 M380.02 77.24 C297.74 77.97, 215.97 79.8, 0.96 78.36 M380.28 77.74 C275.04 78.15, 168.63 78.19, -0.02 78.31 M0.58 76.29 C0.07 60.99, 0.59 47.35, 1.14 -0.91 M0.53 78.37 C0.43 58.15, 0.13 39.91, -0.88 -0.68" stroke="#000000" stroke-width="1" fill="none"></path></g><g transform="translate(352.47749893754053 140.40136069147263) rotate(0 79 13.5)"><text x="0" y="19" font-family="Virgil, Segoe UI Emoji" font-size="21.206081819989382px" fill="#000000" text-anchor="start" style="white-space: pre;" direction="ltr">zookeeper/etcd</text></g><g stroke-linecap="round" transform="translate(262.6435252858667 166.32967177122828) rotate(0 36.2564738839429 7.332599074374542)"><path d="M39.75 -0.85 C47.09 -0.72, 56.37 1.54, 61.93 2.69 C67.5 3.85, 72.57 4.71, 73.14 6.07 C73.71 7.43, 69.91 9.32, 65.34 10.86 C60.76 12.4, 53.09 14.84, 45.7 15.31 C38.31 15.77, 28.13 14.36, 20.98 13.64 C13.84 12.91, 5.97 12.32, 2.81 10.93 C-0.35 9.53, 0.06 6.89, 2.01 5.27 C3.96 3.66, 7.66 2.26, 14.53 1.24 C21.39 0.22, 37.55 -0.66, 43.19 -0.82 C48.82 -0.99, 48.24 0.12, 48.33 0.27 M30.37 1.54 C37.57 1.3, 47.47 1.64, 54.45 2.43 C61.43 3.23, 69.63 5.2, 72.26 6.34 C74.89 7.48, 73.19 8.24, 70.23 9.26 C67.26 10.29, 61.19 11.65, 54.45 12.48 C47.72 13.3, 37.44 14.1, 29.82 14.2 C22.19 14.3, 13.68 14.13, 8.7 13.08 C3.73 12.03, -0.37 9.64, -0.02 7.92 C0.33 6.19, 5.74 4.16, 10.8 2.73 C15.87 1.3, 26.8 -0.38, 30.36 -0.68 C33.92 -0.98, 32.06 0.86, 32.19 0.94" stroke="none" stroke-width="0" fill="#fff"></path><path d="M42.07 0.23 C49.29 0.39, 57.58 0.69, 62.75 1.8 C67.93 2.92, 72.71 5.21, 73.12 6.92 C73.53 8.64, 70.18 10.99, 65.22 12.09 C60.25 13.2, 50.86 13.14, 43.33 13.56 C35.81 13.98, 26.72 15.14, 20.09 14.62 C13.46 14.1, 6.63 12.18, 3.56 10.44 C0.49 8.69, -0.45 5.84, 1.68 4.16 C3.8 2.48, 9.36 1, 16.31 0.34 C23.27 -0.33, 38.4 0.15, 43.4 0.16 C48.4 0.17, 46.52 0.4, 46.31 0.4 M43.47 0.1 C51.03 0.15, 61.33 1.61, 66.26 2.8 C71.19 3.99, 73.64 5.81, 73.08 7.25 C72.52 8.68, 68.21 10.18, 62.9 11.38 C57.59 12.58, 49.15 13.91, 41.22 14.45 C33.29 14.98, 21.88 15.5, 15.32 14.61 C8.76 13.72, 3.76 10.61, 1.87 9.12 C-0.03 7.64, 0.9 7.17, 3.95 5.69 C7.01 4.21, 13.29 1.28, 20.18 0.24 C27.07 -0.81, 41.3 -0.36, 45.29 -0.59 C49.28 -0.81, 44.57 -1.34, 44.11 -1.11" stroke="#0a11d3" stroke-width="1" fill="none"></path></g><g transform="translate(425.4139265175635 175.25578139893636) rotate(0 25.5 16.5)"><text x="0" y="11.5" font-family="Virgil, Segoe UI Emoji" font-size="13.236706084046753px" fill="#000000" text-anchor="start" style="white-space: pre;" direction="ltr">state</text><text x="0" y="28" font-family="Virgil, Segoe UI Emoji" font-size="13.236706084046753px" fill="#000000" text-anchor="start" style="white-space: pre;" direction="ltr">storage</text></g><g stroke-linecap="round" transform="translate(498.09142252815934 162.08852095751712) rotate(0 54.08785186491116 25)"><path d="M0 0 C41.56 0, 83.13 0, 108.18 0 M0 0 C30.7 0, 61.4 0, 108.18 0 M108.18 0 C108.18 18.55, 108.18 37.09, 108.18 50 M108.18 0 C108.18 10.07, 108.18 20.14, 108.18 50 M108.18 50 C75.99 50, 43.8 50, 0 50 M108.18 50 C83.08 50, 57.98 50, 0 50 M0 50 C0 36.07, 0 22.13, 0 0 M0 50 C0 32.28, 0 14.55, 0 0" stroke="#000000" stroke-width="1" fill="none"></path></g><g transform="translate(503.09142252815934 167.08852095751712) rotate(0 49 20)"><text x="49" y="14" font-family="Virgil, Segoe UI Emoji" font-size="16px" fill="#000000" text-anchor="middle" style="white-space: pre;" direction="ltr">coordination</text><text x="49" y="34" font-family="Virgil, Segoe UI Emoji" font-size="16px" fill="#000000" text-anchor="middle" style="white-space: pre;" direction="ltr">service</text></g><g stroke-linecap="round"><g transform="translate(417.93293370819856 242.5155674034691) rotate(0 -0.03287719729576111 -8.725398970323724)"><path d="M0 0 C-0.01 -2.91, -0.05 -14.54, -0.07 -17.45 M0 0 C-0.01 -2.91, -0.05 -14.54, -0.07 -17.45" stroke="#000000" stroke-width="1" fill="none"></path></g><g transform="translate(417.93293370819856 242.5155674034691) rotate(0 -0.03287719729576111 -8.725398970323724)"><path d="M2.95 -9.26 C2.23 -11.21, 1.52 -13.15, -0.07 -17.45 M2.95 -9.26 C2.01 -11.83, 1.06 -14.39, -0.07 -17.45" stroke="#000000" stroke-width="1" fill="none"></path></g><g transform="translate(417.93293370819856 242.5155674034691) rotate(0 -0.03287719729576111 -8.725398970323724)"><path d="M-3.02 -9.24 C-2.32 -11.19, -1.62 -13.14, -0.07 -17.45 M-3.02 -9.24 C-2.09 -11.81, -1.17 -14.38, -0.07 -17.45" stroke="#000000" stroke-width="1" fill="none"></path></g></g><g stroke-linecap="round"><g transform="translate(162.7314550754097 221.5539061083872) rotate(0 76.78496619740758 25.917780319302466)"><path d="M0 0 C25.59 8.64, 127.97 43.2, 153.57 51.84 M0 0 C25.59 8.64, 127.97 43.2, 153.57 51.84" stroke="#000000" stroke-width="1" fill="none"></path></g><g transform="translate(162.7314550754097 221.5539061083872) rotate(0 76.78496619740758 25.917780319302466)"><path d="M123.58 52.54 C135.49 52.26, 147.41 51.98, 153.57 51.84 M123.58 52.54 C129.84 52.39, 136.11 52.25, 153.57 51.84" stroke="#000000" stroke-width="1" fill="none"></path></g><g transform="translate(162.7314550754097 221.5539061083872) rotate(0 76.78496619740758 25.917780319302466)"><path d="M130.14 33.1 C139.45 40.54, 148.76 47.99, 153.57 51.84 M130.14 33.1 C135.03 37.01, 139.93 40.93, 153.57 51.84" stroke="#000000" stroke-width="1" fill="none"></path></g></g><g stroke-linecap="round"><g transform="translate(551.4426499878492 286.3398589934509) rotate(0 -25.47048748017596 7.5774551294531705)"><path d="M0 0 C-8.49 2.53, -42.45 12.63, -50.94 15.15 M0 0 C-8.49 2.53, -42.45 12.63, -50.94 15.15" stroke="#000000" stroke-width="1" fill="none"></path></g><g transform="translate(551.4426499878492 286.3398589934509) rotate(0 -25.47048748017596 7.5774551294531705)"><path d="M-29.6 -0.68 C-34.05 2.62, -38.5 5.92, -50.94 15.15 M-29.6 -0.68 C-37.58 5.25, -45.57 11.17, -50.94 15.15" stroke="#000000" stroke-width="1" fill="none"></path></g><g transform="translate(551.4426499878492 286.3398589934509) rotate(0 -25.47048748017596 7.5774551294531705)"><path d="M-24.41 16.75 C-29.94 16.41, -35.47 16.08, -50.94 15.15 M-24.41 16.75 C-34.34 16.15, -44.26 15.56, -50.94 15.15" stroke="#000000" stroke-width="1" fill="none"></path></g></g><g stroke-linecap="round" transform="translate(57.509547524180164 183.22492267424212) rotate(0 74.89984207894099 18.28626324149917)"><path d="M-1.65 0.14 C32.45 0.31, 66.07 -1.73, 150.36 1.53 M-1 0.81 C39.83 0.54, 78.14 0.06, 150.6 0.56 M151.18 -0.37 C150.8 12.99, 148.5 27.31, 148.69 34.76 M149.04 -0.8 C148.89 8.66, 149.9 17.76, 148.95 36.33 M149.22 37.85 C119.64 38.23, 84.41 38.35, 1.3 37.34 M149.45 37.06 C92.56 36.86, 35.18 38.06, 0.42 36.31 M0.05 35.47 C-1.12 25.07, -0.05 14.22, -0.39 0.6 M-0.68 35.99 C0.42 22.77, -0.52 9.34, -0.79 0.88" stroke="#e67700" stroke-width="1" fill="none"></path></g><g stroke-linecap="round"><g transform="translate(209.6978404534915 189.28779162244945) rotate(0 2.6177866588164704 0.537488847156169)"><path d="M-0.5 0.7 C0.49 0.78, 3.92 0.33, 4.93 0.55 M1.44 0.02 C2.33 0.25, 3.23 1.79, 3.82 1.81" stroke="#e67700" stroke-width="1" fill="none"></path></g></g><g stroke-linecap="round"><g transform="translate(215.32514665174813 190.53431047921794) rotate(0 -0.168006467772841 17.18203988292089)"><path d="M0.78 -0.4 C0.54 5.52, -1.21 29.44, -1.38 35.24 M-0.28 -1.65 C-0.16 3.96, 0.9 27.35, 0.79 33.58" stroke="#e67700" stroke-width="1" fill="none"></path></g></g><g stroke-linecap="round"><g transform="translate(215.33424532953484 225.76848733258308) rotate(0 -75.44326163900976 -0.3804667696638262)"><path d="M0.76 -0.2 C-24.45 -0.36, -125.99 -1.2, -151.35 -1.15 M-0.3 -1.35 C-25.71 -1.32, -127.19 0.25, -152.54 0.18" stroke="#e67700" stroke-width="1" fill="none"></path></g></g><g stroke-linecap="round"><g transform="translate(64.5285808894019 225.0075537932554) rotate(0 -0.3380508746878945 -1.9165788370710857)"><path d="M-1.14 0.88 C-1.27 0.12, -1.33 -2.87, -1.45 -3.58 M0.47 0.29 C0.78 -0.93, 0.86 -4.6, 0.86 -5.58" stroke="#e67700" stroke-width="1" fill="none"></path></g></g><g stroke-linecap="round"><g transform="translate(216.20868547860533 195.73513117025155) rotate(0 3.5383461041846545 0.6693086189016526)"><path d="M-0.25 0.84 C0.82 1.14, 5.87 1.84, 7.06 1.78 M1.82 0.23 C2.68 0.17, 5.4 -0.29, 6.1 -0.11" stroke="#e67700" stroke-width="1" fill="none"></path></g></g><g stroke-linecap="round"><g transform="translate(222.0750686990654 197.5866915145871) rotate(0 -0.26836982421792754 17.20426165366905)"><path d="M-0.34 -0.87 C-0.4 4.6, -1.71 27.8, -1.55 33.86 M1.69 1.28 C2.09 7.43, 0.83 29.71, 0.63 35.11" stroke="#e67700" stroke-width="1" fill="none"></path></g></g><g stroke-linecap="round"><g transform="translate(223.55609465390017 230.34333134304282) rotate(0 -76.001873109048 -0.004137634016103675)"><path d="M-0.18 -0.83 C-25.21 -0.67, -125.56 0.84, -151.04 0.95 M-1.74 1.35 C-26.76 1.19, -126.65 -0.62, -151.49 -0.67" stroke="#e67700" stroke-width="1" fill="none"></path></g></g><g stroke-linecap="round"><g transform="translate(71.63320727369074 231.29957767612512) rotate(0 0.015233080457278447 -2.873257460274516)"><path d="M-0.37 -0.91 C-0.3 -1.92, 0.17 -4.34, 0.15 -5.12 M1.63 1.23 C1.59 -0.21, -0.21 -6.01, -0.73 -6.91" stroke="#e67700" stroke-width="1" fill="none"></path></g></g><g transform="translate(95.5943430073574 191.58713436623935) rotate(0 37.5 10)"><text x="37.5" y="14" font-family="Virgil, Segoe UI Emoji" font-size="16px" fill="#e67700" text-anchor="middle" style="white-space: pre;" direction="ltr">producers</text></g><g stroke-linecap="round" transform="translate(342.3660965070013 304.85373883654154) rotate(0 38.5 15)"><path d="M0 0 C27.94 0, 55.88 0, 77 0 M0 0 C21.01 0, 42.02 0, 77 0 M77 0 C77 11.72, 77 23.44, 77 30 M77 0 C77 6.42, 77 12.85, 77 30 M77 30 C49.11 30, 21.22 30, 0 30 M77 30 C55.39 30, 33.78 30, 0 30 M0 30 C0 20.15, 0 10.3, 0 0 M0 30 C0 19.21, 0 8.42, 0 0" stroke="#000000" stroke-width="1" fill="none"></path></g><g stroke-linecap="round" transform="translate(351.1353905277921 310.2001680618886) rotate(0 3.2862864176522635 9.627892747862319)"><path d="M0 0 C2.11 0, 4.23 0, 6.57 0 M0 0 C1.49 0, 2.98 0, 6.57 0 M6.57 0 C6.57 5.91, 6.57 11.82, 6.57 19.26 M6.57 0 C6.57 5.86, 6.57 11.72, 6.57 19.26 M6.57 19.26 C5.14 19.26, 3.71 19.26, 0 19.26 M6.57 19.26 C4.72 19.26, 2.86 19.26, 0 19.26 M0 19.26 C0 14.49, 0 9.73, 0 0 M0 19.26 C0 13.58, 0 7.91, 0 0" stroke="#000000" stroke-width="1" fill="none"></path></g><g stroke-linecap="round" transform="translate(364.2919718488646 310.6582543772673) rotate(0 3.2862864176522635 9.627892747862319)"><path d="M0 0 C1.34 0, 2.68 0, 6.57 0 M0 0 C1.52 0, 3.04 0, 6.57 0 M6.57 0 C6.57 6.66, 6.57 13.32, 6.57 19.26 M6.57 0 C6.57 5.18, 6.57 10.37, 6.57 19.26 M6.57 19.26 C4.77 19.26, 2.97 19.26, 0 19.26 M6.57 19.26 C4.82 19.26, 3.07 19.26, 0 19.26 M0 19.26 C0 12.65, 0 6.04, 0 0 M0 19.26 C0 13.27, 0 7.29, 0 0" stroke="#000000" stroke-width="1" fill="none"></path></g><g stroke-linecap="round" transform="translate(376.30239828511014 310.74555412661346) rotate(0 3.2862864176522635 9.627892747862319)"><path d="M0 0 C2.21 0, 4.42 0, 6.57 0 M0 0 C1.96 0, 3.91 0, 6.57 0 M6.57 0 C6.57 5.43, 6.57 10.87, 6.57 19.26 M6.57 0 C6.57 5.17, 6.57 10.33, 6.57 19.26 M6.57 19.26 C4.24 19.26, 1.9 19.26, 0 19.26 M6.57 19.26 C4.38 19.26, 2.19 19.26, 0 19.26 M0 19.26 C0 12.85, 0 6.45, 0 0 M0 19.26 C0 13.64, 0 8.02, 0 0" stroke="#000000" stroke-width="1" fill="none"></path></g><g stroke-linecap="round" transform="translate(388.9200577609621 310.87380158313374) rotate(0 3.2862864176522635 9.627892747862319)"><path d="M0 0 C2.27 0, 4.54 0, 6.57 0 M0 0 C2.29 0, 4.59 0, 6.57 0 M6.57 0 C6.57 6.25, 6.57 12.5, 6.57 19.26 M6.57 0 C6.57 7.39, 6.57 14.77, 6.57 19.26 M6.57 19.26 C5.22 19.26, 3.86 19.26, 0 19.26 M6.57 19.26 C4.37 19.26, 2.16 19.26, 0 19.26 M0 19.26 C0 13.56, 0 7.87, 0 0 M0 19.26 C0 14.91, 0 10.56, 0 0" stroke="#000000" stroke-width="1" fill="none"></path></g><g stroke-linecap="round" transform="translate(400.9360002168431 311.2058054234991) rotate(0 3.2862864176522635 9.627892747862319)"><path d="M0 0 C1.64 0, 3.29 0, 6.57 0 M0 0 C1.73 0, 3.46 0, 6.57 0 M6.57 0 C6.57 5.06, 6.57 10.12, 6.57 19.26 M6.57 0 C6.57 7.44, 6.57 14.87, 6.57 19.26 M6.57 19.26 C4.46 19.26, 2.35 19.26, 0 19.26 M6.57 19.26 C5.08 19.26, 3.59 19.26, 0 19.26 M0 19.26 C0 13.35, 0 7.44, 0 0 M0 19.26 C0 13.39, 0 7.53, 0 0" stroke="#000000" stroke-width="1" fill="none"></path></g><g stroke-linecap="round" transform="translate(322.34172460278273 252.60630082031884) rotate(0 86.88600997844793 69.33953366647722)"><path d="M-0.65 1.05 C43.65 -0.52, 92.31 -0.49, 172.99 -1.85 M0.56 -0.59 C57.11 1.49, 112.96 1.42, 174.58 -0.32 M175.1 0.26 C176.07 43.41, 176.48 86.15, 173.45 138.19 M173.86 0.31 C175.86 50.43, 174.49 100.44, 173.14 138.99 M173.9 137.74 C136.9 137.67, 98.57 136.39, -0.4 139.81 M173.67 139.25 C110.05 137.3, 48.52 138.35, -0.72 138.17 M-1.94 139.55 C0.51 105.96, 2.34 77.97, 0.29 1.65 M0.12 138.28 C-1.04 105.71, -1.17 75.22, -0.43 0.67" stroke="#000000" stroke-width="1" fill="none"></path></g><g stroke-linecap="round"><g transform="translate(499.84387704490257 260.11215749376544) rotate(0 4.265868791086632 0)"><path d="M-0.02 -0.54 C1.34 -0.43, 6.93 -0.2, 8.4 -0.29 M-1.49 1.78 C-0.32 2.16, 5.78 1.45, 7.39 1.1" stroke="#000000" stroke-width="1" fill="none"></path></g></g><g stroke-linecap="round"><g transform="translate(509.50787284902253 262.42445823357224) rotate(0 -2.0624223189133204 67.89689132756124)"><path d="M0.36 -0.48 C-0.46 22.23, -3.99 114.08, -4.72 136.98 M-0.9 -1.77 C-1.35 20.56, -1.68 112.66, -2.32 135.48" stroke="#000000" stroke-width="1" fill="none"></path></g></g><g stroke-linecap="round"><g transform="translate(505.3749734105719 399.2535887183363) rotate(0 -89.80318797214704 0.2998440932197468)"><path d="M-0.05 -0.54 C-29.91 -0.49, -149.4 -0.05, -179.4 0.3 M-1.53 1.8 C-31.51 2.03, -150.31 2.03, -180.24 1.68" stroke="#000000" stroke-width="1" fill="none"></path></g></g><g stroke-linecap="round"><g transform="translate(325.1201808962903 398.65660294593596) rotate(0 -0.3042806126692881 -3.7755898966194934)"><path d="M0.84 -0.89 C0.81 -2.39, 0.37 -7.44, 0.17 -8.35 M-0.18 1.25 C-0.32 -0.17, -0.23 -5.68, -0.36 -7.24" stroke="#000000" stroke-width="1" fill="none"></path></g></g><g stroke-linecap="round"><g transform="translate(512.7199548806684 270.71748816463) rotate(0 2.581134704978865 0.21021894400303154)"><path d="M0.41 0.35 C1.36 0.33, 3.7 -0.64, 4.64 -0.62 M-0.83 -0.51 C0 -0.37, 2.32 -0.01, 3.42 0.37" stroke="#000000" stroke-width="1" fill="none"></path></g></g><g stroke-linecap="round"><g transform="translate(518.4832048974645 271.18694087484795) rotate(0 -0.5624049346131414 66.25618721310784)"><path d="M-0.42 0.52 C-0.52 22.62, -1.56 110.68, -1.58 132.52 M1.56 -0.25 C1.34 22.06, -2.34 111.95, -2.77 134.06" stroke="#000000" stroke-width="1" fill="none"></path></g></g><g stroke-linecap="round"><g transform="translate(516.1863324974653 407.0393279067737) rotate(0 -93.73102318675336 -0.26197358346988153)"><path d="M-1.19 0.59 C-32.63 0.52, -156.78 -0.52, -187.86 -0.82 M0.39 -0.15 C-31.32 0, -157.52 0.59, -189.01 0.57" stroke="#000000" stroke-width="1" fill="none"></path></g></g><g stroke-linecap="round"><g transform="translate(328.9118515056588 406.23155057264495) rotate(0 0 -2.3816900082209713)"><path d="M-0.3 -0.49 C-0.16 -1.33, 0.05 -3.64, 0.23 -4.51 M1.74 -1.79 C1.79 -3.07, -0.37 -5.98, -0.59 -6.51" stroke="#000000" stroke-width="1" fill="none"></path></g></g><g transform="translate(376.43981077591593 268.20176675992525) rotate(0 35.5 12.5)"><text x="35.5" y="18" font-family="Virgil, Segoe UI Emoji" font-size="20px" fill="#000000" text-anchor="middle" style="white-space: pre;" direction="ltr">brokers</text></g><g transform="translate(336.05084857392046 345.3807424396943) rotate(0 73 16.5)"><text x="73" y="11.5" font-family="Virgil, Segoe UI Emoji" font-size="13px" fill="#000000" text-anchor="middle" style="white-space: pre;" direction="ltr">message data storage</text><text x="73" y="28" font-family="Virgil, Segoe UI Emoji" font-size="13px" fill="#000000" text-anchor="middle" style="white-space: pre;" direction="ltr">(write-ahead log)</text></g><g stroke-linecap="round"><g transform="translate(261.30414777657614 189.93700654903927) rotate(0 -29.992936261828476 -27.927538681945634)"><path d="M-0.52 0.6 C-7.08 -4.08, -28.93 -17.67, -38.87 -27.03 C-48.82 -36.4, -56.85 -50.6, -60.19 -55.6" stroke="#000000" stroke-width="1.5" fill="none" stroke-dasharray="1.5 7"></path></g></g><g transform="translate(141.10814462217104 88.36266371933354) rotate(0 92 17.5)"><text x="0" y="12.5" font-family="Virgil, Segoe UI Emoji" font-size="14px" fill="#000000" text-anchor="start" style="white-space: pre;" direction="ltr">topics, partitions, </text><text x="0" y="30" font-family="Virgil, Segoe UI Emoji" font-size="14px" fill="#000000" text-anchor="start" style="white-space: pre;" direction="ltr">partition distribution plans</text></g><g transform="translate(332.8847229507048 75.39342147885993) rotate(0 99 17.499999999999993)"><text x="0" y="12.5" font-family="Virgil, Segoe UI Emoji" font-size="14px" fill="#000000" text-anchor="start" style="white-space: pre;" direction="ltr">consumer states &amp; offsets </text><text x="0" y="30" font-family="Virgil, Segoe UI Emoji" font-size="14px" fill="#000000" text-anchor="start" style="white-space: pre;" direction="ltr">(can be in broker itself)</text></g><g stroke-linecap="round"><g transform="translate(385.9708775334582 186.98992347446455) rotate(0 -20.98730018284425 -36.226743064171174)"><path d="M-0.66 -0.44 C-7.85 -5.96, -37.69 -20.19, -42.59 -32.2 C-47.49 -44.22, -31.84 -66.02, -30.06 -72.53" stroke="#000000" stroke-width="1.5" fill="none" stroke-dasharray="1.5 7"></path></g></g><g transform="translate(557.5893625260297 72.99061093570975) rotate(0 104.5 26.5)"><text x="0" y="12.666666666666668" font-family="Virgil, Segoe UI Emoji" font-size="14px" fill="#000000" text-anchor="start" style="white-space: pre;" direction="ltr">* broker-leader election </text><text x="0" y="30.333333333333336" font-family="Virgil, Segoe UI Emoji" font-size="14px" fill="#000000" text-anchor="start" style="white-space: pre;" direction="ltr">(leader assigns partitions)</text><text x="0" y="48" font-family="Virgil, Segoe UI Emoji" font-size="14px" fill="#000000" text-anchor="start" style="white-space: pre;" direction="ltr">* receives broker heart beats</text></g><g stroke-linecap="round"><g transform="translate(554.450688727043 161.481616870562) rotate(0 -4.0485746514006 -30.28919120246222)"><path d="M0.38 1.16 C-1.07 -3.98, -6.92 -21.01, -7.67 -31.14 C-8.42 -41.27, -4.87 -54.82, -4.14 -59.61" stroke="#000000" stroke-width="1.5" fill="none" stroke-dasharray="1.5 7"></path></g></g><g stroke-linecap="round"><g transform="translate(133.75519843926384 235.79744915724046) rotate(0 -10.044811706712181 9.437401639743257)"><path d="M-1.02 0.67 C-4.41 3.59, -16.55 15.06, -19.87 18.19" stroke="#000000" stroke-width="1.5" fill="none" stroke-dasharray="1.5 7"></path></g></g><g stroke-linecap="round" transform="translate(41.80006342639882 269.0546129934311) rotate(0 111.14104090126182 69.7427877289831)"><path d="M1.71 1.7 C67.79 -1.36, 138.27 -0.39, 224.01 -0.67 M222.85 0.94 C223.38 56.35, 222.5 109.57, 221.64 139.98 M222.13 139.36 C163.29 140.99, 105.54 141.73, -0.34 140.62 M-1.95 140.91 C-2.92 84.98, -0.03 29.61, 0.52 -0.3" stroke="#000000" stroke-width="1.5" fill="none" stroke-dasharray="1.5 7"></path></g><g transform="translate(97.94150601019476 270.672252436727) rotate(0 45.09089808780624 13.581595809580193)"><text x="0" y="19.163191619160386" font-family="Virgil, Segoe UI Emoji" font-size="21.73055329532831px" fill="#000000" text-anchor="start" style="white-space: pre;" direction="ltr">producer</text></g><g transform="translate(51.47702856585619 300.87139717389397) rotate(0 104.5 52.5)"><text x="0" y="12.5" font-family="Virgil, Segoe UI Emoji" font-size="14px" fill="#000000" text-anchor="start" style="white-space: pre;" direction="ltr">* buffer messages</text><text x="0" y="30" font-family="Virgil, Segoe UI Emoji" font-size="14px" fill="#000000" text-anchor="start" style="white-space: pre;" direction="ltr">(to increase throughput,</text><text x="0" y="47.5" font-family="Virgil, Segoe UI Emoji" font-size="14px" fill="#000000" text-anchor="start" style="white-space: pre;" direction="ltr">but also increases latency)</text><text x="0" y="65" font-family="Virgil, Segoe UI Emoji" font-size="14px" fill="#000000" text-anchor="start" style="white-space: pre;" direction="ltr">* routing component</text><text x="0" y="82.5" font-family="Virgil, Segoe UI Emoji" font-size="14px" fill="#000000" text-anchor="start" style="white-space: pre;" direction="ltr">(caches partitions metadata,</text><text x="0" y="100" font-family="Virgil, Segoe UI Emoji" font-size="14px" fill="#000000" text-anchor="start" style="white-space: pre;" direction="ltr">to know broker to connect to)</text></g><g stroke-linecap="round" transform="translate(264.0754856890908 491.27018223642995) rotate(0 108.98549403652635 51.72606898099576)"><path d="M-1.01 -0.63 C52.38 2.23, 102.68 0.2, 217.45 -0.2 M219.53 -0.09 C216.69 33.8, 217.47 67.12, 216.91 103.63 M219.57 104.29 C158.64 104.33, 98.36 103.53, -0.51 102.34 M0.66 104.61 C-1.34 69.86, -1.72 33.39, -1.07 -0.36" stroke="#000000" stroke-width="1.5" fill="none" stroke-dasharray="1.5 7"></path></g><g stroke-linecap="round" transform="translate(277.1335207360447 525.7899072606267) rotate(0 38.5 15)"><path d="M0 0 C27.02 0, 54.04 0, 77 0 M0 0 C19.6 0, 39.2 0, 77 0 M77 0 C77 8.16, 77 16.33, 77 30 M77 0 C77 6.01, 77 12.02, 77 30 M77 30 C50.32 30, 23.64 30, 0 30 M77 30 C57.43 30, 37.86 30, 0 30 M0 30 C0 21.67, 0 13.35, 0 0 M0 30 C0 19.27, 0 8.53, 0 0" stroke="#000000" stroke-width="1" fill="none"></path></g><g stroke-linecap="round" transform="translate(285.9028147568355 531.1363364859737) rotate(0 3.2862864176522635 9.627892747862347)"><path d="M0 0 C2.32 0, 4.64 0, 6.57 0 M0 0 C2.43 0, 4.87 0, 6.57 0 M6.57 0 C6.57 5.68, 6.57 11.36, 6.57 19.26 M6.57 0 C6.57 6.38, 6.57 12.76, 6.57 19.26 M6.57 19.26 C4.66 19.26, 2.75 19.26, 0 19.26 M6.57 19.26 C4.48 19.26, 2.38 19.26, 0 19.26 M0 19.26 C0 15.35, 0 11.44, 0 0 M0 19.26 C0 12.8, 0 6.35, 0 0" stroke="#000000" stroke-width="1" fill="none"></path></g><g stroke-linecap="round" transform="translate(299.0593960779082 531.5944228013525) rotate(0 3.2862864176522635 9.627892747862347)"><path d="M0 0 C1.41 0, 2.83 0, 6.57 0 M0 0 C1.84 0, 3.67 0, 6.57 0 M6.57 0 C6.57 4.13, 6.57 8.25, 6.57 19.26 M6.57 0 C6.57 4.63, 6.57 9.25, 6.57 19.26 M6.57 19.26 C4.04 19.26, 1.5 19.26, 0 19.26 M6.57 19.26 C4.47 19.26, 2.36 19.26, 0 19.26 M0 19.26 C0 11.64, 0 4.02, 0 0 M0 19.26 C0 12.68, 0 6.1, 0 0" stroke="#000000" stroke-width="1" fill="none"></path></g><g stroke-linecap="round" transform="translate(311.06982251415354 531.6817225506986) rotate(0 3.2862864176522635 9.627892747862347)"><path d="M0 0 C1.7 0, 3.4 0, 6.57 0 M0 0 C2.48 0, 4.96 0, 6.57 0 M6.57 0 C6.57 4.49, 6.57 8.97, 6.57 19.26 M6.57 0 C6.57 5.22, 6.57 10.44, 6.57 19.26 M6.57 19.26 C4.47 19.26, 2.36 19.26, 0 19.26 M6.57 19.26 C4.39 19.26, 2.2 19.26, 0 19.26 M0 19.26 C0 14.99, 0 10.73, 0 0 M0 19.26 C0 12.37, 0 5.49, 0 0" stroke="#000000" stroke-width="1" fill="none"></path></g><g stroke-linecap="round" transform="translate(323.6874819900057 531.8099700072189) rotate(0 3.2862864176522635 9.627892747862347)"><path d="M0 0 C1.8 0, 3.6 0, 6.57 0 M0 0 C2.26 0, 4.52 0, 6.57 0 M6.57 0 C6.57 5.47, 6.57 10.94, 6.57 19.26 M6.57 0 C6.57 6.92, 6.57 13.84, 6.57 19.26 M6.57 19.26 C4.54 19.26, 2.51 19.26, 0 19.26 M6.57 19.26 C5.2 19.26, 3.83 19.26, 0 19.26 M0 19.26 C0 11.6, 0 3.94, 0 0 M0 19.26 C0 14.96, 0 10.67, 0 0" stroke="#000000" stroke-width="1" fill="none"></path></g><g stroke-linecap="round" transform="translate(335.70342444588675 532.1419738475843) rotate(0 3.2862864176522635 9.627892747862347)"><path d="M0 0 C1.6 0, 3.19 0, 6.57 0 M0 0 C2.29 0, 4.58 0, 6.57 0 M6.57 0 C6.57 5.68, 6.57 11.36, 6.57 19.26 M6.57 0 C6.57 6.72, 6.57 13.43, 6.57 19.26 M6.57 19.26 C4.6 19.26, 2.63 19.26, 0 19.26 M6.57 19.26 C4.11 19.26, 1.64 19.26, 0 19.26 M0 19.26 C0 12.96, 0 6.67, 0 0 M0 19.26 C0 14.68, 0 10.11, 0 0" stroke="#000000" stroke-width="1" fill="none"></path></g><g stroke-linecap="round" transform="translate(382.2755271843172 513.5190296488262) rotate(0 38.5 15)"><path d="M0 0 C15.52 0, 31.04 0, 77 0 M0 0 C20.72 0, 41.44 0, 77 0 M77 0 C77 11.96, 77 23.92, 77 30 M77 0 C77 9.38, 77 18.75, 77 30 M77 30 C49.39 30, 21.77 30, 0 30 M77 30 C52.36 30, 27.73 30, 0 30 M0 30 C0 22.17, 0 14.34, 0 0 M0 30 C0 21.62, 0 13.24, 0 0" stroke="#000000" stroke-width="1" fill="none"></path></g><g stroke-linecap="round" transform="translate(391.04482120510795 518.8654588741732) rotate(0 3.2862864176522635 9.62789274786229)"><path d="M0 0 C1.33 0, 2.66 0, 6.57 0 M0 0 C1.99 0, 3.98 0, 6.57 0 M6.57 0 C6.57 5.74, 6.57 11.48, 6.57 19.26 M6.57 0 C6.57 4.12, 6.57 8.24, 6.57 19.26 M6.57 19.26 C4.32 19.26, 2.07 19.26, 0 19.26 M6.57 19.26 C5.07 19.26, 3.56 19.26, 0 19.26 M0 19.26 C0 14.59, 0 9.93, 0 0 M0 19.26 C0 13.94, 0 8.63, 0 0" stroke="#000000" stroke-width="1" fill="none"></path></g><g stroke-linecap="round" transform="translate(416.211828962426 519.4108449388981) rotate(0 3.2862864176522635 9.62789274786229)"><path d="M0 0 C1.65 0, 3.31 0, 6.57 0 M0 0 C1.39 0, 2.78 0, 6.57 0 M6.57 0 C6.57 7.49, 6.57 14.98, 6.57 19.26 M6.57 0 C6.57 6.61, 6.57 13.21, 6.57 19.26 M6.57 19.26 C5.15 19.26, 3.72 19.26, 0 19.26 M6.57 19.26 C5.04 19.26, 3.5 19.26, 0 19.26 M0 19.26 C0 13.57, 0 7.89, 0 0 M0 19.26 C0 12.49, 0 5.72, 0 0" stroke="#000000" stroke-width="1" fill="none"></path></g><g stroke-linecap="round" transform="translate(440.845430894159 519.8710962357837) rotate(0 3.2862864176522635 9.62789274786229)"><path d="M0 0 C1.76 0, 3.52 0, 6.57 0 M0 0 C1.81 0, 3.62 0, 6.57 0 M6.57 0 C6.57 5.49, 6.57 10.98, 6.57 19.26 M6.57 0 C6.57 5.06, 6.57 10.12, 6.57 19.26 M6.57 19.26 C5.06 19.26, 3.55 19.26, 0 19.26 M6.57 19.26 C4.3 19.26, 2.02 19.26, 0 19.26 M0 19.26 C0 14.69, 0 10.13, 0 0 M0 19.26 C0 14.21, 0 9.17, 0 0" stroke="#000000" stroke-width="1" fill="none"></path></g><g stroke-linecap="round" transform="translate(382.73321986466647 555.762163327969) rotate(0 38.5 15)"><path d="M0 0 C16.82 0, 33.63 0, 77 0 M0 0 C30.52 0, 61.05 0, 77 0 M77 0 C77 9.9, 77 19.79, 77 30 M77 0 C77 7.58, 77 15.17, 77 30 M77 30 C54.28 30, 31.57 30, 0 30 M77 30 C50.43 30, 23.87 30, 0 30 M0 30 C0 21.9, 0 13.79, 0 0 M0 30 C0 18.2, 0 6.4, 0 0" stroke="#000000" stroke-width="1" fill="none"></path></g><g stroke-linecap="round" transform="translate(404.65909520652974 561.5666788686948) rotate(0 3.2862864176522635 9.62789274786229)"><path d="M0 0 C2.61 0, 5.22 0, 6.57 0 M0 0 C2.56 0, 5.12 0, 6.57 0 M6.57 0 C6.57 7.5, 6.57 15, 6.57 19.26 M6.57 0 C6.57 4.2, 6.57 8.4, 6.57 19.26 M6.57 19.26 C4.84 19.26, 3.11 19.26, 0 19.26 M6.57 19.26 C4.08 19.26, 1.59 19.26, 0 19.26 M0 19.26 C0 14.46, 0 9.66, 0 0 M0 19.26 C0 12.32, 0 5.38, 0 0" stroke="#000000" stroke-width="1" fill="none"></path></g><g stroke-linecap="round" transform="translate(429.28718111862725 561.7822260745612) rotate(0 3.2862864176522635 9.62789274786229)"><path d="M0 0 C1.87 0, 3.74 0, 6.57 0 M0 0 C1.4 0, 2.81 0, 6.57 0 M6.57 0 C6.57 5.11, 6.57 10.23, 6.57 19.26 M6.57 0 C6.57 6.94, 6.57 13.87, 6.57 19.26 M6.57 19.26 C4.5 19.26, 2.42 19.26, 0 19.26 M6.57 19.26 C4.59 19.26, 2.6 19.26, 0 19.26 M0 19.26 C0 12.28, 0 5.3, 0 0 M0 19.26 C0 13.03, 0 6.81, 0 0" stroke="#000000" stroke-width="1" fill="none"></path></g><g transform="translate(290.80011947891853 508.7822836298561) rotate(0 25 9)"><text x="0" y="13" font-family="Virgil, Segoe UI Emoji" font-size="14px" fill="#000000" text-anchor="start" style="white-space: pre;" direction="ltr">topic A</text></g><g transform="translate(382.9078062805513 495.86177892382864) rotate(0 40.5 9)"><text x="0" y="13" font-family="Virgil, Segoe UI Emoji" font-size="14px" fill="#000000" text-anchor="start" style="white-space: pre;" direction="ltr">partition #1</text></g><g transform="translate(289.16075615527484 568.6973710282406) rotate(0 44 9)"><text x="0" y="13" font-family="Virgil, Segoe UI Emoji" font-size="14px" fill="#000000" text-anchor="start" style="white-space: pre;" direction="ltr">partition #2</text></g><g stroke-linecap="round"><g transform="translate(357.0580915841275 545.1741013490572) rotate(0 11.661051533879913 -6.624930483518256)"><path d="M-0.68 -0.65 C3.3 -2.85, 19.85 -11.49, 24.02 -13.68" stroke="#000000" stroke-width="1.5" fill="none" stroke-dasharray="1.5 7"></path></g></g><g stroke-linecap="round"><g transform="translate(358.24600176421393 550.1314376751643) rotate(0 8.607435451893991 8.120015555927182)"><path d="M0.52 0.58 C3.67 3.4, 15.37 14.29, 18.24 16.83" stroke="#000000" stroke-width="1.5" fill="none" stroke-dasharray="1.5 7"></path></g></g><g stroke-linecap="round"><g transform="translate(326.5318435112938 359.02571424926737) rotate(0 -31.19372303952059 62.61323026129688)"><path d="M-0.25 1.19 C-10.81 12.95, -53.44 49.63, -62.96 70.22 C-72.47 90.8, -58.24 115.6, -57.35 124.71" stroke="#000000" stroke-width="1.5" fill="none" stroke-dasharray="1.5 7"></path></g></g><g stroke-linecap="round"><g transform="translate(273.4459478414551 530.6125350121815) rotate(0 -31.057431814091046 -9.859360456668014)"><path d="M0.83 -1.06 C-9.6 -4.21, -52.77 -16.73, -63.15 -19.93" stroke="#e67700" stroke-width="1.5" fill="none" stroke-dasharray="1.5 7"></path></g></g><g transform="translate(646.9138157568419 139.3929109698517) rotate(0 102.99999999999994 44)"><text x="0" y="8.571428571428571" font-family="Virgil, Segoe UI Emoji" font-size="10px" fill="#000000" text-anchor="start" style="white-space: pre;" direction="ltr">* point-to-point: only one consumer </text><text x="0" y="21.142857142857142" font-family="Virgil, Segoe UI Emoji" font-size="10px" fill="#000000" text-anchor="start" style="white-space: pre;" direction="ltr">in the group gets a message</text><text x="0" y="33.714285714285715" font-family="Virgil, Segoe UI Emoji" font-size="10px" fill="#000000" text-anchor="start" style="white-space: pre;" direction="ltr">restricts only one consumer per partition </text><text x="0" y="46.285714285714285" font-family="Virgil, Segoe UI Emoji" font-size="10px" fill="#000000" text-anchor="start" style="white-space: pre;" direction="ltr">in same consumer group</text><text x="0" y="58.857142857142854" font-family="Virgil, Segoe UI Emoji" font-size="10px" fill="#000000" text-anchor="start" style="white-space: pre;" direction="ltr"></text><text x="0" y="71.42857142857143" font-family="Virgil, Segoe UI Emoji" font-size="10px" fill="#000000" text-anchor="start" style="white-space: pre;" direction="ltr">* pub/sub: same message is delivered</text><text x="0" y="84" font-family="Virgil, Segoe UI Emoji" font-size="10px" fill="#000000" text-anchor="start" style="white-space: pre;" direction="ltr">to multiple consumers</text></g><g stroke-linecap="round"><g transform="translate(615.48142262943 253.39495595385097) rotate(0 13.029086276160058 -34.75443565571143)"><path d="M1.15 0.48 C3.94 -6.9, 12.42 -31.72, 16.72 -43.55 C21.01 -55.38, 25.23 -66.35, 26.93 -70.5" stroke="#000000" stroke-width="1.5" fill="none" stroke-dasharray="1.5 7"></path></g></g><g stroke-linecap="round"><g transform="translate(457.87252206907147 494.86177892382864) rotate(0 -11.040351032994579 -11.988979572361075)"><path d="M-1.12 -0.82 C-1.66 -2.67, 0.9 -6.27, -2.69 -10.01 C-6.28 -13.75, -19.61 -20.74, -22.66 -23.27" stroke="#000000" stroke-width="1.5" fill="none" stroke-dasharray="1.5 7"></path></g></g><g transform="translate(273.2989968822875 424.88381977910655) rotate(0 123.5 22.5)"><text x="0" y="11" font-family="Virgil, Segoe UI Emoji" font-size="12px" fill="#000000" text-anchor="start" style="white-space: pre;" direction="ltr">partition can be written as several </text><text x="0" y="26" font-family="Virgil, Segoe UI Emoji" font-size="12px" fill="#000000" text-anchor="start" style="white-space: pre;" direction="ltr">WAL segment files of fixed size, new file </text><text x="0" y="41" font-family="Virgil, Segoe UI Emoji" font-size="12px" fill="#000000" text-anchor="start" style="white-space: pre;" direction="ltr">is started as current reaches a size</text></g><g stroke-linecap="round"><g transform="translate(709.0122644716765 264.2492753635152) rotate(0 27.166481903362637 -7.249602588308051)"><path d="M0.6 0.6 C5.6 -1.67, 19.88 -12.96, 29.04 -14.63 C38.19 -16.3, 51.15 -10.33, 55.52 -9.42" stroke="#000000" stroke-width="1.5" fill="none" stroke-dasharray="1.5 7"></path></g></g><g transform="translate(754.1551018196924 255.87158048149587) rotate(0 43.5 15)"><text x="0" y="11" font-family="Virgil, Segoe UI Emoji" font-size="12px" fill="#000000" text-anchor="start" style="white-space: pre;" direction="ltr">* push</text><text x="0" y="26" font-family="Virgil, Segoe UI Emoji" font-size="12px" fill="#000000" text-anchor="start" style="white-space: pre;" direction="ltr">* pull (common)</text></g><g stroke-linecap="round" transform="translate(555.6585991523043 256.87597984023677) rotate(0 83.88723961610935 20.480472370103854)"><path d="M0.31 0.33 C48.81 -0.94, 101.23 -1.73, 169.33 1.43 M0.69 -0.41 C45.2 -0.61, 91.41 0.07, 168.44 0.82 M166.37 0.53 C169.14 9.81, 169.37 17.13, 167.91 42.64 M167.49 0.04 C167.29 8.35, 167.57 16.8, 168 40.53 M167.21 40.7 C127.32 38.71, 86.61 39.98, -1.19 40.74 M168.41 40.33 C106.61 39.02, 44.41 39.77, 0.03 41.78 M-1.76 39.74 C1.59 30.23, 1.86 20.66, 1.38 -0.72 M0.86 40.61 C0.19 27.26, -0.76 14.1, -0.95 -0.23" stroke="#1864ab" stroke-width="1" fill="none"></path></g><g stroke-linecap="round"><g transform="translate(725.8758404592886 264.4956498500671) rotate(0 2.931900663829765 0.6019833214715504)"><path d="M0.18 0.2 C1.22 0.29, 4.2 1, 5.33 1.06 M-1.18 -0.75 C-0.27 -0.51, 2.77 2.14, 4.09 2.52" stroke="#1864ab" stroke-width="1" fill="none"></path></g></g><g stroke-linecap="round"><g transform="translate(732.4123156683929 265.25345674798353) rotate(0 -0.18816593503976264 19.243750811023233)"><path d="M0.2 -0.54 C0.03 6.03, -0.32 32.91, -0.52 39.57 M-1.16 1.79 C-1.54 8.03, -1.39 32.06, -1.54 38.02" stroke="#1864ab" stroke-width="1" fill="none"></path></g></g><g stroke-linecap="round"><g transform="translate(731.9828063264329 304.90731288651574) rotate(0 -84.49586528983929 -0.4261198179712835)"><path d="M-0.54 -0.14 C-28.55 -0.42, -139.99 -1.49, -167.91 -1.47 M1.38 -1.26 C-26.71 -1.41, -140 -0.15, -168.28 -0.26" stroke="#1864ab" stroke-width="1" fill="none"></path></g></g><g stroke-linecap="round"><g transform="translate(563.7016543188702 303.9773661702662) rotate(0 -0.3786143460421272 -2.1465533662820633)"><path d="M-0.14 1.09 C-0.4 0.62, -1.42 -2.41, -1.38 -3.36 M-1.68 0.61 C-1.56 -0.14, 0.77 -4.31, 1.01 -4.99" stroke="#1864ab" stroke-width="1" fill="none"></path></g></g><g stroke-linecap="round"><g transform="translate(733.2083692248359 271.2187896040754) rotate(0 3.9629200709612746 0.7496204388756098)"><path d="M1.09 -0.62 C2.65 -0.2, 7.77 1.86, 8.86 2.36 M0.2 1.67 C1.74 1.77, 7.32 0.88, 8.4 0.68" stroke="#1864ab" stroke-width="1" fill="none"></path></g></g><g stroke-linecap="round"><g transform="translate(739.9994655463513 273.3213730387428) rotate(0 -0.30057211237073034 19.268639021140928)"><path d="M-0.62 0.93 C-0.55 7.12, 0.11 31.9, 0.26 38.21 M1.26 0.38 C1.25 7.26, -0.03 32.93, -0.24 39.58" stroke="#1864ab" stroke-width="1" fill="none"></path></g></g><g stroke-linecap="round"><g transform="translate(741.8185017221901 309.66105107778793) rotate(0 -85.12150578438161 -0.0046341178635032065)"><path d="M0.93 0.86 C-27.68 1.1, -142.08 0.87, -170.57 0.86 M-0.04 0.26 C-28.93 0.23, -143.26 -0.58, -171.68 -0.81" stroke="#1864ab" stroke-width="1" fill="none"></path></g></g><g stroke-linecap="round"><g transform="translate(571.7133348473585 311.0583719128903) rotate(0 0.017060931437811178 -3.2180259712001487)"><path d="M0.86 -0.32 C1.11 -1.5, 0.9 -5.05, 0.9 -6.15 M-0.15 -1.54 C0.07 -3.18, 0.3 -7.4, 0.41 -8.12" stroke="#1864ab" stroke-width="1" fill="none"></path></g></g><g transform="translate(564.3460971721875 268.98391988554266) rotate(0 74.68476315047997 8.298307016720003)"><text x="74.68476315048" y="11.596614033439995" font-family="Virgil, Segoe UI Emoji" font-size="13.277291226752px" fill="#1864ab" text-anchor="middle" style="white-space: pre;" direction="ltr">consumers/cons. groups</text></g><g stroke-linecap="round"><g transform="translate(657.113155649865 423.03047615915284) rotate(0 5.620075794130855 1.0740130226446354)"><path d="M-1.13 -0.68 C0.79 -0.41, 8.14 1.88, 10.3 2.34 M0.48 1.58 C2.87 1.4, 10.7 0.02, 12.52 0.32" stroke="#000000" stroke-width="1" fill="none"></path></g></g><g stroke-linecap="round"><g transform="translate(767.4433332071392 427.30101122883934) rotate(0 -7.303538089901281 0.49598293569957264)"><path d="M0.17 1.1 C-2.32 1.56, -12.05 2.11, -14.59 1.99 M-1.2 0.63 C-3.88 0.85, -13.05 0.27, -15.53 0.39" stroke="#000000" stroke-width="1" fill="none"></path></g></g><g stroke-linecap="round"><g transform="translate(704.5739939212608 399.7331508139748) rotate(0 0.07332306015177892 2.7356645197931186)"><path d="M-0.38 0.69 C-0.47 1.58, -1.03 4.2, -0.77 4.87 M1.62 0.01 C1.92 1.09, 1.58 5.16, 1.46 6.09" stroke="#000000" stroke-width="1" fill="none"></path></g></g><g transform="translate(761.0485874568773 478.56161971840334) rotate(0 50.49999999999994 7.5)"><text x="50.5" y="11" font-family="Virgil, Segoe UI Emoji" font-size="12px" fill="#000000" text-anchor="middle" style="white-space: pre;" direction="ltr">join group1 topicA</text></g><g stroke-linecap="round"><g transform="translate(547.7872579466595 664.4574135304163) rotate(0 13.822317862959778 2.9589975351321414)"><path d="M0.38 0.63 C5.02 1.56, 22.55 4.93, 27.12 5.72" stroke="#000000" stroke-width="1.5" fill="none" stroke-dasharray="1.5 7"></path></g><g transform="translate(547.7872579466595 664.4574135304163) rotate(0 13.822317862959778 2.9589975351321414)"><path d="M0.93 2.01 L13.66 -3.02 L12.76 7.91 L-0.33 1.45" stroke="none" stroke-width="0" fill="#000000" fill-rule="evenodd"></path><path d="M1.12 0.01 C3.45 -0.04, 6.33 -1.85, 14.93 -2.53 M13.92 -3.72 C14.75 0.72, 13.81 2.6, 12.56 9.12 M12.04 10.28 C6.19 4.75, 3.49 3.81, 0.88 1.4 M0.38 0.63 C0.38 0.63, 0.38 0.63, 0.38 0.63" stroke="#000000" stroke-width="1.5" fill="none"></path></g></g><g stroke-linecap="round"><g transform="translate(550.8889482709743 641.9564504454714) rotate(178.60315951878792 11.75053469455014 -0.6542328833338615)"><path d="M0.32 -0.47 C4.18 -0.46, 19.1 -0.31, 22.86 -0.34" stroke="#000000" stroke-width="1.5" fill="none" stroke-dasharray="1.5 7"></path></g><g transform="translate(550.8889482709743 641.9564504454714) rotate(178.60315951878792 11.75053469455014 -0.6542328833338615)"><path d="M0.31 0.79 L11.09 -3.39 L9.55 3.63 L1.33 -0.92" stroke="none" stroke-width="0" fill="#000000" fill-rule="evenodd"></path><path d="M-0.14 -1.1 C4.19 -2.41, 6.8 -2.26, 11.43 -5.73 M10.4 -5.27 C11.66 -2.24, 10.6 1.63, 11.73 4.09 M11.25 3.59 C9.19 4.27, 6.52 2.7, 1.04 -1.27 M0.32 -0.47 C0.32 -0.47, 0.32 -0.47, 0.32 -0.47" stroke="#000000" stroke-width="1.5" fill="none"></path></g></g><g stroke-linecap="round"><g transform="translate(826.4307786958918 667.0548010698038) rotate(178.60315951878792 10.013864578657717 1.9781316999709588)"><path d="M-0.3 1.07 C3.04 1.6, 17.28 3.66, 20.64 4.27" stroke="#000000" stroke-width="1.5" fill="none" stroke-dasharray="1.5 7"></path></g><g transform="translate(826.4307786958918 667.0548010698038) rotate(178.60315951878792 10.013864578657717 1.9781316999709588)"><path d="M-1.66 1.71 L7.84 -0.79 L9.08 8.13 L-0.58 0.17" stroke="none" stroke-width="0" fill="#000000" fill-rule="evenodd"></path><path d="M0.61 1.59 C3.32 -0.1, 7.09 -1.29, 9.04 -1.44 M8.98 -2.16 C8.42 0.3, 8.22 3.83, 8.24 6.48 M7.79 6.5 C6.06 5.4, 3.64 3.69, -1.18 0.7 M-0.3 1.07 C-0.3 1.07, -0.3 1.07, -0.3 1.07" stroke="#000000" stroke-width="1.5" fill="none"></path></g></g><g stroke-linecap="round"><g transform="translate(825.3212551755616 639.7633439070011) rotate(357.91021401670116 10.813013356072247 1.109296000203301)"><path d="M-0.13 0.62 C3.48 1, 16.7 2.93, 20.49 3.17" stroke="#000000" stroke-width="1.5" fill="none" stroke-dasharray="1.5 7"></path></g><g transform="translate(825.3212551755616 639.7633439070011) rotate(357.91021401670116 10.813013356072247 1.109296000203301)"><path d="M-1.88 0.14 L9.29 -3.64 L10.48 4.77 L-0.84 -1.08" stroke="none" stroke-width="0" fill="#000000" fill-rule="evenodd"></path><path d="M0.42 -0.41 C2.79 0.84, 3.87 -0.9, 9.26 -3.71 M10.11 -2.26 C9.97 0.09, 9.79 0.96, 9.27 7.31 M9.25 6.13 C7.2 4.95, 5.97 3.51, -0.03 1.68 M-0.13 0.62 C-0.13 0.62, -0.13 0.62, -0.13 0.62" stroke="#000000" stroke-width="1.5" fill="none"></path></g></g><g transform="translate(770.7994982193184 403.15156668568466) rotate(0 61 15)"><text x="0" y="11" font-family="Virgil, Segoe UI Emoji" font-size="12px" fill="#000000" text-anchor="start" style="white-space: pre;" direction="ltr">Use groupName hash</text><text x="0" y="26" font-family="Virgil, Segoe UI Emoji" font-size="12px" fill="#000000" text-anchor="start" style="white-space: pre;" direction="ltr">to get coord. broker</text></g><g transform="translate(672.115282442847 418.9938492055731) rotate(0 38 15)"><text x="38" y="11" font-family="Virgil, Segoe UI Emoji" font-size="12px" fill="#000000" text-anchor="middle" style="white-space: pre;" direction="ltr">same broker </text><text x="38" y="26" font-family="Virgil, Segoe UI Emoji" font-size="12px" fill="#000000" text-anchor="middle" style="white-space: pre;" direction="ltr">by hash</text></g><g stroke-linecap="round"><g transform="translate(808.14004939092 596.6527042010847) rotate(0 -46.490116715372324 -2.0044578475931303)"><path d="M1.18 -0.22 C-14.55 -0.78, -78.27 -2.3, -94.06 -3" stroke="#2b8a3e" stroke-width="1.5" fill="none" stroke-dasharray="1.5 7"></path></g><g transform="translate(808.14004939092 596.6527042010847) rotate(0 -46.490116715372324 -2.0044578475931303)"><path d="M0.27 0.93 L-12.85 5.06 L-11.08 -6.3 L2.73 0.35" stroke="none" stroke-width="0" fill="#2b8a3e" fill-rule="evenodd"></path><path d="M0.91 -1.57 C-2.05 1.11, -8.32 4.23, -13.06 4.76 M-12.81 4.47 C-13.07 1.76, -11.87 -1.94, -13.06 -6.99 M-11.27 -5.8 C-7.72 -6.2, -4.71 -4.1, 2.02 0.46 M1.18 -0.22 C1.18 -0.22, 1.18 -0.22, 1.18 -0.22" stroke="#2b8a3e" stroke-width="1.5" fill="none"></path></g></g><g stroke-linecap="round"><g transform="translate(803.8016262469353 386.76958446957303) rotate(0 3.766198661443809 124.28696139768522)"><path d="M0.11 0.24 C1.47 41.87, 6.76 208.08, 8.19 249.4" stroke="#000000" stroke-width="1.5" fill="none" stroke-dasharray="1.5 7"></path></g></g><g stroke-linecap="round"><g transform="translate(583.7286132044295 385.8713329785514) rotate(0 0.6137710033215171 122.03334174804715)"><path d="M0.93 -0.37 C1.35 40.27, 2.28 202.33, 2.3 243.08" stroke="#000000" stroke-width="1.5" fill="none" stroke-dasharray="1.5 7"></path></g></g><g stroke-linecap="round" transform="translate(541.9858441421278 343.8713329785514) rotate(0 38.5 20.5)"><path d="M-0.77 1.23 C17.44 -0.95, 40.05 1.02, 77.73 -0.15 M-0.34 0.38 C21.53 -0.89, 42.37 -0.4, 77.24 0.28 M76.1 1.86 C77.31 17.47, 77.89 30.32, 77.6 40.89 M77.17 0.16 C75.93 12.03, 77.06 25.75, 76.72 40.4 M77.55 41.51 C48.34 39.5, 17.39 41.46, 0.54 39.14 M77.51 41.29 C60 40.16, 44.36 41.41, 0.22 41.04 M0.32 41.15 C-0.78 30.48, 0.58 21.59, -0.08 0.34 M0.56 41.32 C-0.11 25.85, 0.58 9.82, -0.7 -0.86" stroke="#000000" stroke-width="1" fill="none"></path></g><g transform="translate(546.9858441421278 349.3713329785514) rotate(0 33.5 15)"><text x="33.5" y="11" font-family="Virgil, Segoe UI Emoji" font-size="12px" fill="#000000" text-anchor="middle" style="white-space: pre;" direction="ltr">consumerA</text><text x="33.5" y="26" font-family="Virgil, Segoe UI Emoji" font-size="12px" fill="#000000" text-anchor="middle" style="white-space: pre;" direction="ltr">(group1)</text></g><g stroke-linecap="round" transform="translate(659.4383366879628 333.96639071313473) rotate(0 41.5 27.5)"><path d="M-0.96 0.12 C28.15 1.3, 53.31 -1.06, 83.8 0.72 M0.93 -0.24 C26.92 0.7, 53.33 -0.04, 83.48 -0.51 M84.24 1.2 C84.22 16.91, 83.39 32.81, 84.67 53.76 M82.75 0.87 C81.97 13.26, 82.47 25.51, 82.04 54.97 M81.05 53.95 C56.31 52.7, 28.41 55.09, 1.7 54.57 M82.73 54.14 C54.41 54.35, 24.38 55.22, 0 54.24 M-0.73 55.07 C-1.42 37.06, -0.43 23.1, 1.59 -1.97 M0.49 55.36 C-0.82 40.09, -0.46 25.01, -0.76 -0.53" stroke="#2b8a3e" stroke-width="1" fill="none"></path></g><g transform="translate(664.4383366879628 346.46639071313473) rotate(0 36.5 15)"><text x="36.5" y="11" font-family="Virgil, Segoe UI Emoji" font-size="12px" fill="#2b8a3e" text-anchor="middle" style="white-space: pre;" direction="ltr">coordinator</text><text x="36.5" y="26" font-family="Virgil, Segoe UI Emoji" font-size="12px" fill="#2b8a3e" text-anchor="middle" style="white-space: pre;" direction="ltr">broker</text></g><g stroke-linecap="round" transform="translate(766.1646033390263 344.658591198941) rotate(0 38.49999999999994 20.5)"><path d="M-0.29 -1.89 C19.99 -1.3, 37.87 0.83, 77.23 1.89 M0.99 0.13 C25.2 -0.78, 50.63 0, 77.94 -0.79 M75.5 -0.1 C77.62 16.41, 77.72 31.63, 75.21 41.33 M77.62 0.39 C76.81 9.88, 76.12 19.41, 76.69 41.62 M76.9 39.77 C51.94 41.52, 28.19 41.02, 0.72 41.28 M76.69 41.28 C62.09 39.37, 45.09 41.23, 0.62 40.16 M-0.33 39.43 C-0.21 33.59, -1.72 22.6, 1.11 1.98 M0.91 41.25 C1.19 33.73, 1.2 24.05, -0.11 -0.99" stroke="#000000" stroke-width="1" fill="none"></path></g><g transform="translate(771.1646033390263 350.158591198941) rotate(0 33.49999999999994 15)"><text x="33.5" y="11" font-family="Virgil, Segoe UI Emoji" font-size="12px" fill="#000000" text-anchor="middle" style="white-space: pre;" direction="ltr">consumerB</text><text x="33.5" y="26" font-family="Virgil, Segoe UI Emoji" font-size="12px" fill="#000000" text-anchor="middle" style="white-space: pre;" direction="ltr">(group1)</text></g><g transform="translate(527.74843877372 402.33701987618014) rotate(0 61 15)"><text x="0" y="11" font-family="Virgil, Segoe UI Emoji" font-size="12px" fill="#000000" text-anchor="start" style="white-space: pre;" direction="ltr">Use groupName hash</text><text x="0" y="26" font-family="Virgil, Segoe UI Emoji" font-size="12px" fill="#000000" text-anchor="start" style="white-space: pre;" direction="ltr">to get coord. broker</text></g><g transform="translate(535.4454823686924 452.2952492377879) rotate(0 31 7.5)"><text x="31" y="11" font-family="Virgil, Segoe UI Emoji" font-size="12px" fill="#000000" text-anchor="middle" style="white-space: pre;" direction="ltr">Heartbeat</text></g><g transform="translate(607.2184950941295 476.0561760393164) rotate(0 43.5 7.5)"><text x="43.5" y="11" font-family="Virgil, Segoe UI Emoji" font-size="12px" fill="#2b8a3e" text-anchor="middle" style="white-space: pre;" direction="ltr">Ack heartbeat</text></g><g transform="translate(539.2173644603636 490.19630050450434) rotate(0 31 7.499999999999972)"><text x="31" y="11" font-family="Virgil, Segoe UI Emoji" font-size="12px" fill="#000000" text-anchor="middle" style="white-space: pre;" direction="ltr">Heartbeat</text></g><g transform="translate(637.0269237558542 512.1946842829786) rotate(0 16 7.5)"><text x="16" y="11" font-family="Virgil, Segoe UI Emoji" font-size="12px" fill="#2b8a3e" text-anchor="middle" style="white-space: pre;" direction="ltr">rejoin</text></g><g transform="translate(542.8821958895518 536.0548398928968) rotate(0 50.5 7.5)"><text x="50.5" y="11" font-family="Virgil, Segoe UI Emoji" font-size="12px" fill="#000000" text-anchor="middle" style="white-space: pre;" direction="ltr">join group1 topicA</text></g><g transform="translate(599.5009508486861 560.7357572764863) rotate(0 48 7.5)"><text x="48" y="11" font-family="Virgil, Segoe UI Emoji" font-size="12px" fill="#2b8a3e" text-anchor="middle" style="white-space: pre;" direction="ltr">you are follower</text></g><g transform="translate(720.7366094378802 545.4760618137086) rotate(0 83.00000000000006 7.5)"><text x="83" y="11" font-family="Virgil, Segoe UI Emoji" font-size="12px" fill="#2b8a3e" text-anchor="middle" style="white-space: pre;" direction="ltr">you are leader(members:A,B)</text></g><g transform="translate(749.8749231394737 577.0907800980688) rotate(0 75.49999999999994 7.5)"><text x="75.5" y="11" font-family="Virgil, Segoe UI Emoji" font-size="12px" fill="#000000" text-anchor="middle" style="white-space: pre;" direction="ltr">partition distribution plan</text></g><g transform="translate(545.4320573352337 600.6304974892932) rotate(0 73.5 7.5)"><text x="73.5" y="11" font-family="Virgil, Segoe UI Emoji" font-size="12px" fill="#2b8a3e" text-anchor="middle" style="white-space: pre;" direction="ltr">plan: consume partition#1</text></g><g transform="translate(728.171255966214 602.1128613144992) rotate(0 76.5 7.5)"><text x="76.5" y="11" font-family="Virgil, Segoe UI Emoji" font-size="12px" fill="#2b8a3e" text-anchor="middle" style="white-space: pre;" direction="ltr">plan: consume partition#2</text></g><g stroke-linecap="round"><g transform="translate(704.7508613024894 397.4560333466989) rotate(0 1.496482461629057 142.24164744256487)"><path d="M0.1 -0.01 C0.61 47.08, 3.54 236.14, 3.85 283.47" stroke="#2b8a3e" stroke-width="1.5" fill="none" stroke-dasharray="1.5 7"></path></g></g><g stroke-linecap="round"><g transform="translate(595.1683659438055 470.197079375012) rotate(0 52.28856896480215 0.4304483083473656)"><path d="M-0.94 0.57 C16.27 0.55, 85.77 -0.31, 103.47 -0.32" stroke="#2b8a3e" stroke-width="1.5" fill="none" stroke-dasharray="1.5 7"></path></g><g transform="translate(595.1683659438055 470.197079375012) rotate(0 52.28856896480215 0.4304483083473656)"><path d="M0.55 -0.57 L12.25 -5.54 L12.04 8.38 L-0.09 0.4" stroke="none" stroke-width="0" fill="#2b8a3e" fill-rule="evenodd"></path><path d="M-0.23 -0.82 C1.91 -0.58, 7.24 -2.98, 12.87 -6.47 M13.63 -5.31 C11.4 -1.66, 12.25 2.05, 13.22 8.01 M11.57 7.77 C9.5 4.94, 5.1 4.41, -1.63 -0.4 M-0.94 0.57 C-0.94 0.57, -0.94 0.57, -0.94 0.57" stroke="#2b8a3e" stroke-width="1.5" fill="none"></path></g></g><g stroke-linecap="round"><g transform="translate(598.5931271996467 509.94454118279305) rotate(0 52.28856896480215 0.4304483083473656)"><path d="M0.66 -0.46 C17.9 -0.35, 86.64 0.76, 103.86 0.93" stroke="#2b8a3e" stroke-width="1.5" fill="none" stroke-dasharray="1.5 7"></path></g><g transform="translate(598.5931271996467 509.94454118279305) rotate(0 52.28856896480215 0.4304483083473656)"><path d="M-0.36 0.12 L12.88 -7.86 L12.21 6.55 L0.12 -1.52" stroke="none" stroke-width="0" fill="#2b8a3e" fill-rule="evenodd"></path><path d="M0.09 -1.35 C5.3 -3.35, 9.42 -4.03, 13.37 -5.62 M14.55 -7.21 C14.52 -3.31, 13.86 1.98, 13.4 6.31 M14.12 7.48 C10.73 5.22, 8.61 4.13, 1.34 -0.27 M0.66 -0.46 C0.66 -0.46, 0.66 -0.46, 0.66 -0.46" stroke="#2b8a3e" stroke-width="1.5" fill="none"></path></g></g><g stroke-linecap="round"><g transform="translate(599.6663567285776 556.7523758790255) rotate(0 52.28856896480215 0.4304483083473656)"><path d="M-0.58 1.06 C16.76 1.16, 86.76 1.09, 104.24 1.24" stroke="#2b8a3e" stroke-width="1.5" fill="none" stroke-dasharray="1.5 7"></path></g><g transform="translate(599.6663567285776 556.7523758790255) rotate(0 52.28856896480215 0.4304483083473656)"><path d="M-0.35 3.01 L12.66 -6.6 L14.57 7.22 L-1.78 1.33" stroke="none" stroke-width="0" fill="#2b8a3e" fill-rule="evenodd"></path><path d="M0.75 0.64 C4.19 -1.26, 9.4 -4.25, 12.53 -5.78 M13.63 -5.39 C12.75 -3.6, 14.34 -0.99, 12.72 7.24 M14.15 7.24 C9.42 6.17, 4.9 3.75, -1.36 0.59 M-0.58 1.06 C-0.58 1.06, -0.58 1.06, -0.58 1.06" stroke="#2b8a3e" stroke-width="1.5" fill="none"></path></g></g><g stroke-linecap="round"><g transform="translate(603.0101635302841 595.8677640837329) rotate(0 52.28856896480215 0.4304483083473656)"><path d="M-0.28 1.18 C17.25 1.17, 86.77 0.09, 104.17 -0.14" stroke="#2b8a3e" stroke-width="1.5" fill="none" stroke-dasharray="1.5 7"></path></g><g transform="translate(603.0101635302841 595.8677640837329) rotate(0 52.28856896480215 0.4304483083473656)"><path d="M1.12 -0.3 L12.5 -5.82 L15.29 8.95 L1.05 0.2" stroke="none" stroke-width="0" fill="#2b8a3e" fill-rule="evenodd"></path><path d="M1.2 0.67 C1.45 -0.78, 4.31 -2.9, 14.74 -6.68 M13.97 -4.17 C12.83 -2.36, 14.05 1.75, 14.32 8.13 M13.56 7.5 C11 5.88, 6.14 5.77, -0.39 -0.13 M-0.28 1.18 C-0.28 1.18, -0.28 1.18, -0.28 1.18" stroke="#2b8a3e" stroke-width="1.5" fill="none"></path></g></g><g stroke-linecap="round"><g transform="translate(802.0214249585877 546.4821292378424) rotate(0 -43.397933693548 0.4349448612776996)"><path d="M-0.65 -0.94 C-15.31 -0.41, -73.23 1.83, -87.67 2.06" stroke="#2b8a3e" stroke-width="1.5" fill="none" stroke-dasharray="1.5 7"></path></g><g transform="translate(802.0214249585877 546.4821292378424) rotate(0 -43.397933693548 0.4349448612776996)"><path d="M-1.58 0.95 L-12.66 5.6 L-14.75 -8.39 L1.2 -2.77" stroke="none" stroke-width="0" fill="#2b8a3e" fill-rule="evenodd"></path><path d="M-1.82 -2.04 C-3.55 0.59, -9.93 4.32, -14.74 6.89 M-13.41 5.82 C-13 1.29, -13.83 -4.93, -14.89 -7.23 M-14.28 -7.72 C-8.69 -3.71, -7.15 -3.26, 0.76 -0.21 M-0.65 -0.94 C-0.65 -0.94, -0.65 -0.94, -0.65 -0.94" stroke="#2b8a3e" stroke-width="1.5" fill="none"></path></g></g><g stroke-linecap="round"><g transform="translate(700.6950890608379 458.6241537522272) rotate(0 -47.572578330611236 -0.42740023681190564)"><path d="M0.09 -0.77 C-15.75 -1.26, -78.98 -1.75, -94.68 -1.71" stroke="#000000" stroke-width="1.5" fill="none" stroke-dasharray="1.5 7"></path></g><g transform="translate(700.6950890608379 458.6241537522272) rotate(0 -47.572578330611236 -0.42740023681190564)"><path d="M1.56 -2.28 L-12.02 6.87 L-13.61 -8.04 L1.99 -0.93" stroke="none" stroke-width="0" fill="#000000" fill-rule="evenodd"></path><path d="M-0.87 -0.2 C-5.45 2.54, -8.56 2.96, -13.77 4.03 M-14.37 4.14 C-12.9 3.08, -14.41 -2.05, -12.93 -7.08 M-13.86 -7.69 C-8.06 -3.9, -2.36 -3.3, 1.04 -0.78 M0.09 -0.77 C0.09 -0.77, 0.09 -0.77, 0.09 -0.77" stroke="#000000" stroke-width="1.5" fill="none"></path></g></g><g stroke-linecap="round"><g transform="translate(703.8546166902172 500.41710323061034) rotate(0 -47.572578330611236 -0.4274002368118772)"><path d="M0.88 -0.91 C-14.97 -1.06, -78.19 0.09, -94.21 0.03" stroke="#000000" stroke-width="1.5" fill="none" stroke-dasharray="1.5 7"></path></g><g transform="translate(703.8546166902172 500.41710323061034) rotate(0 -47.572578330611236 -0.4274002368118772)"><path d="M0.39 -0.76 L-11.23 3.73 L-11.31 -7.4 L0.5 0.36" stroke="none" stroke-width="0" fill="#000000" fill-rule="evenodd"></path><path d="M-0.26 0.26 C-2.98 1.46, -9.67 5.42, -12.77 6.15 M-13.84 5.7 C-11.67 1.21, -12.09 -2.82, -12.13 -6.01 M-13.61 -5.95 C-7.96 -6.16, -6.72 -5.03, 1.99 -0.14 M0.88 -0.91 C0.88 -0.91, 0.88 -0.91, 0.88 -0.91" stroke="#000000" stroke-width="1.5" fill="none"></path></g></g><g stroke-linecap="round"><g transform="translate(711.1827143533575 539.1140583228105) rotate(0 -31.63596509162386 0.20458771269090903)"><path d="M-0.78 0.69 C-11.2 0.9, -52.17 0.13, -62.65 0.05" stroke="#000000" stroke-width="1.5" fill="none" stroke-dasharray="1.5 7"></path></g><g transform="translate(711.1827143533575 539.1140583228105) rotate(0 -31.63596509162386 0.20458771269090903)"><path d="M-0.73 1.34 L-13.56 8 L-15.42 -5.62 L0.26 0.61" stroke="none" stroke-width="0" fill="#000000" fill-rule="evenodd"></path><path d="M0.08 1.47 C-5.19 1.88, -8.91 3.01, -14.98 6.46 M-14.74 6.3 C-14.94 2.23, -14.79 -1.16, -13.98 -6.01 M-14.14 -4.98 C-11.27 -3.55, -5.73 -2.25, -1.89 0.58 M-0.78 0.69 C-0.78 0.69, -0.78 0.69, -0.78 0.69" stroke="#000000" stroke-width="1.5" fill="none"></path></g></g><g stroke-linecap="round"><g transform="translate(710.420694391384 490.07236342735143) rotate(0 21.74714210273379 -0.04357095623853979)"><path d="M0.28 -1.16 C7.85 -1.11, 37.29 -0.58, 44.45 -0.27" stroke="#000000" stroke-width="1.5" fill="none" stroke-dasharray="1.5 7"></path></g><g transform="translate(710.420694391384 490.07236342735143) rotate(0 21.74714210273379 -0.04357095623853979)"><path d="M1.38 -1.36 L15.57 -7.31 L14.72 5 L-1.43 -2.86" stroke="none" stroke-width="0" fill="#000000" fill-rule="evenodd"></path><path d="M-1.17 0.04 C3.12 -2.81, 7.41 -3.87, 13.65 -6.55 M12.8 -7.33 C14.81 -3.98, 13.5 0.83, 12.55 5.95 M13.36 4.48 C7.99 3.78, 4.58 0.22, -0.29 -1.79 M0.28 -1.16 C0.28 -1.16, 0.28 -1.16, 0.28 -1.16" stroke="#000000" stroke-width="1.5" fill="none"></path></g></g><g stroke-linecap="round"><g transform="translate(714.3313182272383 585.3665783116573) rotate(0 19.753936011561393 0.1736666592616416)"><path d="M0.15 -0.64 C6.63 -0.62, 32.7 -0.99, 39.19 -0.81" stroke="#000000" stroke-width="1.5" fill="none" stroke-dasharray="1.5 7"></path></g><g transform="translate(714.3313182272383 585.3665783116573) rotate(0 19.753936011561393 0.1736666592616416)"><path d="M-1.16 -0.85 L13.96 -8.15 L12.97 5.63 L0.1 0.77" stroke="none" stroke-width="0" fill="#000000" fill-rule="evenodd"></path><path d="M-0.65 -1.04 C3.16 -3.26, 9.15 -5.82, 14.76 -5.95 M12.91 -6.22 C12.87 -1.4, 14.18 1.79, 13.32 5.08 M13.11 6.97 C11.36 4.23, 5.59 3.2, 1.12 0.36 M0.15 -0.64 C0.15 -0.64, 0.15 -0.64, 0.15 -0.64" stroke="#000000" stroke-width="1.5" fill="none"></path></g></g><g transform="translate(587.2823323187282 697.1495727101674) rotate(0 136.49999999999994 22.5)"><text x="136.5" y="11" font-family="Virgil, Segoe UI Emoji" font-size="12px" fill="#2b8a3e" text-anchor="middle" style="white-space: pre;" direction="ltr">if consumer misses heartbeat, </text><text x="136.5" y="26" font-family="Virgil, Segoe UI Emoji" font-size="12px" fill="#2b8a3e" text-anchor="middle" style="white-space: pre;" direction="ltr">or new consumer added or consumer leaves all</text><text x="136.5" y="41" font-family="Virgil, Segoe UI Emoji" font-size="12px" fill="#2b8a3e" text-anchor="middle" style="white-space: pre;" direction="ltr">will get "rejoin" response on their heartbeats</text></g><g transform="translate(754.5619055281385 309.92917326916694) rotate(0 38.50000000000006 7.5)"><text x="38.5" y="11" font-family="Virgil, Segoe UI Emoji" font-size="12px" fill="#1864ab" text-anchor="middle" style="white-space: pre;" direction="ltr">consumer pull</text></g><g stroke-linecap="round" transform="translate(472.3538551988405 625.2899999107159) rotate(0 39.5 27.5)"><path d="M1.69 -1.7 C28.63 -1, 59.3 1.68, 80.81 0.06 M0.51 -0.82 C24.28 0.03, 50.33 -1.66, 79.15 -0.79 M78.65 -1.94 C80.26 22.34, 78.71 41.27, 77.41 56.49 M79.3 0.58 C78.48 20.11, 80.26 40.96, 78.3 55.06 M79.25 54.02 C49.42 54, 18.11 56.26, 0.79 54.35 M79.03 55.94 C53.69 54.35, 29.65 55.36, -0.97 55.25 M-1.59 53.15 C-0.46 39.49, 1.37 21.76, -1.64 -0.48 M-0.98 55.76 C0.98 35.42, 0.92 16.07, -0.58 -0.41" stroke="#000000" stroke-width="1" fill="none"></path></g><g transform="translate(477.3538551988405 637.7899999107159) rotate(0 34.5 15)"><text x="34.5" y="11" font-family="Virgil, Segoe UI Emoji" font-size="12px" fill="#000000" text-anchor="middle" style="white-space: pre;" direction="ltr">broker1 with</text><text x="34.5" y="26" font-family="Virgil, Segoe UI Emoji" font-size="12px" fill="#000000" text-anchor="middle" style="white-space: pre;" direction="ltr">partition#1</text></g><g stroke-linecap="round" transform="translate(850.7822285414238 622.8826238772917) rotate(0 42 27.5)"><path d="M-1.1 0.06 C25.14 2.39, 53.11 0.11, 82.49 -1.03 M0.61 -0.75 C23.56 0.6, 46.68 0.37, 84.68 -0.63 M85.46 -0.11 C85.84 18.61, 84.54 41.01, 84.15 53.34 M83.79 -0.47 C83.95 20.98, 83.84 42.87, 84.79 55.72 M83.24 54.13 C56.43 56.16, 23.4 53.11, 0.66 54.34 M83.57 55.97 C63.65 56.08, 44.57 55.82, 0.62 55.59 M0.94 55.01 C-0.94 44.22, 2.15 29.79, 1.33 1.72 M-0.6 54.48 C0.63 38.27, 0.66 23.52, -0.4 0.12" stroke="#000000" stroke-width="1" fill="none"></path></g><g transform="translate(855.7822285414238 635.3826238772917) rotate(0 37 15)"><text x="37" y="11" font-family="Virgil, Segoe UI Emoji" font-size="12px" fill="#000000" text-anchor="middle" style="white-space: pre;" direction="ltr">broker2 with</text><text x="37" y="26" font-family="Virgil, Segoe UI Emoji" font-size="12px" fill="#000000" text-anchor="middle" style="white-space: pre;" direction="ltr">partition#2</text></g><g transform="translate(576.4318936725789 632.7892288934913) rotate(0 52 22.5)"><text x="52" y="11" font-family="Virgil, Segoe UI Emoji" font-size="12px" fill="#000000" text-anchor="middle" style="white-space: pre;" direction="ltr">fetch messages,</text><text x="52" y="26" font-family="Virgil, Segoe UI Emoji" font-size="12px" fill="#000000" text-anchor="middle" style="white-space: pre;" direction="ltr">process messages</text><text x="52" y="41" font-family="Virgil, Segoe UI Emoji" font-size="12px" fill="#000000" text-anchor="middle" style="white-space: pre;" direction="ltr">&amp; commit offset</text></g><g transform="translate(726.6686329795059 637.3500847937387) rotate(0 52 22.5)"><text x="52" y="11" font-family="Virgil, Segoe UI Emoji" font-size="12px" fill="#000000" text-anchor="middle" style="white-space: pre;" direction="ltr">fetch messages,</text><text x="52" y="26" font-family="Virgil, Segoe UI Emoji" font-size="12px" fill="#000000" text-anchor="middle" style="white-space: pre;" direction="ltr">process messages</text><text x="52" y="41" font-family="Virgil, Segoe UI Emoji" font-size="12px" fill="#000000" text-anchor="middle" style="white-space: pre;" direction="ltr">&amp; commit offset</text></g><g stroke-linecap="round"><g transform="translate(752.2040937186109 318.4653671091827) rotate(0 -143.78965387907652 197.65859741606664)"><path d="M-0.17 -1.07 C-2.6 -0.24, -1.46 4.17, -14.68 5.52 C-27.9 6.87, -51.52 5.95, -79.51 7.03 C-107.5 8.1, -158.96 10.48, -182.63 11.97 C-206.31 13.46, -215 5.66, -221.55 15.96 C-228.09 26.27, -220.12 58.62, -221.89 73.8 C-223.66 88.98, -231.46 93.29, -232.18 107.07 C-232.9 120.85, -227.84 131.74, -226.2 156.49 C-224.56 181.23, -222.77 232.8, -222.35 255.55 C-221.93 278.3, -214.25 285.93, -223.7 292.98 C-233.15 300.03, -268.45 290.4, -279.05 297.84 C-289.64 305.28, -287.22 323.35, -287.27 337.62 C-287.31 351.88, -297.95 377.5, -279.32 383.42 C-260.69 389.34, -194.25 371.05, -175.48 373.12 C-156.7 375.19, -167.95 392.34, -166.69 395.85" stroke="#1864ab" stroke-width="1.5" fill="none" stroke-dasharray="1.5 7"></path></g></g><g stroke-linecap="round"><g transform="translate(838.9736417413415 313.22574036619585) rotate(0 56.61872049804492 197.29986161319852)"><path d="M-0.8 0.96 C1.77 4.64, 11.91 10.72, 16.23 21.73 C20.56 32.74, 17.13 55.3, 25.14 67.02 C33.15 78.75, 59.16 80.08, 64.31 92.09 C69.45 104.1, 58.56 119.23, 56.01 139.1 C53.46 158.97, 47.01 190.87, 49.02 211.31 C51.02 231.75, 59.44 247.69, 68.04 261.75 C76.65 275.8, 93.01 282.8, 100.65 295.63 C108.29 308.45, 112.8 324, 113.9 338.69 C114.99 353.38, 122.48 374.64, 107.24 383.77 C92 392.9, 36.27 391.65, 22.46 393.46" stroke="#1864ab" stroke-width="1.5" fill="none" stroke-dasharray="1.5 7"></path></g></g><g stroke-linecap="round"><g transform="translate(776.6047021841879 287.8589846780583) rotate(0 -1.1489497271470555 12.595535044179712)"><path d="M-0.38 -0.2 C-0.75 3.98, -2.08 20.23, -2.36 24.64" stroke="#2b8a3e" stroke-width="1.5" fill="none" stroke-dasharray="1.5 7"></path></g></g><g stroke-linecap="round" transform="translate(10 591.4086447284429) rotate(0 73.52832000187578 60.32516292752075)"><path d="M1.12 -1.67 C42.1 -1.29, 84.17 0.76, 146.53 1.74 M-0.01 0.62 C49.99 0.92, 99.15 0.09, 146.74 0.79 M148.98 0.62 C146.43 27.3, 149.93 55, 148.34 121.55 M147.33 -0.54 C148.62 46.34, 147.88 92.77, 147.19 120.92 M148.2 122.05 C100.07 122.09, 52.49 121.43, -0.83 122.2 M147.94 120.79 C99.65 120.57, 54.42 120.68, 0.98 120.73 M1.74 119.62 C-0.04 77.3, -1.42 34.65, 1.8 0.41 M-0.65 121.47 C0.1 74.41, -0.79 29.01, 0.2 0.18" stroke="#000000" stroke-width="1" fill="none"></path></g><g transform="translate(56.66021295229166 595.9264459751075) rotate(0 28.5 9)"><text x="28.5" y="13" font-family="Virgil, Segoe UI Emoji" font-size="14px" fill="#000000" text-anchor="middle" style="white-space: pre;" direction="ltr">broker#1</text></g><g stroke-linecap="round" transform="translate(62.22605125862424 624.0166015142765) rotate(0 38.5 15)"><path d="M0 0 C16.69 0, 33.37 0, 77 0 M0 0 C27.89 0, 55.79 0, 77 0 M77 0 C77 9.94, 77 19.87, 77 30 M77 0 C77 7.38, 77 14.76, 77 30 M77 30 C48.53 30, 20.05 30, 0 30 M77 30 C52.83 30, 28.65 30, 0 30 M0 30 C0 22.55, 0 15.1, 0 0 M0 30 C0 18.54, 0 7.08, 0 0" stroke="#000000" stroke-width="2" fill="none"></path></g><g stroke-linecap="round" transform="translate(70.995345279415 629.3630307396236) rotate(0 3.2862864176522635 9.627892747862347)"><path d="M0 0 C1.47 0, 2.94 0, 6.57 0 M0 0 C2.58 0, 5.15 0, 6.57 0 M6.57 0 C6.57 6.49, 6.57 12.98, 6.57 19.26 M6.57 0 C6.57 5.92, 6.57 11.84, 6.57 19.26 M6.57 19.26 C4.39 19.26, 2.2 19.26, 0 19.26 M6.57 19.26 C4.93 19.26, 3.28 19.26, 0 19.26 M0 19.26 C0 14.68, 0 10.11, 0 0 M0 19.26 C0 15.24, 0 11.22, 0 0" stroke="#000000" stroke-width="2" fill="none"></path></g><g stroke-linecap="round" transform="translate(96.16235303673307 629.9084168043485) rotate(0 3.2862864176522635 9.627892747862347)"><path d="M0 0 C2.15 0, 4.29 0, 6.57 0 M0 0 C2.03 0, 4.07 0, 6.57 0 M6.57 0 C6.57 7.59, 6.57 15.18, 6.57 19.26 M6.57 0 C6.57 6.25, 6.57 12.49, 6.57 19.26 M6.57 19.26 C4.6 19.26, 2.63 19.26, 0 19.26 M6.57 19.26 C4.85 19.26, 3.13 19.26, 0 19.26 M0 19.26 C0 15.21, 0 11.17, 0 0 M0 19.26 C0 15.38, 0 11.51, 0 0" stroke="#000000" stroke-width="2" fill="none"></path></g><g stroke-linecap="round" transform="translate(120.79595496846605 630.3686681012341) rotate(0 3.2862864176522635 9.627892747862347)"><path d="M0 0 C2.54 0, 5.09 0, 6.57 0 M0 0 C2.49 0, 4.98 0, 6.57 0 M6.57 0 C6.57 6.64, 6.57 13.29, 6.57 19.26 M6.57 0 C6.57 6.29, 6.57 12.59, 6.57 19.26 M6.57 19.26 C4.09 19.26, 1.61 19.26, 0 19.26 M6.57 19.26 C4.55 19.26, 2.52 19.26, 0 19.26 M0 19.26 C0 13.09, 0 6.92, 0 0 M0 19.26 C0 13.13, 0 7, 0 0" stroke="#000000" stroke-width="2" fill="none"></path></g><g transform="translate(18.69861378756707 614.92386770183) rotate(0 19.5 22.5)"><text x="19.5" y="11" font-family="Virgil, Segoe UI Emoji" font-size="12px" fill="#000000" text-anchor="middle" style="white-space: pre;" direction="ltr">topicA</text><text x="19.5" y="26" font-family="Virgil, Segoe UI Emoji" font-size="12px" fill="#000000" text-anchor="middle" style="white-space: pre;" direction="ltr">part#1</text><text x="19.5" y="41" font-family="Virgil, Segoe UI Emoji" font-size="12px" fill="#000000" text-anchor="middle" style="white-space: pre;" direction="ltr">(main)</text></g><g stroke-linecap="round" transform="translate(70.81447673441107 670.8607070424425) rotate(0 38.5 15)"><path d="M0 0 C23.02 0, 46.04 0, 77 0 M0 0 C30.52 0, 61.04 0, 77 0 M77 0 C77 9.82, 77 19.65, 77 30 M77 0 C77 10.72, 77 21.43, 77 30 M77 30 C47.13 30, 17.26 30, 0 30 M77 30 C47.22 30, 17.44 30, 0 30 M0 30 C0 22.94, 0 15.87, 0 0 M0 30 C0 18.73, 0 7.46, 0 0" stroke="#000000" stroke-width="1" fill="none"></path></g><g stroke-linecap="round" transform="translate(92.74035207627435 676.6652225831683) rotate(0 3.2862864176522635 9.627892747862347)"><path d="M0 0 C2.1 0, 4.2 0, 6.57 0 M0 0 C1.37 0, 2.74 0, 6.57 0 M6.57 0 C6.57 6.8, 6.57 13.6, 6.57 19.26 M6.57 0 C6.57 5.11, 6.57 10.22, 6.57 19.26 M6.57 19.26 C5.21 19.26, 3.84 19.26, 0 19.26 M6.57 19.26 C4.3 19.26, 2.02 19.26, 0 19.26 M0 19.26 C0 13.67, 0 8.08, 0 0 M0 19.26 C0 13.05, 0 6.85, 0 0" stroke="#000000" stroke-width="1" fill="none"></path></g><g stroke-linecap="round" transform="translate(117.36843798837185 676.8807697890345) rotate(0 3.2862864176522635 9.627892747862347)"><path d="M0 0 C1.67 0, 3.35 0, 6.57 0 M0 0 C2.52 0, 5.04 0, 6.57 0 M6.57 0 C6.57 5.37, 6.57 10.75, 6.57 19.26 M6.57 0 C6.57 3.87, 6.57 7.75, 6.57 19.26 M6.57 19.26 C4.39 19.26, 2.21 19.26, 0 19.26 M6.57 19.26 C4.75 19.26, 2.93 19.26, 0 19.26 M0 19.26 C0 15.38, 0 11.51, 0 0 M0 19.26 C0 13.76, 0 8.26, 0 0" stroke="#000000" stroke-width="1" fill="none"></path></g><g transform="translate(15.070807201919024 660.5379032962327) rotate(0 23.5 22.5)"><text x="23.5" y="11" font-family="Virgil, Segoe UI Emoji" font-size="12px" fill="#000000" text-anchor="middle" style="white-space: pre;" direction="ltr">topicA</text><text x="23.5" y="26" font-family="Virgil, Segoe UI Emoji" font-size="12px" fill="#000000" text-anchor="middle" style="white-space: pre;" direction="ltr">part#2</text><text x="23.5" y="41" font-family="Virgil, Segoe UI Emoji" font-size="12px" fill="#000000" text-anchor="middle" style="white-space: pre;" direction="ltr">(replica)</text></g><g stroke-linecap="round" transform="translate(167.33024329416276 649.3424523447744) rotate(0 71.58528148829606 39.85272769439007)"><path d="M0.91 0.75 C37.22 -2.07, 75.12 -0.05, 145.16 1.21 M-0.41 -0.98 C29.77 1.3, 57.76 0.79, 142.59 -0.26 M144.15 -1.47 C142.68 20.31, 141.9 35.99, 143.2 79.64 M142.84 -0.69 C143.71 26.13, 144.33 52.56, 143.34 79.7 M142.02 79.75 C107.71 80.46, 74.53 79.32, 0.18 78.08 M143.05 79.63 C105.82 80.74, 70.14 80.32, 0.73 80.36 M-0.43 79.83 C-1.16 50.87, -0.59 25.13, -0.52 -0.51 M0.14 80.02 C0.75 58.41, 0.36 37.3, 0.31 0.08" stroke="#000000" stroke-width="1" fill="none"></path></g><g transform="translate(210.49045624645441 653.6189801551462) rotate(0 32 9)"><text x="32" y="13" font-family="Virgil, Segoe UI Emoji" font-size="14px" fill="#000000" text-anchor="middle" style="white-space: pre;" direction="ltr">broker#2</text></g><g stroke-linecap="round" transform="translate(226.50385811722776 679.1906147512415) rotate(0 38.5 15)"><path d="M0 0 C24.12 0, 48.25 0, 77 0 M0 0 C19.22 0, 38.44 0, 77 0 M77 0 C77 11.5, 77 23, 77 30 M77 0 C77 11.07, 77 22.14, 77 30 M77 30 C47.19 30, 17.38 30, 0 30 M77 30 C48.94 30, 20.88 30, 0 30 M0 30 C0 21.82, 0 13.64, 0 0 M0 30 C0 22.9, 0 15.79, 0 0" stroke="#000000" stroke-width="2" fill="none"></path></g><g stroke-linecap="round" transform="translate(248.42973345909104 684.9951302919673) rotate(0 3.2862864176522635 9.62789274786229)"><path d="M0 0 C2.22 0, 4.43 0, 6.57 0 M0 0 C2.29 0, 4.58 0, 6.57 0 M6.57 0 C6.57 6.27, 6.57 12.53, 6.57 19.26 M6.57 0 C6.57 6.2, 6.57 12.41, 6.57 19.26 M6.57 19.26 C4.81 19.26, 3.04 19.26, 0 19.26 M6.57 19.26 C4.84 19.26, 3.1 19.26, 0 19.26 M0 19.26 C0 12.53, 0 5.8, 0 0 M0 19.26 C0 12.62, 0 5.99, 0 0" stroke="#000000" stroke-width="2" fill="none"></path></g><g stroke-linecap="round" transform="translate(273.05781937118854 685.2106774978334) rotate(0 3.2862864176522635 9.62789274786229)"><path d="M0 0 C1.63 0, 3.26 0, 6.57 0 M0 0 C2.11 0, 4.22 0, 6.57 0 M6.57 0 C6.57 5.56, 6.57 11.13, 6.57 19.26 M6.57 0 C6.57 7.42, 6.57 14.85, 6.57 19.26 M6.57 19.26 C4.89 19.26, 3.21 19.26, 0 19.26 M6.57 19.26 C4.03 19.26, 1.48 19.26, 0 19.26 M0 19.26 C0 11.94, 0 4.63, 0 0 M0 19.26 C0 12.01, 0 4.76, 0 0" stroke="#000000" stroke-width="2" fill="none"></path></g><g transform="translate(174.02188773893693 674.9945615151482) rotate(0 22 22.5)"><text x="22" y="11" font-family="Virgil, Segoe UI Emoji" font-size="12px" fill="#000000" text-anchor="middle" style="white-space: pre;" direction="ltr">topicA</text><text x="22" y="26" font-family="Virgil, Segoe UI Emoji" font-size="12px" fill="#000000" text-anchor="middle" style="white-space: pre;" direction="ltr">part#2</text><text x="22" y="41" font-family="Virgil, Segoe UI Emoji" font-size="12px" fill="#000000" text-anchor="middle" style="white-space: pre;" direction="ltr">(main)</text></g><g stroke-linecap="round" transform="translate(316.77771203088787 612.5344166215327) rotate(0 69.19286519175085 36.266949916805856)"><path d="M-1.3 -0.4 C56.63 2.37, 109.08 0.5, 136.74 -1.07 M0.29 -0.35 C51.6 -1.67, 102.29 -1.19, 138.71 -0.95 M140.11 -0.51 C138.49 18.6, 139.31 35.65, 140.36 73.64 M138.01 0.19 C138.97 20.2, 138.12 39.29, 138.23 71.78 M137.67 70.65 C95.53 73.15, 57.59 75.17, 0.5 72.57 M137.84 73.06 C109.69 73.36, 79.8 73.16, 0.32 73.07 M-1.43 71.5 C-0.94 48.63, 0.47 27.52, -1.57 -1.68 M0.53 71.65 C0.82 56.84, 0 40.67, -0.68 0.1" stroke="#000000" stroke-width="1" fill="none"></path></g><g transform="translate(360.66501566371767 616.1916099590597) rotate(0 31.5 9)"><text x="31.5" y="13" font-family="Virgil, Segoe UI Emoji" font-size="14px" fill="#000000" text-anchor="middle" style="white-space: pre;" direction="ltr">broker#3</text></g><g stroke-linecap="round" transform="translate(369.23085397005025 644.2817654982288) rotate(0 38.5 15)"><path d="M0 0 C21.55 0, 43.09 0, 77 0 M0 0 C20.38 0, 40.76 0, 77 0 M77 0 C77 8.24, 77 16.48, 77 30 M77 0 C77 9.56, 77 19.12, 77 30 M77 30 C61.14 30, 45.28 30, 0 30 M77 30 C49.83 30, 22.65 30, 0 30 M0 30 C0 22.55, 0 15.1, 0 0 M0 30 C0 23.65, 0 17.29, 0 0" stroke="#000000" stroke-width="1" fill="none"></path></g><g stroke-linecap="round" transform="translate(378.000147990841 649.6281947235758) rotate(0 3.2862864176522635 9.62789274786229)"><path d="M0 0 C2.53 0, 5.05 0, 6.57 0 M0 0 C1.59 0, 3.19 0, 6.57 0 M6.57 0 C6.57 6.9, 6.57 13.8, 6.57 19.26 M6.57 0 C6.57 6.42, 6.57 12.84, 6.57 19.26 M6.57 19.26 C4.68 19.26, 2.78 19.26, 0 19.26 M6.57 19.26 C4.36 19.26, 2.16 19.26, 0 19.26 M0 19.26 C0 14.54, 0 9.83, 0 0 M0 19.26 C0 13.66, 0 8.06, 0 0" stroke="#000000" stroke-width="1" fill="none"></path></g><g stroke-linecap="round" transform="translate(403.1671557481591 650.1735807883007) rotate(0 3.2862864176522635 9.62789274786229)"><path d="M0 0 C1.91 0, 3.83 0, 6.57 0 M6.57 0 C6.57 5.59, 6.57 11.17, 6.57 19.26 M6.57 19.26 C4.34 19.26, 2.11 19.26, 0 19.26 M0 19.26 C0 14.32, 0 9.38, 0 0" stroke="#000000" stroke-width="1.5" fill="none" stroke-dasharray="1.5 7"></path></g><g stroke-linecap="round" transform="translate(427.80075767989206 650.6338320851863) rotate(0 3.2862864176522635 9.62789274786229)"><path d="M0 0 C1.62 0, 3.24 0, 6.57 0 M6.57 0 C6.57 3.96, 6.57 7.91, 6.57 19.26 M6.57 19.26 C4.24 19.26, 1.9 19.26, 0 19.26 M0 19.26 C0 14.93, 0 10.61, 0 0" stroke="#000000" stroke-width="1.5" fill="none" stroke-dasharray="1.5 7"></path></g><g transform="translate(321.7034164989931 635.1890316857822) rotate(0 23.5 22.5)"><text x="23.5" y="11" font-family="Virgil, Segoe UI Emoji" font-size="12px" fill="#000000" text-anchor="middle" style="white-space: pre;" direction="ltr">topicA</text><text x="23.5" y="26" font-family="Virgil, Segoe UI Emoji" font-size="12px" fill="#000000" text-anchor="middle" style="white-space: pre;" direction="ltr">part#1</text><text x="23.5" y="41" font-family="Virgil, Segoe UI Emoji" font-size="12px" fill="#000000" text-anchor="middle" style="white-space: pre;" direction="ltr">(replica)</text></g><g stroke-linecap="round"><g transform="translate(256.49937475228484 558.6889064828456) rotate(0 -48.3406847530639 22.24934955505529)"><path d="M0.08 -0.36 C-15.91 7.12, -79.76 38.01, -96.01 45.56" stroke="#000000" stroke-width="1.5" fill="none" stroke-dasharray="1.5 7"></path></g></g><g transform="translate(23.40869421237386 747.8190857279246) rotate(0 160.99999999999997 17.5)"><text x="161" y="12.5" font-family="Virgil, Segoe UI Emoji" font-size="14px" fill="#000000" text-anchor="middle" style="white-space: pre;" direction="ltr">In-sync replicas - IRS (brokers not far behind)</text><text x="161" y="30" font-family="Virgil, Segoe UI Emoji" font-size="14px" fill="#000000" text-anchor="middle" style="white-space: pre;" direction="ltr"></text></g><g stroke-linecap="round"><g transform="translate(376.05932877331793 686.0945821567052) rotate(0 21.986021751426563 19.602055249432112)"><path d="M-1.17 0.2 C6.26 6.46, 36.33 32.23, 44.02 38.59" stroke="#000000" stroke-width="1.5" fill="none" stroke-dasharray="1.5 7"></path></g></g><g transform="translate(388.60089660489257 716.5106538510494) rotate(0 101.5 17.5)"><text x="101.5" y="12.5" font-family="Virgil, Segoe UI Emoji" font-size="14px" fill="#000000" text-anchor="middle" style="white-space: pre;" direction="ltr">not in-sync (yet),</text><text x="101.5" y="30" font-family="Virgil, Segoe UI Emoji" font-size="14px" fill="#000000" text-anchor="middle" style="white-space: pre;" direction="ltr">will be in-sync once caught up</text></g><g transform="translate(68.66245687962402 770.9393504401124) rotate(0 97 9)"><text x="0" y="13" font-family="Virgil, Segoe UI Emoji" font-size="14px" fill="#e67700" text-anchor="start" style="white-space: pre;" direction="ltr">Modes to ack to producers:</text></g><g stroke-linecap="round"><g transform="translate(314.92048811966356 615.5547836350681) rotate(0 -88.69975803880286 8.911285578244247)"><path d="M0.32 0.54 C-6.58 0.1, -12.25 -4.58, -41.76 -1.74 C-71.27 1.1, -154.29 14, -176.75 17.61 M-0.98 -0.22 C-7.89 -0.61, -12.72 -3.74, -42.09 -0.65 C-71.46 2.44, -154.89 15.25, -177.18 18.35" stroke="#000000" stroke-width="1" fill="none"></path></g><g transform="translate(314.92048811966356 615.5547836350681) rotate(0 -88.69975803880286 8.911285578244247)"><path d="M-177.31 16.84 L-164.89 11.18 L-161.49 22.96 L-178.79 16.87" stroke="none" stroke-width="0" fill="#000000" fill-rule="evenodd"></path><path d="M-176.5 19.83 C-174.97 16.93, -171.94 14.99, -163.15 10.48 M-177.39 18.98 C-173.85 15.67, -169.42 13.79, -163.93 10.4 M-165.25 10.61 C-163.74 14, -164.86 15.73, -163.79 22.07 M-165.24 9.5 C-164.26 13.58, -163.59 18.71, -163.43 22.23 M-162.18 23.3 C-166.27 20.94, -169.82 20.88, -177.5 19.23 M-163.3 23.37 C-169.09 20.96, -173.48 19.01, -177.52 18.36 M-177.18 18.35 C-177.18 18.35, -177.18 18.35, -177.18 18.35 M-177.18 18.35 C-177.18 18.35, -177.18 18.35, -177.18 18.35" stroke="#000000" stroke-width="1" fill="none"></path></g></g><g transform="translate(236.1557012218234 601.0741377794568) rotate(0 16 6.5)"><text x="0" y="9" font-family="Virgil, Segoe UI Emoji" font-size="10px" fill="#000000" text-anchor="start" style="white-space: pre;" direction="ltr">1.fetch</text></g><g stroke-linecap="round"><g transform="translate(308.80578958114234 632.8866359451863) rotate(0 -73.28055826491914 4.904556823388987)"><path d="M-0.92 0.26 C-9.79 -0.04, -28.61 -2.99, -52.69 -1.29 C-76.76 0.41, -129.85 8.47, -145.36 10.45 M0.79 -0.65 C-8.24 -0.88, -29.08 -1.79, -53.46 -0.29 C-77.85 1.2, -130.23 6.88, -145.5 8.31" stroke="#000000" stroke-width="1" fill="none"></path></g><g transform="translate(308.80578958114234 632.8866359451863) rotate(0 -73.28055826491914 4.904556823388987)"><path d="M-145.48 8.57 L-130.97 1.19 L-130.28 13.85 L-147 8.61" stroke="none" stroke-width="0" fill="#000000" fill-rule="evenodd"></path><path d="M-145.18 8.71 C-142.43 7.3, -136.27 4.23, -131.96 -0.85 M-145.02 8.35 C-140.45 5.54, -135.9 2.76, -132.67 0.5 M-133.54 -0.44 C-132.68 4.3, -131.37 6.7, -132.56 12.01 M-132.52 0.3 C-132.64 3.61, -131.61 5.54, -131.12 12.81 M-131.59 13.78 C-136.19 11.66, -141.66 10.48, -146.57 7.98 M-131.59 12.6 C-133.93 12.59, -137.77 10.56, -146.18 8.95 M-145.5 8.31 C-145.5 8.31, -145.5 8.31, -145.5 8.31 M-145.5 8.31 C-145.5 8.31, -145.5 8.31, -145.5 8.31" stroke="#000000" stroke-width="1" fill="none"></path></g></g><g transform="translate(262.4099897013738 618.8911162908571) rotate(0 21 6.5)"><text x="0" y="9" font-family="Virgil, Segoe UI Emoji" font-size="10px" fill="#000000" text-anchor="start" style="white-space: pre;" direction="ltr">2.synced</text></g><g stroke-linecap="round"><g transform="translate(134.22360251025748 696.4126228893379) rotate(0 55.29796026559609 11.023097309961656)"><path d="M0.73 -0.3 C2.67 3.69, -5.85 19.83, 12.47 22.76 C30.79 25.69, 94.25 18.02, 110.64 17.28 M-0.35 -1.51 C1.38 2.25, -6.73 17.71, 11.65 21.01 C30.03 24.31, 93.31 18.51, 109.9 18.29" stroke="#000000" stroke-width="1" fill="none"></path></g><g transform="translate(134.22360251025748 696.4126228893379) rotate(0 55.29796026559609 11.023097309961656)"><path d="M110.98 17.5 L95.24 25.31 L96.42 11.15 L108.55 17.2" stroke="none" stroke-width="0" fill="#000000" fill-rule="evenodd"></path><path d="M109.53 18.58 C105.84 21.02, 99.33 23.88, 97.24 25.64 M109.22 18.27 C105.77 19.95, 103.07 21.65, 96.94 25.51 M97.47 26.58 C97.62 21.27, 95.26 19.24, 95.56 13.73 M96.23 25.8 C95.92 21.9, 96.52 19.1, 96.18 13.09 M95.7 13.38 C97.73 12.93, 101.98 16.28, 109.34 17.58 M96.22 12.73 C100.74 14.31, 104.54 16.51, 110.46 18.87 M109.9 18.29 C109.9 18.29, 109.9 18.29, 109.9 18.29 M109.9 18.29 C109.9 18.29, 109.9 18.29, 109.9 18.29" stroke="#000000" stroke-width="1" fill="none"></path></g></g><g transform="translate(103.59960778669051 712.8723412486534) rotate(0 16 6.5)"><text x="0" y="9" font-family="Virgil, Segoe UI Emoji" font-size="10px" fill="#000000" text-anchor="start" style="white-space: pre;" direction="ltr">1.fetch</text></g><g stroke-linecap="round"><g transform="translate(54.358620841454126 721.8441248379817) rotate(0 56.436918698442014 6.969323406732656)"><path d="M0.32 -0.9 C8.36 1.46, 30.4 11.67, 49.2 13.19 C68.01 14.71, 102.36 9.05, 113.13 8.23 M-0.97 1.25 C6.92 3.82, 29.87 13.54, 48.79 14.34 C67.7 15.15, 101.53 6.87, 112.5 6.08" stroke="#000000" stroke-width="1" fill="none"></path></g><g transform="translate(54.358620841454126 721.8441248379817) rotate(0 56.436918698442014 6.969323406732656)"><path d="M112.79 7.8 L99.39 16.35 L97.34 1.38 L111.48 5.03" stroke="none" stroke-width="0" fill="#000000" fill-rule="evenodd"></path><path d="M111.38 7.35 C106.77 9.59, 103.43 13.65, 100.55 15 M113.06 6.1 C109.08 8.8, 103.73 11.01, 100.08 14.27 M100.58 15.18 C99.17 10.78, 98.12 7.72, 99.01 2.02 M100.54 14.88 C99.28 10.1, 99.23 6.9, 97.61 2.37 M98.26 1.62 C103.43 3.13, 105.74 3.77, 113.08 5.92 M98.28 2.04 C103.08 3.67, 106.25 4.44, 112.24 5.49 M112.5 6.08 C112.5 6.08, 112.5 6.08, 112.5 6.08 M112.5 6.08 C112.5 6.08, 112.5 6.08, 112.5 6.08" stroke="#000000" stroke-width="1" fill="none"></path></g></g><g transform="translate(38.15761799104507 727.2756713081021) rotate(0 21 6.5)"><text x="0" y="9" font-family="Virgil, Segoe UI Emoji" font-size="10px" fill="#000000" text-anchor="start" style="white-space: pre;" direction="ltr">2.synced</text></g><g transform="translate(575.9050816880061 761.0064567975506) rotate(0 64.5 17.5)"><text x="0" y="12.5" font-family="Virgil, Segoe UI Emoji" font-size="14px" fill="#1864ab" text-anchor="start" style="white-space: pre;" direction="ltr">Delivery semantics:</text><text x="0" y="30" font-family="Virgil, Segoe UI Emoji" font-size="14px" fill="#1864ab" text-anchor="start" style="white-space: pre;" direction="ltr"></text></g><g transform="translate(577.9936566685983 785.0265991430452) rotate(0 208.5 44)"><text x="0" y="12.600000000000001" font-family="Virgil, Segoe UI Emoji" font-size="14px" fill="#000000" text-anchor="start" style="white-space: pre;" direction="ltr">* At most once (usually when ACK=0). </text><text x="0" y="30.200000000000003" font-family="Virgil, Segoe UI Emoji" font-size="14px" fill="#000000" text-anchor="start" style="white-space: pre;" direction="ltr">Message can be lost before storage, or while consumed</text><text x="0" y="47.800000000000004" font-family="Virgil, Segoe UI Emoji" font-size="14px" fill="#000000" text-anchor="start" style="white-space: pre;" direction="ltr">* At least once (usually ACK={1,ALL})</text><text x="0" y="65.4" font-family="Virgil, Segoe UI Emoji" font-size="14px" fill="#000000" text-anchor="start" style="white-space: pre;" direction="ltr">Message can be delivered/consumed multiple times, with dups</text><text x="0" y="83" font-family="Virgil, Segoe UI Emoji" font-size="14px" fill="#000000" text-anchor="start" style="white-space: pre;" direction="ltr">* Exactly once (difficult)</text></g><g transform="translate(68.00799341913557 795.431753169043) rotate(0 241 44)"><text x="0" y="12.600000000000001" font-family="Virgil, Segoe UI Emoji" font-size="14px" fill="#000000" text-anchor="start" style="white-space: pre;" direction="ltr">* ACK=all (wait for all IRS to ack, before ack to producer)</text><text x="0" y="30.200000000000003" font-family="Virgil, Segoe UI Emoji" font-size="14px" fill="#000000" text-anchor="start" style="white-space: pre;" direction="ltr">* ACK=1 (once stored on main/leader for partition, producer is acked)</text><text x="0" y="47.800000000000004" font-family="Virgil, Segoe UI Emoji" font-size="14px" fill="#000000" text-anchor="start" style="white-space: pre;" direction="ltr">* ACK=0 (producer does not get acks)</text><text x="0" y="65.4" font-family="Virgil, Segoe UI Emoji" font-size="14px" fill="#000000" text-anchor="start" style="white-space: pre;" direction="ltr">ACK=1 may loose message (if leader dies before replication)</text><text x="0" y="83" font-family="Virgil, Segoe UI Emoji" font-size="14px" fill="#000000" text-anchor="start" style="white-space: pre;" direction="ltr">ACK=0 also may loose messages</text></g><g stroke-linecap="round" transform="translate(435.91473517233817 299.33029815455086) rotate(0 23 18.34792792394836)"><path d="M1.05 -0.2 C18.19 -0.77, 35.87 1.5, 47.88 -0.07 M44.09 -1.18 C46.81 16.17, 44.22 30.16, 47.21 38.45 M45.15 36.95 C33.13 36.25, 21 35.82, 1.01 35.99 M1.04 35.48 C-0.39 23.75, -0.57 10.58, 1.73 1.07" stroke="#5f3dc4" stroke-width="1.5" fill="none" stroke-dasharray="1.5 7"></path></g><g transform="translate(440.91473517233817 304.6782260784992) rotate(0 18 13)"><text x="18" y="9" font-family="Virgil, Segoe UI Emoji" font-size="10px" fill="#5f3dc4" text-anchor="middle" style="white-space: pre;" direction="ltr">tag</text><text x="18" y="22" font-family="Virgil, Segoe UI Emoji" font-size="10px" fill="#5f3dc4" text-anchor="middle" style="white-space: pre;" direction="ltr">filter</text></g><g stroke-linecap="round" transform="translate(20.70810851072605 426.81474865793564) rotate(0 93.07608014530811 73.9926187978827)"><path d="M-0.22 -0.64 C43.72 -0.38, 84.92 -0.9, 184.82 1.75 M184.57 -1.33 C186.17 48.94, 183.7 100.04, 186.34 147.68 M187.68 146.95 C136.3 146.92, 84.47 146.58, -0.94 146.2 M-0.67 148.38 C0.74 101.8, 0.54 53.06, 1.57 -0.24" stroke="#e67700" stroke-width="1.5" fill="none" stroke-dasharray="1.5 7"></path></g><g transform="translate(62.127643194294876 434.8363354085523) rotate(0 43.00313752805599 13.394419885787926)"><text x="0" y="18.788839771575837" font-family="Virgil, Segoe UI Emoji" font-size="21.14908403019145px" fill="#000000" text-anchor="start" style="white-space: pre;" direction="ltr">message</text></g><g transform="translate(32.868351091565614 468.7091141080364) rotate(0 84 45)"><text x="0" y="11" font-family="Virgil, Segoe UI Emoji" font-size="12px" fill="#000000" text-anchor="start" style="white-space: pre;" direction="ltr">* key (optional, used to </text><text x="0" y="26" font-family="Virgil, Segoe UI Emoji" font-size="12px" fill="#000000" text-anchor="start" style="white-space: pre;" direction="ltr">assign partition or random)</text><text x="0" y="41" font-family="Virgil, Segoe UI Emoji" font-size="12px" fill="#000000" text-anchor="start" style="white-space: pre;" direction="ltr">* value (bytes)</text><text x="0" y="56" font-family="Virgil, Segoe UI Emoji" font-size="12px" fill="#000000" text-anchor="start" style="white-space: pre;" direction="ltr">* topic + partition + offset</text><text x="0" y="71" font-family="Virgil, Segoe UI Emoji" font-size="12px" fill="#000000" text-anchor="start" style="white-space: pre;" direction="ltr">* timestamp</text><text x="0" y="86" font-family="Virgil, Segoe UI Emoji" font-size="12px" fill="#000000" text-anchor="start" style="white-space: pre;" direction="ltr">* size, CRC</text></g><g transform="translate(32.85595472632792 558.5350129984581) rotate(0 50.5 7.5)"><text x="0" y="11" font-family="Virgil, Segoe UI Emoji" font-size="12px" fill="#5f3dc4" text-anchor="start" style="white-space: pre;" direction="ltr">* tags (optional)</text></g><g stroke-linecap="round"><g transform="translate(556.1658932451828 264.37119516742575) rotate(0 -49.44148412142499 7.037223043703449)"><path d="M-0.59 0.85 C-5.34 -0.93, -11.93 -14.37, -28.44 -10.28 C-44.95 -6.19, -87.75 19.58, -99.66 25.37" stroke="#5f3dc4" stroke-width="1.5" fill="none" stroke-dasharray="1.5 7"></path></g><g transform="translate(556.1658932451828 264.37119516742575) rotate(0 -49.44148412142499 7.037223043703449)"><path d="M-98.62 24.11 L-91.42 14.14 L-85.31 25.96 L-97.78 26.93" stroke="none" stroke-width="0" fill="#5f3dc4" fill-rule="evenodd"></path><path d="M-98.59 24.2 C-96.3 20.78, -93.67 16.81, -91.3 12.53 M-90.8 13.45 C-89.46 16.71, -86.56 22.13, -83.52 25.49 M-85.76 24.71 C-87.42 23.91, -91.86 24.51, -101.14 23.94 M-99.66 25.37 C-99.66 25.37, -99.66 25.37, -99.66 25.37" stroke="#5f3dc4" stroke-width="1.5" fill="none"></path></g></g><g transform="translate(503.2082800602823 235.09204507661428) rotate(0 51.5 6.5)"><text x="0" y="9" font-family="Virgil, Segoe UI Emoji" font-size="10px" fill="#5f3dc4" text-anchor="start" style="white-space: pre;" direction="ltr">subscription with tags</text></g><g transform="translate(69.84748188677275 891.4672367736737) rotate(0 425.5 33)"><text x="0" y="11.5" font-family="Virgil, Segoe UI Emoji" font-size="13px" fill="#495057" text-anchor="start" style="white-space: pre;" direction="ltr">Other considerations: </text><text x="0" y="28" font-family="Virgil, Segoe UI Emoji" font-size="13px" fill="#495057" text-anchor="start" style="white-space: pre;" direction="ltr">1. delayed messages (need separate storage) + trigger to main queue (e.g. using dedicated delay queues for 1m,5m,1h, etc)</text><text x="0" y="44.5" font-family="Virgil, Segoe UI Emoji" font-size="13px" fill="#495057" text-anchor="start" style="white-space: pre;" direction="ltr">2. retry topics (messages that failed to be consumed)</text><text x="0" y="61" font-family="Virgil, Segoe UI Emoji" font-size="13px" fill="#495057" text-anchor="start" style="white-space: pre;" direction="ltr">3. Keep historical data in HDFS or object store (to replay messages, since WAL is truncated after messages are consumed/acked)</text></g></svg>